STARTFONT 2.1
COMMENT
COMMENT Converted from OpenType font "NimbusSans-Regular.otf" by "otf2bdf 3.0".
COMMENT
FONT -FreeType-Nimbus Sans-Medium-R-Normal--61-440-100-100-P-318-ISO10646-1
SIZE 44 100 100
FONTBOUNDINGBOX 76 84 -13 -18
STARTPROPERTIES 19
FOUNDRY "FreeType"
FAMILY_NAME "Nimbus Sans"
WEIGHT_NAME "Medium"
SLANT "R"
SETWIDTH_NAME "Normal"
ADD_STYLE_NAME ""
PIXEL_SIZE 61
POINT_SIZE 440
RESOLUTION_X 100
RESOLUTION_Y 100
SPACING "P"
AVERAGE_WIDTH 318
CHARSET_REGISTRY "ISO10646"
CHARSET_ENCODING "1"
FONT_ASCENT 44
FONT_DESCENT 16
COPYRIGHT "(URW)++,Copyright 2014 by (URW)++ Design & Development"
_OTF_FONTFILE "NimbusSans-Regular.otf"
_OTF_PSNAME "NimbusSans-Regular"
ENDPROPERTIES
CHARS 854
STARTCHAR 0020
ENCODING 32
SWIDTH 278 0
DWIDTH 17 0
BBX 0 0 0 0
BITMAP
ENDCHAR
STARTCHAR 0021
ENCODING 33
SWIDTH 278 0
DWIDTH 17 0
BBX 5 45 8 0
BITMAP
F8
F8
F8
F8
F8
F8
F8
F8
F8
F8
F8
F8
F8
F8
F8
F8
F8
F8
F8
F8
F8
F8
F8
F0
F0
F0
F0
F0
F0
F0
70
70
70
60
60
00
00
00
00
F8
F8
F8
F8
F8
F8
ENDCHAR
STARTCHAR 0022
ENCODING 34
SWIDTH 360 0
DWIDTH 22 0
BBX 16 15 3 28
BITMAP
FC3F
FC3F
FC3F
FC3F
FC3F
FC3F
FC3F
FC3E
783E
781E
781E
781E
781C
301C
300C
ENDCHAR
STARTCHAR 0023
ENCODING 35
SWIDTH 556 0
DWIDTH 34 0
BBX 32 44 1 -1
BITMAP
000F00F8
001F00F0
001F01F0
001F01F0
001F01F0
001E01F0
001E01E0
003E01E0
003E03E0
003E03E0
003C03E0
003C03E0
3FFFFFFF
3FFFFFFF
3FFFFFFF
3FFFFFFF
007807C0
00F80780
00F80780
00F80F80
00F80F80
00F00F80
00F00F80
01F00F00
01F00F00
01F01F00
01F01F00
FFFFFFFC
FFFFFFFC
FFFFFFFC
FFFFFFFC
03E03E00
03C03E00
03C03E00
07C03C00
07C03C00
07C07C00
07C07C00
07807C00
07807800
0F807800
0F80F800
0F80F800
0F00F800
ENDCHAR
STARTCHAR 0024
ENCODING 36
SWIDTH 556 0
DWIDTH 34 0
BBX 30 55 2 -8
BITMAP
00078000
00078000
00078000
000FE000
00FFFC00
03FFFF00
07FFFF80
0FFFFFC0
1FC78FE0
1F8783F0
3F0783F0
3E0781F0
3E0781F8
7C0780F8
7C0780F8
7C078000
7C078000
7E078000
3E078000
3F078000
3F878000
1FE78000
0FFF8000
0FFFE000
03FFFC00
01FFFF80
003FFFC0
0007FFE0
0007BFF0
000787F8
000783F8
000780FC
000780FC
0007807C
F807807C
F807807C
FC07807C
7C07807C
7C07807C
7C0780F8
7E0780F8
3F0781F8
3F8783F0
1FE78FE0
0FFFFFE0
07FFFFC0
03FFFF00
00FFFC00
00078000
00078000
00078000
00078000
00078000
00078000
00078000
ENDCHAR
STARTCHAR 0025
ENCODING 37
SWIDTH 883 0
DWIDTH 54 0
BBX 50 44 2 -1
BITMAP
000000001E0000
01FC00003C0000
07FF00003C0000
1FFF8000780000
3FFFC000780000
3F8FE000F00000
7C03E001E00000
7801F001E00000
F800F003C00000
F000F003C00000
F000F807800000
F000F807800000
F000F80F000000
F000F00F000000
F800F01E000000
7801F01E000000
7E03E03C000000
3F9FE078000000
3FFFC078000000
1FFF80F0000000
07FF00F0000000
01F801E0000000
000001E0000000
000003C007E000
000003C01FFC00
000007807FFE00
00000780FFFF00
00000F00FE3F80
00001F01F00F80
00001E03E007C0
00003C03E007C0
00003C03C003C0
00007803C003C0
00007803C003C0
0000F003C003C0
0000F003C003C0
0001E003E003C0
0001E003E007C0
0003C001F00F80
0003C001FE7F80
00078000FFFF00
000F00007FFE00
000F00001FF800
001E000007E000
ENDCHAR
STARTCHAR 0026
ENCODING 38
SWIDTH 670 0
DWIDTH 41 0
BBX 36 44 3 -1
BITMAP
000FE00000
003FF80000
007FFE0000
01FFFF0000
01FC7F0000
03F01F8000
03E00F8000
07C00F8000
07C007C000
07C007C000
07C0078000
07C00F8000
03E00F8000
03F01F8000
01F03F0000
01F87E0000
00FDFC0000
007FF80000
007FE00000
003FC00000
00FFC00000
03FFC00000
07F7E00000
0FE3F01F00
1F81F81F00
3F00FC1F00
7E00FE1F00
7C007E3E00
7C003F3E00
FC001FFE00
F8000FFC00
F8000FFC00
F80007F800
FC0003F800
FC0003F800
7E0007FC00
7E000FFE00
7F001FFE00
3FC07FBF00
1FFFFF1F80
1FFFFE1FC0
07FFF80FE0
03FFF007F0
007F800000
ENDCHAR
STARTCHAR 0027
ENCODING 39
SWIDTH 196 0
DWIDTH 12 0
BBX 6 15 3 28
BITMAP
FC
FC
FC
FC
FC
FC
FC
F8
F8
78
78
78
70
70
30
ENDCHAR
STARTCHAR 0028
ENCODING 40
SWIDTH 327 0
DWIDTH 20 0
BBX 14 58 4 -13
BITMAP
0038
0078
0070
00F0
01E0
01E0
03C0
03C0
07C0
0780
0F80
0F00
0F00
1F00
1E00
1E00
3E00
3E00
3C00
3C00
7C00
7C00
7C00
7C00
7C00
7C00
7800
F800
F800
F800
F800
7C00
7C00
7C00
7C00
7C00
7C00
7C00
3C00
3E00
3E00
3E00
1E00
1F00
1F00
0F00
0F80
0780
0780
03C0
03C0
01E0
01E0
00F0
00F0
0078
0038
003C
ENDCHAR
STARTCHAR 0029
ENCODING 41
SWIDTH 327 0
DWIDTH 20 0
BBX 14 58 2 -13
BITMAP
7000
7800
3C00
3C00
1E00
1E00
0F00
0F00
0780
0780
07C0
03C0
03E0
03E0
01E0
01F0
01F0
01F0
00F0
00F8
00F8
00F8
00F8
00F8
0078
007C
007C
007C
007C
007C
007C
007C
0078
00F8
00F8
00F8
00F8
00F8
00F8
00F0
01F0
01F0
01E0
01E0
03E0
03C0
03C0
07C0
0780
0F80
0F00
0F00
1E00
1C00
3C00
3800
7000
F000
ENDCHAR
STARTCHAR 002A
ENCODING 42
SWIDTH 392 0
DWIDTH 24 0
BBX 18 18 3 27
BITMAP
01E000
01E000
01E000
01C000
01C000
E1C380
FDDF80
FFFFC0
7FFF80
0FF800
03F000
07F800
0F7800
1F3C00
1E3E00
3C1F00
1C0C00
000800
ENDCHAR
STARTCHAR 002B
ENCODING 43
SWIDTH 589 0
DWIDTH 36 0
BBX 30 30 3 -1
BITMAP
00078000
00078000
00078000
00078000
00078000
00078000
00078000
00078000
00078000
00078000
00078000
00078000
00078000
FFFFFFFC
FFFFFFFC
FFFFFFFC
FFFFFFFC
00078000
00078000
00078000
00078000
00078000
00078000
00078000
00078000
00078000
00078000
00078000
00078000
00078000
ENDCHAR
STARTCHAR 002C
ENCODING 44
SWIDTH 278 0
DWIDTH 17 0
BBX 7 15 5 -9
BITMAP
FE
FE
FE
FE
FE
FE
0E
0E
0E
0E
0C
1C
78
F8
E0
ENDCHAR
STARTCHAR 002D
ENCODING 45
SWIDTH 327 0
DWIDTH 20 0
BBX 14 4 3 15
BITMAP
FFFC
FFFC
FFFC
FFFC
ENDCHAR
STARTCHAR 002E
ENCODING 46
SWIDTH 278 0
DWIDTH 17 0
BBX 7 6 5 0
BITMAP
FE
FE
FE
FE
FE
FE
ENDCHAR
STARTCHAR 002F
ENCODING 47
SWIDTH 278 0
DWIDTH 17 0
BBX 17 46 0 -1
BITMAP
000380
000380
000780
000700
000700
000F00
000E00
000E00
001E00
001C00
001C00
003C00
003800
003800
007800
007000
007000
00F000
00F000
00E000
00E000
01E000
01C000
01C000
03C000
038000
038000
078000
070000
070000
0F0000
0E0000
0E0000
1E0000
1C0000
1C0000
3C0000
3C0000
380000
380000
780000
700000
700000
F00000
E00000
E00000
ENDCHAR
STARTCHAR 0030
ENCODING 48
SWIDTH 556 0
DWIDTH 34 0
BBX 28 45 3 -1
BITMAP
003F8000
00FFF000
03FFFC00
07FFFE00
0FFFFF00
1FE07F00
1F803F80
3F001F80
3F000FC0
3E000FC0
7E0007E0
7C0007E0
7C0003E0
FC0003E0
FC0003E0
FC0003F0
F80003F0
F80003F0
F80003F0
F80003F0
F80003F0
F80003F0
F80003F0
F80003F0
F80003F0
F80003F0
F80003F0
F80003F0
F80003F0
FC0003F0
FC0003E0
FC0003E0
7C0003E0
7C0007E0
7E0007C0
7E0007C0
3F000FC0
3F000F80
1F801F80
1FC03F00
0FFBFE00
07FFFE00
03FFF800
00FFF000
003F8000
ENDCHAR
STARTCHAR 0031
ENCODING 49
SWIDTH 556 0
DWIDTH 34 0
BBX 15 44 6 0
BITMAP
000E
001E
001E
003E
003E
007E
00FE
03FE
7FFE
FFFE
FFFE
FFFE
FFFE
003E
003E
003E
003E
003E
003E
003E
003E
003E
003E
003E
003E
003E
003E
003E
003E
003E
003E
003E
003E
003E
003E
003E
003E
003E
003E
003E
003E
003E
003E
003E
ENDCHAR
STARTCHAR 0032
ENCODING 50
SWIDTH 556 0
DWIDTH 34 0
BBX 29 44 2 0
BITMAP
001FF000
00FFFC00
03FFFF00
07FFFF80
0FFFFFC0
0FE01FE0
1FC007F0
3F8003F0
3F0003F8
3F0001F8
3E0001F8
7E0000F8
7E0000F8
7E0000F8
7E0000F8
000001F8
000001F8
000003F0
000003F0
000007E0
00000FE0
00003FC0
00007F80
0001FF00
0007FE00
000FF800
003FE000
00FFC000
01FF0000
03FC0000
07F00000
0FE00000
1FC00000
1F800000
3F000000
3E000000
7E000000
7C000000
7C000000
7FFFFFF8
FFFFFFF8
FFFFFFF8
FFFFFFF8
FFFFFFF8
ENDCHAR
STARTCHAR 0033
ENCODING 51
SWIDTH 556 0
DWIDTH 34 0
BBX 29 45 2 -1
BITMAP
003FE000
01FFFC00
03FFFE00
07FFFF00
0FFFFF80
1FE03FC0
1F800FE0
3F0007E0
3E0007E0
7E0003E0
7E0003F0
7C0003F0
7C0003F0
7C0003F0
000003E0
000003E0
000007E0
00000FC0
00003F80
001FFF00
001FFE00
001FFE00
001FFF80
001FFFC0
00001FE0
000007F0
000003F0
000001F0
000001F8
000001F8
000001F8
F80001F8
FC0001F8
FC0001F8
FC0001F8
7C0001F0
7E0003F0
7E0007F0
3F000FE0
3FC01FC0
1FFFFFC0
0FFFFF80
07FFFE00
01FFFC00
003FE000
ENDCHAR
STARTCHAR 0034
ENCODING 52
SWIDTH 556 0
DWIDTH 34 0
BBX 30 44 2 0
BITMAP
00001E00
00003E00
00007E00
00007E00
0000FE00
0001FE00
0003FE00
0003FE00
0007FE00
000FBE00
000FBE00
001F3E00
003E3E00
007E3E00
007C3E00
00F83E00
01F83E00
01F03E00
03E03E00
07C03E00
07C03E00
0F803E00
1F003E00
3F003E00
3E003E00
7C003E00
FC003E00
F8003E00
FFFFFFFC
FFFFFFFC
FFFFFFFC
FFFFFFFC
FFFFFFFC
00003E00
00003E00
00003E00
00003E00
00003E00
00003E00
00003E00
00003E00
00003E00
00003E00
00003E00
ENDCHAR
STARTCHAR 0035
ENCODING 53
SWIDTH 556 0
DWIDTH 34 0
BBX 29 44 2 -1
BITMAP
07FFFFE0
0FFFFFE0
0FFFFFE0
0FFFFFE0
0FFFFFE0
0F800000
0F800000
0F800000
0F800000
1F000000
1F000000
1F000000
1F000000
1F000000
1F07C000
1F3FFC00
3EFFFE00
3FFFFF80
3FFFFFC0
3FE03FE0
3F800FE0
3F0007F0
3E0003F0
000001F8
000001F8
000001F8
000000F8
000000F8
000000F8
000000F8
000000F8
000000F8
FC0000F8
FC0001F8
7C0001F0
7E0003F0
7F0007F0
3F800FE0
1FE03FC0
1FFFFF80
0FFFFF00
03FFFE00
01FFF800
003FC000
ENDCHAR
STARTCHAR 0036
ENCODING 54
SWIDTH 556 0
DWIDTH 34 0
BBX 28 45 3 -1
BITMAP
001FE000
007FF800
01FFFE00
03FFFF00
07FFFF80
0FE03F80
1FC01FC0
1F800FC0
3F0007E0
3F0007E0
3E0003E0
7E0003E0
7C000000
7C000000
FC000000
FC000000
F8000000
F81FE000
F87FFC00
F9FFFE00
FBFFFF00
FFFFFF80
FFE03FC0
FF800FE0
FF0007E0
FE0007F0
FC0003F0
FC0003F0
FC0001F0
FC0001F0
F80001F0
F80001F0
FC0001F0
7C0001F0
7C0003F0
7E0003F0
3E0007E0
3F0007E0
1F800FC0
1FE03FC0
0FFFFF80
07FFFF00
03FFFC00
00FFF800
003FC000
ENDCHAR
STARTCHAR 0037
ENCODING 55
SWIDTH 556 0
DWIDTH 34 0
BBX 29 43 3 0
BITMAP
FFFFFFF8
FFFFFFF8
FFFFFFF8
FFFFFFF8
FFFFFFF8
000001F0
000003E0
000003E0
000007C0
00000F80
00000F80
00001F00
00003E00
00003E00
00007C00
00007800
0000F800
0001F000
0001F000
0003E000
0003E000
0007C000
0007C000
000F8000
000F8000
001F0000
001F0000
003F0000
003E0000
003E0000
007C0000
007C0000
00FC0000
00F80000
00F80000
01F80000
01F80000
01F00000
01F00000
03F00000
03F00000
03E00000
03E00000
ENDCHAR
STARTCHAR 0038
ENCODING 56
SWIDTH 556 0
DWIDTH 34 0
BBX 29 45 2 -1
BITMAP
001FE000
00FFFC00
03FFFE00
07FFFF80
0FFFFF80
0FE03FC0
1F800FE0
1F8007E0
3F0003E0
3F0003F0
3E0003F0
3E0003F0
3E0003F0
3F0003F0
3F0003E0
3F0007E0
1F800FE0
0FE01FC0
07FFFF80
03FFFF00
00FFFC00
03FFFF00
07FFFF80
0FF03FC0
1F800FE0
3F0007F0
7E0003F0
7E0001F8
7C0001F8
FC0000F8
FC0000F8
FC0000F8
FC0000F8
FC0000F8
7C0001F8
7E0001F8
7E0001F0
3F0003F0
3F8007E0
1FE01FE0
0FFFFFC0
07FFFF80
03FFFF00
00FFFC00
003FE000
ENDCHAR
STARTCHAR 0039
ENCODING 57
SWIDTH 556 0
DWIDTH 34 0
BBX 29 45 2 -1
BITMAP
001FC000
00FFF800
03FFFE00
07FFFF00
0FFFFF80
1FE03F80
1F800FC0
3F0007E0
7E0003E0
7E0003F0
7C0001F0
7C0001F0
FC0001F0
FC0001F8
FC0001F8
FC0001F8
FC0001F8
7C0001F8
7E0003F8
7E0003F8
3F0007F8
3F800FF8
1FE03FF8
1FFFFEF8
0FFFFCF8
03FFF9F8
01FFF1F8
003F81F8
000001F8
000001F8
000001F0
000001F0
000003F0
000003F0
7E0003E0
3E0007E0
3F0007C0
3F000FC0
1F801F80
1FE07F80
0FFFFF00
07FFFE00
03FFFC00
01FFF000
003F8000
ENDCHAR
STARTCHAR 003A
ENCODING 58
SWIDTH 278 0
DWIDTH 17 0
BBX 6 32 7 0
BITMAP
FC
FC
FC
FC
FC
FC
00
00
00
00
00
00
00
00
00
00
00
00
00
00
00
00
00
00
00
00
FC
FC
FC
FC
FC
FC
ENDCHAR
STARTCHAR 003B
ENCODING 59
SWIDTH 278 0
DWIDTH 17 0
BBX 6 41 7 -9
BITMAP
FC
FC
FC
FC
FC
FC
00
00
00
00
00
00
00
00
00
00
00
00
00
00
00
00
00
00
00
00
FC
FC
FC
FC
FC
FC
1C
1C
1C
1C
1C
18
78
F0
C0
ENDCHAR
STARTCHAR 003C
ENCODING 60
SWIDTH 589 0
DWIDTH 36 0
BBX 30 29 3 0
BITMAP
0000001C
0000007C
000001FC
00000FFC
00003FF8
0001FFE0
0007FF00
001FFC00
00FFE000
03FF8000
0FFC0000
7FF00000
FFC00000
FE000000
FC000000
FF800000
FFE00000
3FFC0000
07FF0000
01FFC000
003FF800
000FFE00
0003FFC0
00007FF0
00001FFC
000007FC
000000FC
0000003C
0000000C
ENDCHAR
STARTCHAR 003D
ENCODING 61
SWIDTH 589 0
DWIDTH 36 0
BBX 30 14 3 7
BITMAP
FFFFFFFC
FFFFFFFC
FFFFFFFC
FFFFFFFC
00000000
00000000
00000000
00000000
00000000
00000000
FFFFFFFC
FFFFFFFC
FFFFFFFC
FFFFFFFC
ENDCHAR
STARTCHAR 003E
ENCODING 62
SWIDTH 589 0
DWIDTH 36 0
BBX 30 29 3 0
BITMAP
C0000000
F8000000
FE000000
FFC00000
FFF00000
1FFC0000
07FF8000
00FFE000
003FF800
000FFF00
0001FFC0
00007FF0
00000FFC
000003FC
000000FC
000007FC
00001FFC
0000FFE0
0003FF80
000FFE00
007FF000
01FFC000
0FFE0000
3FF80000
FFE00000
FF000000
FC000000
F0000000
80000000
ENDCHAR
STARTCHAR 003F
ENCODING 63
SWIDTH 556 0
DWIDTH 34 0
BBX 26 46 5 0
BITMAP
007F8000
03FFF000
0FFFFC00
1FFFFE00
3FFFFF00
3F80FF80
7E003F80
7C001F80
FC000FC0
FC000FC0
F8000FC0
F80007C0
F80007C0
F8000FC0
F8000FC0
00000FC0
00001F80
00001F80
00003F00
00007E00
0000FE00
0001FC00
0003F800
0007F000
000FC000
001F8000
003F8000
003F0000
003F0000
003E0000
003E0000
003E0000
003E0000
003E0000
00000000
00000000
00000000
00000000
00000000
00000000
003E0000
003E0000
003E0000
003E0000
003E0000
003E0000
ENDCHAR
STARTCHAR 0040
ENCODING 64
SWIDTH 1014 0
DWIDTH 62 0
BBX 56 55 2 -9
BITMAP
0000007FE00000
000007FFFE0000
00003FFFFFC000
0000FFFFFFF000
0001FFFFFFF800
0007FE001FFE00
000FF80003FF00
003FE00000FF80
007F8000003FC0
00FE0000001FE0
00FC0000000FF0
01F800000007F8
03F000000003F8
07E000000001FC
07C0003F8000FC
0FC000FFE1F0FE
0F8003FFF3E07E
1F0007FFF3E07E
1F000FE0FBE03F
3E001F803FC03F
3E003F003FC03F
7E007E001FC01F
7C007C001F801F
7C00FC001F801F
7C01F8001F801F
FC01F8001F001F
F801F0001F001F
F801F0001F003F
F803F0003E003E
F803F0003E003E
F803F0003E007E
F803F0007C007C
FC03F0007C00FC
FC03F000FC00F8
7C01F000FC01F8
7C01F801FC03F0
7E01FC03FC07E0
7E00FE0FFE1FC0
3F007FFF7FFF80
3F003FFE7FFF00
1F801FF83FFE00
1FC007E00FF000
0FE00000000000
07E00000000000
07F80000000000
03FC0000000000
01FE0000000000
00FF8000000000
007FF000030000
001FFE003F8000
000FFFFFFF8000
0003FFFFFF8000
0000FFFFFF8000
00001FFFF80000
000000FF000000
ENDCHAR
STARTCHAR 0041
ENCODING 65
SWIDTH 670 0
DWIDTH 41 0
BBX 39 45 1 0
BITMAP
0000FE0000
0001FF0000
0001FF0000
0001FF0000
0003FF8000
0003FF8000
0003EFC000
0007EFC000
0007EFC000
0007C7E000
000FC7E000
000FC7E000
000F83F000
001F83F000
001F83F000
003F01F800
003F01F800
003F01F800
007E00FC00
007E00FC00
007C00FC00
00FC007E00
00FC007E00
00F8007E00
01F8003F00
01F8003F00
01F0003F00
03FFFFFF80
03FFFFFF80
03FFFFFFC0
07FFFFFFC0
07FFFFFFC0
0FE0000FE0
0FC00007E0
0FC00007E0
1F800007F0
1F800003F0
1F800003F0
3F000003F8
3F000001F8
3F000001F8
7E000001FC
7E000000FC
7E000000FC
FC000000FE
ENDCHAR
STARTCHAR 0042
ENCODING 66
SWIDTH 670 0
DWIDTH 41 0
BBX 33 45 5 0
BITMAP
FFFFFE0000
FFFFFF8000
FFFFFFE000
FFFFFFF000
FFFFFFF800
FC0007FC00
FC0001FC00
FC0000FE00
FC00007E00
FC00007E00
FC00007E00
FC00007E00
FC00007E00
FC00007E00
FC00007E00
FC00007C00
FC0000FC00
FC0001F800
FC0007F000
FFFFFFE000
FFFFFFC000
FFFFFFE000
FFFFFFF000
FFFFFFFC00
FC0003FE00
FC0000FE00
FC00003F00
FC00003F00
FC00001F80
FC00001F80
FC00001F80
FC00001F80
FC00001F80
FC00001F80
FC00001F80
FC00001F80
FC00003F00
FC00003F00
FC00007F00
FC0001FE00
FFFFFFFC00
FFFFFFF800
FFFFFFF000
FFFFFFE000
FFFFFF0000
ENDCHAR
STARTCHAR 0043
ENCODING 67
SWIDTH 720 0
DWIDTH 44 0
BBX 38 47 3 -1
BITMAP
0001FF8000
000FFFF800
003FFFFC00
007FFFFF00
01FFFFFF80
03FF00FFC0
07F8003FE0
07F0000FE0
0FE00007F0
1FC00003F0
1F800003F0
3F000001F8
3F000001F8
3E000001F8
7E000000F8
7E00000000
7C00000000
7C00000000
FC00000000
FC00000000
FC00000000
FC00000000
FC00000000
FC00000000
FC00000000
FC00000000
FC00000000
FC00000000
FC00000000
FC000000FC
7C000000FC
7E000000FC
7E000000FC
7F000000FC
3F000001F8
3F800001F8
1F800003F8
1FC00003F0
0FE00007F0
0FF0000FE0
07FC003FE0
03FF00FFC0
01FFFFFF80
00FFFFFF00
003FFFFC00
000FFFF000
0001FF8000
ENDCHAR
STARTCHAR 0044
ENCODING 68
SWIDTH 720 0
DWIDTH 44 0
BBX 36 45 5 0
BITMAP
FFFFFC0000
FFFFFF8000
FFFFFFE000
FFFFFFF000
FFFFFFFC00
FC000FFE00
FC0001FE00
FC00007F00
FC00003F80
FC00001F80
FC00001FC0
FC00000FC0
FC00000FC0
FC000007E0
FC000007E0
FC000007E0
FC000003E0
FC000003E0
FC000003F0
FC000003F0
FC000003F0
FC000003F0
FC000003F0
FC000003F0
FC000003F0
FC000003F0
FC000003F0
FC000003E0
FC000003E0
FC000007E0
FC000007E0
FC000007E0
FC00000FC0
FC00000FC0
FC00001FC0
FC00001F80
FC00003F80
FC00007F00
FC0001FE00
FC0007FC00
FFFFFFFC00
FFFFFFF000
FFFFFFE000
FFFFFF8000
FFFFFC0000
ENDCHAR
STARTCHAR 0045
ENCODING 69
SWIDTH 670 0
DWIDTH 41 0
BBX 31 45 6 0
BITMAP
FFFFFFFC
FFFFFFFC
FFFFFFFC
FFFFFFFC
FFFFFFFC
F8000000
F8000000
F8000000
F8000000
F8000000
F8000000
F8000000
F8000000
F8000000
F8000000
F8000000
F8000000
F8000000
F8000000
FFFFFFF8
FFFFFFF8
FFFFFFF8
FFFFFFF8
FFFFFFF8
F8000000
F8000000
F8000000
F8000000
F8000000
F8000000
F8000000
F8000000
F8000000
F8000000
F8000000
F8000000
F8000000
F8000000
F8000000
F8000000
FFFFFFFE
FFFFFFFE
FFFFFFFE
FFFFFFFE
FFFFFFFE
ENDCHAR
STARTCHAR 0046
ENCODING 70
SWIDTH 605 0
DWIDTH 37 0
BBX 29 45 6 0
BITMAP
FFFFFFF8
FFFFFFF8
FFFFFFF8
FFFFFFF8
FFFFFFF8
F8000000
F8000000
F8000000
F8000000
F8000000
F8000000
F8000000
F8000000
F8000000
F8000000
F8000000
F8000000
F8000000
F8000000
FFFFFFC0
FFFFFFC0
FFFFFFC0
FFFFFFC0
FFFFFFC0
F8000000
F8000000
F8000000
F8000000
F8000000
F8000000
F8000000
F8000000
F8000000
F8000000
F8000000
F8000000
F8000000
F8000000
F8000000
F8000000
F8000000
F8000000
F8000000
F8000000
F8000000
ENDCHAR
STARTCHAR 0047
ENCODING 71
SWIDTH 785 0
DWIDTH 48 0
BBX 40 47 3 -1
BITMAP
0000FFC000
0007FFFC00
003FFFFF00
007FFFFF80
00FFFFFFE0
03FF807FF0
03FC000FF0
07F00003F8
0FE00001FC
1FC00000FC
1F800000FE
3F8000007E
3F0000007E
7E0000003F
7E00000000
7E00000000
7C00000000
FC00000000
FC00000000
FC00000000
FC00000000
F800000000
F80003FFFF
F80003FFFF
F80003FFFF
F80003FFFF
FC0003FFFF
FC0000001F
FC0000001F
FC0000001F
FC0000001F
7E0000001F
7E0000001F
7F0000003F
3F0000003F
3F8000007F
1F8000007F
1FC00000FF
0FE00001FF
07F80003FF
07FC000FFF
03FF807FCF
01FFFFFF8F
007FFFFE0F
003FFFFC0F
000FFFF007
0001FF8000
ENDCHAR
STARTCHAR 0048
ENCODING 72
SWIDTH 720 0
DWIDTH 44 0
BBX 34 45 5 0
BITMAP
FC000007C0
FC000007C0
FC000007C0
FC000007C0
FC000007C0
FC000007C0
FC000007C0
FC000007C0
FC000007C0
FC000007C0
FC000007C0
FC000007C0
FC000007C0
FC000007C0
FC000007C0
FC000007C0
FC000007C0
FC000007C0
FC000007C0
FFFFFFFFC0
FFFFFFFFC0
FFFFFFFFC0
FFFFFFFFC0
FFFFFFFFC0
FC000007C0
FC000007C0
FC000007C0
FC000007C0
FC000007C0
FC000007C0
FC000007C0
FC000007C0
FC000007C0
FC000007C0
FC000007C0
FC000007C0
FC000007C0
FC000007C0
FC000007C0
FC000007C0
FC000007C0
FC000007C0
FC000007C0
FC000007C0
FC000007C0
ENDCHAR
STARTCHAR 0049
ENCODING 73
SWIDTH 278 0
DWIDTH 17 0
BBX 6 45 6 0
BITMAP
FC
FC
FC
FC
FC
FC
FC
FC
FC
FC
FC
FC
FC
FC
FC
FC
FC
FC
FC
FC
FC
FC
FC
FC
FC
FC
FC
FC
FC
FC
FC
FC
FC
FC
FC
FC
FC
FC
FC
FC
FC
FC
FC
FC
FC
ENDCHAR
STARTCHAR 004A
ENCODING 74
SWIDTH 507 0
DWIDTH 31 0
BBX 25 46 1 -1
BITMAP
00001F80
00001F80
00001F80
00001F80
00001F80
00001F80
00001F80
00001F80
00001F80
00001F80
00001F80
00001F80
00001F80
00001F80
00001F80
00001F80
00001F80
00001F80
00001F80
00001F80
00001F80
00001F80
00001F80
00001F80
00001F80
00001F80
00001F80
00001F80
00001F80
00001F80
FC001F80
FC001F80
FC001F80
FC001F80
FC001F80
FC001F80
FC001F80
FE001F80
7E003F00
7F007F00
3F80FE00
3FFFFE00
1FFFFC00
0FFFF800
03FFE000
00FF0000
ENDCHAR
STARTCHAR 004B
ENCODING 75
SWIDTH 670 0
DWIDTH 41 0
BBX 35 45 5 0
BITMAP
FC00001FE0
FC00003FC0
FC00007F80
FC0000FF00
FC0001FE00
FC0003FC00
FC0007F800
FC000FF000
FC001FE000
FC003FC000
FC007F8000
FC00FF0000
FC00FE0000
FC01FC0000
FC03F80000
FC07F00000
FC0FE00000
FC1FC00000
FC3F800000
FC7FC00000
FCFFC00000
FDFFE00000
FFF7F00000
FFE3F00000
FFC1F80000
FF81FC0000
FF00FC0000
FE007E0000
FC007F0000
FC003F8000
FC001F8000
FC001FC000
FC000FE000
FC0007E000
FC0007F000
FC0003F800
FC0001F800
FC0001FC00
FC0000FE00
FC00007E00
FC00007F00
FC00003F80
FC00001F80
FC00001FC0
FC00000FE0
ENDCHAR
STARTCHAR 004C
ENCODING 76
SWIDTH 556 0
DWIDTH 34 0
BBX 28 45 5 0
BITMAP
FC000000
FC000000
FC000000
FC000000
FC000000
FC000000
FC000000
FC000000
FC000000
FC000000
FC000000
FC000000
FC000000
FC000000
FC000000
FC000000
FC000000
FC000000
FC000000
FC000000
FC000000
FC000000
FC000000
FC000000
FC000000
FC000000
FC000000
FC000000
FC000000
FC000000
FC000000
FC000000
FC000000
FC000000
FC000000
FC000000
FC000000
FC000000
FC000000
FC000000
FFFFFFF0
FFFFFFF0
FFFFFFF0
FFFFFFF0
FFFFFFF0
ENDCHAR
STARTCHAR 004D
ENCODING 77
SWIDTH 834 0
DWIDTH 51 0
BBX 42 45 5 0
BITMAP
FF0000007FC0
FF0000007FC0
FF0000007FC0
FF800000FFC0
FF800000FFC0
FF800000FFC0
FFC00001FFC0
FFC00001FFC0
FFC00001FFC0
FBE00003EFC0
FBE00003EFC0
FBE00003EFC0
F9F00007CFC0
F9F00007CFC0
F9F00007CFC0
F8F8000F8FC0
F8F8000F8FC0
F8F8000F8FC0
F87C001F0FC0
F87C001F0FC0
F87C001F0FC0
F83E001E0FC0
F83E003E0FC0
F83E003E0FC0
F81F003C0FC0
F81F007C0FC0
F81F007C0FC0
F80F80780FC0
F80F80F80FC0
F80F80F80FC0
F807C0F00FC0
F807C1F00FC0
F807C1F00FC0
F803E1E00FC0
F803E3E00FC0
F803E3E00FC0
F801F3C00FC0
F801F7C00FC0
F801F7C00FC0
F800FF800FC0
F800FF800FC0
F800FF800FC0
F8007F000FC0
F8007F000FC0
F8007F000FC0
ENDCHAR
STARTCHAR 004E
ENCODING 78
SWIDTH 720 0
DWIDTH 44 0
BBX 34 45 5 0
BITMAP
FC000007C0
FE000007C0
FE000007C0
FF000007C0
FF800007C0
FF800007C0
FFC00007C0
FFE00007C0
FFE00007C0
FBF00007C0
FBF00007C0
F9F80007C0
F8FC0007C0
F8FC0007C0
F87E0007C0
F87F0007C0
F83F0007C0
F81F8007C0
F81FC007C0
F80FC007C0
F807E007C0
F807E007C0
F803F007C0
F803F807C0
F801F807C0
F800FC07C0
F800FE07C0
F8007E07C0
F8003F07C0
F8003F07C0
F8001F87C0
F8000FC7C0
F8000FC7C0
F80007E7C0
F80007F7C0
F80003F7C0
F80001FFC0
F80001FFC0
F80000FFC0
F800007FC0
F800007FC0
F800003FC0
F800003FC0
F800001FC0
F800000FC0
ENDCHAR
STARTCHAR 004F
ENCODING 79
SWIDTH 785 0
DWIDTH 48 0
BBX 43 47 2 -1
BITMAP
00007FE00000
0003FFFC0000
001FFFFF0000
003FFFFFC000
00FFFFFFE000
01FFC03FF800
03FE0007F800
07F80003FC00
07F00000FE00
0FE000007F00
1FC000003F00
1F8000003F80
3F8000001F80
3F0000000FC0
3F0000000FC0
7E0000000FC0
7E00000007E0
7E00000007E0
7C00000007E0
7C00000007E0
7C00000007E0
FC00000003E0
FC00000003E0
FC00000003E0
FC00000003E0
FC00000003E0
FC00000003E0
7C00000007E0
7E00000007E0
7E00000007E0
7E00000007E0
7E0000000FC0
3F0000000FC0
3F0000000FC0
3F8000001F80
1F8000003F80
1FC000003F00
0FE000007F00
07F00000FE00
07F80003FC00
03FE0007F800
01FFC03FF800
00FFFFFFE000
003FFFFFC000
001FFFFF0000
0007FFFC0000
00007FE00000
ENDCHAR
STARTCHAR 0050
ENCODING 80
SWIDTH 670 0
DWIDTH 41 0
BBX 32 45 6 0
BITMAP
FFFFFE00
FFFFFF80
FFFFFFE0
FFFFFFF0
FFFFFFF8
F8000FFC
F80001FC
F80000FE
F800007E
F800007E
F800007F
F800003F
F800003F
F800003F
F800003F
F800007F
F800007E
F800007E
F80000FE
F80001FC
F80007FC
FFFFFFF8
FFFFFFF0
FFFFFFE0
FFFFFF80
FFFFFE00
F8000000
F8000000
F8000000
F8000000
F8000000
F8000000
F8000000
F8000000
F8000000
F8000000
F8000000
F8000000
F8000000
F8000000
F8000000
F8000000
F8000000
F8000000
F8000000
ENDCHAR
STARTCHAR 0051
ENCODING 81
SWIDTH 785 0
DWIDTH 48 0
BBX 43 49 2 -3
BITMAP
00007FE00000
0003FFFC0000
001FFFFF0000
003FFFFFC000
00FFFFFFE000
01FFC03FF800
03FE0007F800
07F80003FC00
07F00000FE00
0FE000007F00
1FC000003F00
1F8000003F80
3F8000001F80
3F0000000FC0
3F0000000FC0
7E0000000FC0
7E00000007E0
7E00000007E0
7C00000007E0
7C00000007E0
FC00000003E0
FC00000003E0
FC00000003E0
FC00000003E0
FC00000003E0
FC00000003E0
FC00000003E0
7C00000007E0
7E00000007E0
7E00000007E0
7E00000007E0
7E0000000FC0
3F0000000FC0
3F0000100FC0
3F8000381F80
1F80007C3F80
1FC0007F3F00
0FE0003FFF00
07F0001FFE00
07F8000FFC00
03FE0007F800
01FFC03FFC00
00FFFFFFFE00
003FFFFFFF00
001FFFFF3F80
0007FFFC1FE0
00007FE007C0
000000000380
000000000100
ENDCHAR
STARTCHAR 0052
ENCODING 82
SWIDTH 720 0
DWIDTH 44 0
BBX 35 45 6 0
BITMAP
FFFFFF8000
FFFFFFF000
FFFFFFFC00
FFFFFFFE00
FFFFFFFF00
F80001FF00
F800007F80
F800003F80
F800001F80
F800001FC0
F800000FC0
F800000FC0
F800000FC0
F800000FC0
F800000FC0
F800000F80
F800001F80
F800001F80
F800003F00
F800007F00
F80001FE00
FFFFFFFC00
FFFFFFF000
FFFFFFE000
FFFFFFF800
FFFFFFFE00
F80001FE00
F800007F00
F800003F00
F800001F00
F800001F80
F800001F80
F800001F80
F800001F80
F800001F80
F800001F80
F800001F80
F800001F80
F800001F80
F800001F80
F800001F80
F800000FC0
F800000FC0
F800000FE0
F800000FE0
ENDCHAR
STARTCHAR 0053
ENCODING 83
SWIDTH 670 0
DWIDTH 41 0
BBX 35 47 3 -1
BITMAP
000FFC0000
007FFFC000
01FFFFF000
03FFFFF800
07FFFFFC00
0FF003FE00
1FC000FF00
3F80003F00
3F00003F80
3F00001F80
3E00001F80
7E00000F80
7E00000F80
7E00000F80
7E00000000
7F00000000
3F80000000
3FC0000000
3FF8000000
1FFF000000
0FFFF00000
07FFFF0000
01FFFFE000
003FFFF800
0007FFFE00
00007FFF00
000007FF80
000000FF80
0000003FC0
0000001FC0
0000000FE0
F8000007E0
F8000007E0
F8000007E0
FC000007E0
FC000007E0
7C000007E0
7E00000FC0
7F00000FC0
3F80001F80
3FE0007F80
1FF801FF00
0FFFFFFE00
07FFFFFC00
01FFFFF800
007FFFE000
000FFE0000
ENDCHAR
STARTCHAR 0054
ENCODING 84
SWIDTH 605 0
DWIDTH 37 0
BBX 35 45 1 0
BITMAP
FFFFFFFFE0
FFFFFFFFE0
FFFFFFFFE0
FFFFFFFFE0
FFFFFFFFE0
0001F80000
0001F80000
0001F80000
0001F80000
0001F80000
0001F80000
0001F80000
0001F80000
0001F80000
0001F80000
0001F80000
0001F80000
0001F80000
0001F80000
0001F80000
0001F80000
0001F80000
0001F80000
0001F80000
0001F80000
0001F80000
0001F80000
0001F80000
0001F80000
0001F80000
0001F80000
0001F80000
0001F80000
0001F80000
0001F80000
0001F80000
0001F80000
0001F80000
0001F80000
0001F80000
0001F80000
0001F80000
0001F80000
0001F80000
0001F80000
ENDCHAR
STARTCHAR 0055
ENCODING 85
SWIDTH 720 0
DWIDTH 44 0
BBX 34 46 5 -1
BITMAP
FC000007C0
FC000007C0
FC000007C0
FC000007C0
FC000007C0
FC000007C0
FC000007C0
FC000007C0
FC000007C0
FC000007C0
FC000007C0
FC000007C0
FC000007C0
FC000007C0
FC000007C0
FC000007C0
FC000007C0
FC000007C0
FC000007C0
FC000007C0
FC000007C0
FC000007C0
FC000007C0
FC000007C0
FC000007C0
FC000007C0
FC000007C0
FC000007C0
FC000007C0
FC000007C0
FC000007C0
FC000007C0
FC000007C0
FC000007C0
FC00000FC0
7E00000FC0
7E00001FC0
7F00001F80
3F80003F80
3FE000FF00
1FF803FE00
0FFFFFFC00
07FFFFF800
01FFFFF000
007FFFC000
000FFC0000
ENDCHAR
STARTCHAR 0056
ENCODING 86
SWIDTH 670 0
DWIDTH 41 0
BBX 37 45 2 0
BITMAP
FC000001F8
FC000001F8
7E000001F8
7E000003F0
7F000003F0
3F000003F0
3F000007E0
3F800007E0
1F800007C0
1F80000FC0
0FC0000FC0
0FC0000F80
0FC0001F80
07E0001F80
07E0001F00
07E0003F00
03F0003F00
03F0003E00
03F0007E00
01F8007E00
01F8007C00
01F800FC00
00FC00FC00
00FC00F800
007C01F800
007E01F800
007E01F000
003E03F000
003F03F000
003F03E000
001F07E000
001F87E000
001F87C000
000F87C000
000FCFC000
000FCF8000
0007CF8000
0007FF8000
0003FF0000
0003FF0000
0003FE0000
0001FE0000
0001FE0000
0001FC0000
0000FC0000
ENDCHAR
STARTCHAR 0057
ENCODING 87
SWIDTH 949 0
DWIDTH 58 0
BBX 56 45 1 0
BITMAP
FE00007E00007F
7E00007F00007E
7E0000FF00007E
7F0000FF00007E
7F0000FF0000FE
3F0001FF8000FC
3F0001FF8000FC
3F0001FF8000FC
3F8001FF8000FC
1F8003FFC001F8
1F8003E7C001F8
1F8003E7C001F8
1FC003E7E001F8
0FC007C7E003F0
0FC007C3E003F0
0FC007C3E003F0
07C00FC3F003F0
07E00F81F007E0
07E00F81F007E0
07E00F81F807E0
03E01F81F807E0
03F01F00F807C0
03F01F00F80FC0
03F01F00FC0FC0
01F03F007C0FC0
01F83E007C0F80
01F83E007C1F80
01F83E007E1F80
00F87C003E1F80
00F87C003E1F00
00FC7C003F1F00
00FCFC003F3F00
007CF8001F3F00
007CF8001F3E00
007EF8001FBE00
007FF8000FFE00
003FF0000FFE00
003FF0000FFC00
003FF0000FFC00
003FE00007FC00
001FE00007FC00
001FE00007F800
001FE00003F800
001FC00003F800
000FC00003F800
ENDCHAR
STARTCHAR 0058
ENCODING 88
SWIDTH 670 0
DWIDTH 41 0
BBX 37 45 2 0
BITMAP
7F000003F8
7F000007F0
3F800007E0
1FC0000FE0
1FC0001FC0
0FE0001F80
07E0003F00
07F0007F00
03F8007E00
01F800FC00
01FC01FC00
00FE01F800
007E03F000
007F07F000
003F87E000
001F8FC000
001FDFC000
000FFF8000
0007FF0000
0007FF0000
0003FE0000
0001FC0000
0001FC0000
0003FE0000
0007FF0000
0007FF0000
000FDF8000
001FDFC000
001F8FC000
003F07E000
007F07F000
007E03F000
00FC03F800
01FC01FC00
01F800FC00
03F000FE00
07F0007F00
0FE0003F80
0FC0003F80
1FC0001FC0
3F80000FE0
3F80000FE0
7F000007F0
FE000003F8
FE000003F8
ENDCHAR
STARTCHAR 0059
ENCODING 89
SWIDTH 670 0
DWIDTH 41 0
BBX 39 45 1 0
BITMAP
FE000000FE
7F000000FC
7F000001FC
3F800001F8
1FC00003F8
1FC00007F0
0FE00007E0
0FE0000FE0
07F0000FC0
03F0001FC0
03F8001F80
01FC003F00
00FC007F00
00FE007E00
007E00FE00
007F00FC00
003F81F800
001F83F800
001FC3F000
000FC7E000
0007E7E000
0007FFC000
0003FFC000
0001FF8000
0001FF0000
0000FF0000
0000FE0000
00007E0000
00007E0000
00007E0000
00007E0000
00007E0000
00007E0000
00007E0000
00007E0000
00007E0000
00007E0000
00007E0000
00007E0000
00007E0000
00007E0000
00007E0000
00007E0000
00007E0000
00007E0000
ENDCHAR
STARTCHAR 005A
ENCODING 90
SWIDTH 605 0
DWIDTH 37 0
BBX 34 45 2 0
BITMAP
7FFFFFFFC0
7FFFFFFFC0
7FFFFFFFC0
7FFFFFFFC0
7FFFFFFFC0
0000003F80
0000007F00
0000007F00
000000FE00
000001FC00
000003F800
000003F800
000007F000
00000FE000
00001FC000
00003FC000
00003F8000
00007F0000
0000FE0000
0001FE0000
0001FC0000
0003F80000
0007F00000
000FE00000
000FE00000
001FC00000
003F800000
007F000000
00FF000000
00FE000000
01FC000000
03F8000000
07F8000000
07F0000000
0FE0000000
1FC0000000
3FC0000000
3F80000000
7F00000000
FE00000000
FFFFFFFFC0
FFFFFFFFC0
FFFFFFFFC0
FFFFFFFFC0
FFFFFFFFC0
ENDCHAR
STARTCHAR 005B
ENCODING 91
SWIDTH 278 0
DWIDTH 17 0
BBX 11 58 4 -13
BITMAP
FFE0
FFE0
FFE0
FFE0
F800
F800
F800
F800
F800
F800
F800
F800
F800
F800
F800
F800
F800
F800
F800
F800
F800
F800
F800
F800
F800
F800
F800
F800
F800
F800
F800
F800
F800
F800
F800
F800
F800
F800
F800
F800
F800
F800
F800
F800
F800
F800
F800
F800
F800
F800
F800
F800
F800
F800
FFE0
FFE0
FFE0
FFE0
ENDCHAR
STARTCHAR 005C
ENCODING 92
SWIDTH 278 0
DWIDTH 17 0
BBX 17 46 0 -1
BITMAP
E00000
E00000
F00000
700000
700000
780000
380000
380000
3C0000
3C0000
1C0000
1C0000
1E0000
0E0000
0E0000
0F0000
070000
070000
078000
038000
038000
03C000
01C000
01C000
01E000
00E000
00E000
00F000
00F000
007000
007000
007800
003800
003800
003C00
001C00
001C00
001E00
000E00
000E00
000F00
000700
000700
000780
000780
000380
ENDCHAR
STARTCHAR 005D
ENCODING 93
SWIDTH 278 0
DWIDTH 17 0
BBX 12 58 1 -13
BITMAP
FFF0
FFF0
FFF0
FFF0
01F0
01F0
01F0
01F0
01F0
01F0
01F0
01F0
01F0
01F0
01F0
01F0
01F0
01F0
01F0
01F0
01F0
01F0
01F0
01F0
01F0
01F0
01F0
01F0
01F0
01F0
01F0
01F0
01F0
01F0
01F0
01F0
01F0
01F0
01F0
01F0
01F0
01F0
01F0
01F0
01F0
01F0
01F0
01F0
01F0
01F0
01F0
01F0
01F0
01F0
FFF0
FFF0
FFF0
FFF0
ENDCHAR
STARTCHAR 005E
ENCODING 94
SWIDTH 474 0
DWIDTH 29 0
BBX 23 23 3 20
BITMAP
007C00
00FC00
00FE00
01FE00
01FE00
01EF00
03EF00
03CF80
07C780
0787C0
0783C0
0F03C0
0F01E0
1F01E0
1E01F0
1E00F0
3C00F0
3C0078
7C0078
78007C
78003C
F0003C
F0001E
ENDCHAR
STARTCHAR 005F
ENCODING 95
SWIDTH 556 0
DWIDTH 34 0
BBX 36 3 -1 -11
BITMAP
FFFFFFFFF0
FFFFFFFFF0
FFFFFFFFF0
ENDCHAR
STARTCHAR 0060
ENCODING 96
SWIDTH 327 0
DWIDTH 20 0
BBX 12 9 2 37
BITMAP
FE00
7E00
3F00
1F80
0F80
07C0
03C0
01E0
00F0
ENDCHAR
STARTCHAR 0061
ENCODING 97
SWIDTH 556 0
DWIDTH 34 0
BBX 30 34 3 -1
BITMAP
007FE000
03FFFC00
07FFFE00
1FFFFF00
1FFFFF80
3F803F80
3F000FC0
7E000FC0
7E0007C0
7C0007C0
000007C0
000007C0
00000FC0
00001FC0
0003FFC0
01FFFFC0
07FFFFC0
1FFFE7C0
3FFC07C0
7F8007C0
FE0007C0
FC0007C0
F80007C0
F80007C0
F8000FC0
F8000FC0
F8001FC0
FC003FC0
FE00FFC0
7FEFFFE0
7FFFF7FC
3FFFC7FC
0FFF03FC
03FC01F8
ENDCHAR
STARTCHAR 0062
ENCODING 98
SWIDTH 556 0
DWIDTH 34 0
BBX 29 46 3 -1
BITMAP
F8000000
F8000000
F8000000
F8000000
F8000000
F8000000
F8000000
F8000000
F8000000
F8000000
F8000000
F8000000
F80FE000
F87FFC00
F8FFFE00
F9FFFF00
FBFFFF80
FFE03FC0
FF801FE0
FF0007E0
FF0007F0
FE0003F0
FE0003F0
FC0001F8
FC0001F8
FC0001F8
FC0001F8
F80000F8
F80000F8
F80000F8
F80000F8
FC0000F8
FC0001F8
FC0001F8
FC0001F0
FE0001F0
FE0003F0
FF0007E0
FF0007E0
FF800FC0
FFE03FC0
FFFFFF80
FBFFFF00
F9FFFE00
F87FF800
001FE000
ENDCHAR
STARTCHAR 0063
ENCODING 99
SWIDTH 507 0
DWIDTH 31 0
BBX 27 34 2 -1
BITMAP
003FC000
00FFF800
03FFFC00
07FFFF00
0FFFFF00
1FE03F80
1F801FC0
3F000FC0
3E0007C0
7E0007E0
7C0007E0
7C0003E0
FC000000
FC000000
F8000000
F8000000
F8000000
F8000000
F8000000
F8000000
F8000000
FC000000
FC0003E0
7C0003E0
7E0007E0
7E0007C0
3F000FC0
3F801FC0
1FE03F80
0FFFFF00
07FFFE00
03FFFC00
01FFF800
003FC000
ENDCHAR
STARTCHAR 0064
ENCODING 100
SWIDTH 556 0
DWIDTH 34 0
BBX 28 46 2 -1
BITMAP
000001F0
000001F0
000001F0
000001F0
000001F0
000001F0
000001F0
000001F0
000001F0
000001F0
000001F0
000001F0
003F81F0
01FFF1F0
03FFF9F0
0FFFFDF0
1FFFFFF0
1FE03FF0
3F801FF0
3F000FF0
7E0007F0
7E0003F0
FC0003F0
FC0003F0
F80001F0
F80001F0
F80001F0
F80001F0
F80001F0
F80001F0
F80001F0
F80001F0
F80001F0
F80001F0
FC0003F0
FC0003F0
7E0003F0
7E0007F0
3F000FF0
3F801FF0
1FE03FF0
1FFFFEF0
0FFFFCF0
07FFF8F0
01FFF0F0
003F8000
ENDCHAR
STARTCHAR 0065
ENCODING 101
SWIDTH 556 0
DWIDTH 34 0
BBX 29 34 2 -1
BITMAP
001FE000
007FFC00
01FFFF00
03FFFF80
07FFFFC0
0FE01FE0
1FC00FE0
1F0003F0
3F0003F0
3E0001F8
7E0001F8
7C0000F8
7C0000F8
7C0000F8
7FFFFFF8
7FFFFFF8
FFFFFFF8
FFFFFFF8
7C000000
7C000000
7C000000
7C000000
7C000000
7E0001F8
3E0001F0
3F0003F0
3F8003F0
1FC007E0
0FE01FC0
0FFFFFC0
07FFFF80
01FFFE00
00FFFC00
001FE000
ENDCHAR
STARTCHAR 0066
ENCODING 102
SWIDTH 278 0
DWIDTH 17 0
BBX 15 45 1 0
BITMAP
007E
01FE
03FE
07FE
07FA
07C0
0FC0
0F80
0F80
0F80
0F80
0F80
0F80
FFFE
FFFE
FFFE
FFFE
0F80
0F80
0F80
0F80
0F80
0F80
0F80
0F80
0F80
0F80
0F80
0F80
0F80
0F80
0F80
0F80
0F80
0F80
0F80
0F80
0F80
0F80
0F80
0F80
0F80
0F80
0F80
0F80
ENDCHAR
STARTCHAR 0067
ENCODING 103
SWIDTH 556 0
DWIDTH 34 0
BBX 27 46 2 -13
BITMAP
003F8000
00FFE1E0
03FFF1E0
07FFF9E0
0FFFFDE0
1FC07FE0
1F801FE0
3F000FE0
3E000FE0
7E0007E0
7C0007E0
7C0003E0
7C0003E0
FC0003E0
FC0003E0
FC0003E0
F80003E0
F80003E0
FC0003E0
FC0003E0
FC0003E0
FC0003E0
7C0003E0
7C0007E0
7E0007E0
3E000FE0
3F000FE0
1F801FE0
1FC07FE0
0FFFFBE0
07FFF3E0
03FFE3E0
01FFC3E0
003F03E0
000003E0
000003E0
7C0007E0
7E0007C0
3E0007C0
3F000FC0
3F801F80
1FF0FF00
0FFFFE00
07FFFC00
03FFF800
007FC000
ENDCHAR
STARTCHAR 0068
ENCODING 104
SWIDTH 556 0
DWIDTH 34 0
BBX 26 45 4 0
BITMAP
F8000000
F8000000
F8000000
F8000000
F8000000
F8000000
F8000000
F8000000
F8000000
F8000000
F8000000
F8000000
F80FE000
F87FFC00
F8FFFE00
F9FFFF00
FBFFFF80
FFC03F80
FF801F80
FF000FC0
FE000FC0
FC0007C0
FC0007C0
FC0007C0
FC0007C0
F80007C0
F80007C0
F80007C0
F80007C0
F80007C0
F80007C0
F80007C0
F80007C0
F80007C0
F80007C0
F80007C0
F80007C0
F80007C0
F80007C0
F80007C0
F80007C0
F80007C0
F80007C0
F80007C0
F80007C0
ENDCHAR
STARTCHAR 0069
ENCODING 105
SWIDTH 229 0
DWIDTH 14 0
BBX 5 45 4 0
BITMAP
F8
F8
F8
F8
F8
F8
00
00
00
00
00
00
00
F8
F8
F8
F8
F8
F8
F8
F8
F8
F8
F8
F8
F8
F8
F8
F8
F8
F8
F8
F8
F8
F8
F8
F8
F8
F8
F8
F8
F8
F8
F8
F8
ENDCHAR
STARTCHAR 006A
ENCODING 106
SWIDTH 229 0
DWIDTH 14 0
BBX 10 58 -1 -13
BITMAP
07C0
07C0
07C0
07C0
07C0
07C0
0000
0000
0000
0000
0000
0000
0000
07C0
07C0
07C0
07C0
07C0
07C0
07C0
07C0
07C0
07C0
07C0
07C0
07C0
07C0
07C0
07C0
07C0
07C0
07C0
07C0
07C0
07C0
07C0
07C0
07C0
07C0
07C0
07C0
07C0
07C0
07C0
07C0
07C0
07C0
07C0
07C0
07C0
07C0
07C0
07C0
0FC0
FFC0
FF80
FF00
FE00
ENDCHAR
STARTCHAR 006B
ENCODING 107
SWIDTH 507 0
DWIDTH 31 0
BBX 26 45 4 0
BITMAP
F8000000
F8000000
F8000000
F8000000
F8000000
F8000000
F8000000
F8000000
F8000000
F8000000
F8000000
F8000000
F8000000
F8003F00
F8007E00
F800FC00
F801F800
F803F000
F807E000
F80FC000
F81F8000
F83F0000
F87E0000
F8FC0000
F9FC0000
FBFE0000
FFFE0000
FFFF0000
FFBF0000
FF1F8000
FE1FC000
FC0FC000
F807E000
F807F000
F803F000
F803F800
F801F800
F800FC00
F800FE00
F8007E00
F8003F00
F8003F80
F8001F80
F8001FC0
F8000FC0
ENDCHAR
STARTCHAR 006C
ENCODING 108
SWIDTH 229 0
DWIDTH 14 0
BBX 5 45 4 0
BITMAP
F8
F8
F8
F8
F8
F8
F8
F8
F8
F8
F8
F8
F8
F8
F8
F8
F8
F8
F8
F8
F8
F8
F8
F8
F8
F8
F8
F8
F8
F8
F8
F8
F8
F8
F8
F8
F8
F8
F8
F8
F8
F8
F8
F8
F8
ENDCHAR
STARTCHAR 006D
ENCODING 109
SWIDTH 834 0
DWIDTH 51 0
BBX 43 33 4 0
BITMAP
001FE003F800
F87FF81FFE00
F8FFFC3FFF00
F9FFFE7FFF80
FBFFFEFEFFC0
FF807FF01FC0
FF003FE00FC0
FE003FC007E0
FE001F8007E0
FC001F8007E0
FC001F0007E0
FC001F0007E0
F8001F0007E0
F8001F0007E0
F8001F0007E0
F8001F0007E0
F8001F0007E0
F8001F0007E0
F8001F0007E0
F8001F0007E0
F8001F0007E0
F8001F0007E0
F8001F0007E0
F8001F0007E0
F8001F0007E0
F8001F0007E0
F8001F0007E0
F8001F0007E0
F8001F0007E0
F8001F0007E0
F8001F0007E0
F8001F0007E0
F8001F0007E0
ENDCHAR
STARTCHAR 006E
ENCODING 110
SWIDTH 556 0
DWIDTH 34 0
BBX 26 33 4 0
BITMAP
000FE000
F83FFC00
F8FFFE00
F9FFFF00
FBFFFF80
FBC03F80
FF801FC0
FF000FC0
FE000FC0
FE0007C0
FC0007C0
FC0007C0
FC0007C0
FC0007C0
F80007C0
F80007C0
F80007C0
F80007C0
F80007C0
F80007C0
F80007C0
F80007C0
F80007C0
F80007C0
F80007C0
F80007C0
F80007C0
F80007C0
F80007C0
F80007C0
F80007C0
F80007C0
F80007C0
ENDCHAR
STARTCHAR 006F
ENCODING 111
SWIDTH 556 0
DWIDTH 34 0
BBX 29 34 2 -1
BITMAP
001FE000
00FFFC00
03FFFE00
07FFFF00
0FFFFF80
1FE03FC0
1F800FE0
3F0007E0
3F0003F0
7E0003F0
7E0001F0
7C0001F8
7C0001F8
FC0000F8
FC0000F8
FC0000F8
FC0000F8
FC0000F8
FC0000F8
FC0000F8
FC0000F8
7C0001F8
7C0001F8
7E0001F0
7E0003F0
3F0003F0
3F0007E0
1F800FE0
1FE03FC0
0FFFFF80
07FFFF00
03FFFE00
00FFF800
001FE000
ENDCHAR
STARTCHAR 0070
ENCODING 112
SWIDTH 556 0
DWIDTH 34 0
BBX 29 46 3 -13
BITMAP
000FE000
F87FFC00
F8FFFE00
F9FFFF00
FBFFFF80
FFE03FC0
FF801FE0
FF0007E0
FF0007E0
FE0003F0
FE0003F0
FC0001F0
FC0001F8
FC0001F8
FC0001F8
F80000F8
F80000F8
F80000F8
FC0000F8
FC0000F8
FC0001F8
FC0001F8
FC0001F0
FE0001F0
FE0003F0
FF0007F0
FF0007E0
FF800FE0
FFE03FC0
FBFFFF80
F9FFFF00
F8FFFE00
F87FF800
F81FE000
F8000000
F8000000
F8000000
F8000000
F8000000
F8000000
F8000000
F8000000
F8000000
F8000000
F8000000
F8000000
ENDCHAR
STARTCHAR 0071
ENCODING 113
SWIDTH 556 0
DWIDTH 34 0
BBX 28 46 2 -13
BITMAP
003F8000
01FFF0F0
03FFF8F0
07FFFCF0
0FFFFEF0
1FE03FF0
3F801FF0
3F000FF0
7E0007F0
7E0003F0
7C0003F0
FC0003F0
F80001F0
F80001F0
F80001F0
F80001F0
F80001F0
F80001F0
F80001F0
F80001F0
F80001F0
F80001F0
FC0003F0
FC0003F0
7E0003F0
7E0007F0
7F000FF0
3F801FF0
1FE03FF0
1FFFFFF0
0FFFFDF0
07FFF9F0
01FFE1F0
007F81F0
000001F0
000001F0
000001F0
000001F0
000001F0
000001F0
000001F0
000001F0
000001F0
000001F0
000001F0
000001F0
ENDCHAR
STARTCHAR 0072
ENCODING 114
SWIDTH 327 0
DWIDTH 20 0
BBX 16 33 4 0
BITMAP
001F
F87F
F8FF
F9FF
FBFF
FBFC
FFC0
FF00
FE00
FE00
FC00
FC00
FC00
FC00
F800
F800
F800
F800
F800
F800
F800
F800
F800
F800
F800
F800
F800
F800
F800
F800
F800
F800
F800
ENDCHAR
STARTCHAR 0073
ENCODING 115
SWIDTH 507 0
DWIDTH 31 0
BBX 26 34 2 -1
BITMAP
007F8000
03FFF000
0FFFFC00
1FFFFE00
1FFFFE00
3F807F00
7E003F00
7E001F80
7C001F80
7C001F80
7C000000
7E000000
7F000000
3FC00000
3FFC0000
1FFFC000
07FFF800
01FFFE00
003FFF00
0003FF80
00003F80
00001FC0
00000FC0
FC0007C0
FC0007C0
FC0007C0
7C000FC0
7E001F80
7F803F80
3FFFFF00
1FFFFE00
0FFFFC00
07FFF000
00FF8000
ENDCHAR
STARTCHAR 0074
ENCODING 116
SWIDTH 278 0
DWIDTH 17 0
BBX 15 42 1 -1
BITMAP
0F80
0F80
0F80
0F80
0F80
0F80
0F80
0F80
0F80
FFFE
FFFE
FFFE
FFFE
0F80
0F80
0F80
0F80
0F80
0F80
0F80
0F80
0F80
0F80
0F80
0F80
0F80
0F80
0F80
0F80
0F80
0F80
0F80
0F80
0F80
0F80
0F80
0FC0
0FF6
0FFE
07FE
03FE
01FE
ENDCHAR
STARTCHAR 0075
ENCODING 117
SWIDTH 556 0
DWIDTH 34 0
BBX 25 33 4 -1
BITMAP
F8000F80
F8000F80
F8000F80
F8000F80
F8000F80
F8000F80
F8000F80
F8000F80
F8000F80
F8000F80
F8000F80
F8000F80
F8000F80
F8000F80
F8000F80
F8000F80
F8000F80
F8000F80
F8000F80
F8000F80
F8000F80
F8000F80
F8000F80
F8001F80
F8001F80
FC003F80
FE007F80
7F00FF80
7FEFF780
3FFFE780
1FFFC780
0FFF8780
03FE0000
ENDCHAR
STARTCHAR 0076
ENCODING 118
SWIDTH 507 0
DWIDTH 31 0
BBX 28 32 1 0
BITMAP
FC0001F0
FC0003F0
FC0003F0
7E0003E0
7E0007E0
3E0007E0
3F0007C0
3F000FC0
1F000F80
1F000F80
1F801F80
0F801F00
0F801F00
0FC03F00
07C03E00
07C03E00
07E07C00
03E07C00
03E07C00
03F0F800
01F0F800
01F1F000
01F9F000
00F9F000
00FBE000
007FE000
007FE000
007FC000
003FC000
003F8000
003F8000
001F8000
ENDCHAR
STARTCHAR 0077
ENCODING 119
SWIDTH 720 0
DWIDTH 44 0
BBX 43 32 0 0
BITMAP
FC003F8007E0
7C003F8007E0
7E003FC007E0
7E003FC007C0
3E003FC00FC0
3E007FC00FC0
3F007FE00F80
1F007BE00F80
1F007BE01F80
1F00FBE01F00
1F80FBF01F00
0F80F1F01F00
0F80F1F03F00
0FC1F1F03E00
07C1F0F83E00
07C1E0F83E00
07C1E0F87C00
07E3E0F87C00
03E3E07C7C00
03E3C07C7C00
03E3C07CF800
01F7C07CF800
01F7C03EF800
01F7803EF000
01F7803FF000
00FF803FF000
00FF801FE000
00FF001FE000
007F001FE000
007F001FE000
007F000FC000
007F000FC000
ENDCHAR
STARTCHAR 0078
ENCODING 120
SWIDTH 507 0
DWIDTH 31 0
BBX 28 32 1 0
BITMAP
7E0003E0
3E0007E0
3F000FC0
1F800F80
0F801F00
0FC03F00
07E03E00
03E07C00
03F0FC00
01F8F800
00F9F000
00FFF000
007FE000
003FC000
001FC000
001F8000
001FC000
003FC000
007FE000
007FF000
00FBF000
01F9F800
01F0FC00
03E0FC00
07E07E00
07C03F00
0F803F00
1F801F80
3F000FC0
3E000FC0
7E0007E0
FC0003F0
ENDCHAR
STARTCHAR 0079
ENCODING 121
SWIDTH 507 0
DWIDTH 31 0
BBX 28 45 1 -13
BITMAP
FC0001F0
7C0003F0
7C0003E0
7E0007E0
3E0007E0
3E0007C0
3F000FC0
1F000F80
1F000F80
1F801F80
0F801F00
0F801F00
0FC03F00
07C03E00
07C03E00
07E07C00
03E07C00
03E0FC00
03F0F800
01F0F800
01F1F800
01F9F000
00F9F000
00FBE000
007FE000
007FE000
007FC000
003FC000
003FC000
003F8000
001F8000
001F8000
001F0000
003F0000
003E0000
003E0000
007E0000
007C0000
00FC0000
01FC0000
3FF80000
3FF00000
3FF00000
3FC00000
1F000000
ENDCHAR
STARTCHAR 007A
ENCODING 122
SWIDTH 507 0
DWIDTH 31 0
BBX 26 32 2 0
BITMAP
7FFFFF80
7FFFFF80
7FFFFF80
7FFFFF80
00001F80
00003F00
00007E00
0000FE00
0000FC00
0001F800
0003F000
0007E000
000FC000
001FC000
001F8000
003F0000
007E0000
00FC0000
01FC0000
03F80000
03F00000
07E00000
0FC00000
1F800000
3F800000
7F000000
7E000000
FC000000
FFFFFFC0
FFFFFFC0
FFFFFFC0
FFFFFFC0
ENDCHAR
STARTCHAR 007B
ENCODING 123
SWIDTH 327 0
DWIDTH 20 0
BBX 14 58 3 -13
BITMAP
007C
01FC
03FC
07FC
07C0
0780
0F80
0F80
0F80
0F80
0F80
0F80
0F80
0F80
0F80
0F80
0F80
0F80
0F80
0F80
0F80
0F80
0F80
0F80
1F00
3F00
FE00
FC00
F800
FC00
FE00
7E00
1F00
1F00
0F80
0F80
0F80
0F80
0F80
0F80
0F80
0F80
0F80
0F80
0F80
0F80
0F80
0F80
0F80
0F80
0F80
0780
07C0
07F8
03FC
03FC
01FC
001C
ENDCHAR
STARTCHAR 007C
ENCODING 124
SWIDTH 261 0
DWIDTH 16 0
BBX 4 58 6 -13
BITMAP
F0
F0
F0
F0
F0
F0
F0
F0
F0
F0
F0
F0
F0
F0
F0
F0
F0
F0
F0
F0
F0
F0
F0
F0
F0
F0
F0
F0
F0
F0
F0
F0
F0
F0
F0
F0
F0
F0
F0
F0
F0
F0
F0
F0
F0
F0
F0
F0
F0
F0
F0
F0
F0
F0
F0
F0
F0
F0
ENDCHAR
STARTCHAR 007D
ENCODING 125
SWIDTH 327 0
DWIDTH 20 0
BBX 14 58 2 -13
BITMAP
F800
FE00
FF00
FF80
1F80
0F80
0780
0780
0780
0780
0780
0780
0780
0780
0780
0780
0780
0780
0780
0780
0780
07C0
07C0
07C0
03E0
03F0
01F8
00FC
007C
00FC
01FC
03F0
03E0
07C0
07C0
07C0
07C0
0780
0780
0780
0780
0780
0780
0780
0780
0780
0780
0780
0780
0780
0780
0F80
0F80
7F80
FF00
FE00
FC00
E000
ENDCHAR
STARTCHAR 007E
ENCODING 126
SWIDTH 589 0
DWIDTH 36 0
BBX 26 11 5 16
BITMAP
0F800000
3FC00000
7FF001C0
7FF801C0
F9FE01C0
F07F83C0
E01FC7C0
E00FFF80
E007FF80
0001FF00
00007C00
ENDCHAR
STARTCHAR 00A0
ENCODING 160
SWIDTH 278 0
DWIDTH 17 0
BBX 0 0 0 0
BITMAP
ENDCHAR
STARTCHAR 00A1
ENCODING 161
SWIDTH 327 0
DWIDTH 20 0
BBX 6 45 7 -13
BITMAP
FC
FC
FC
FC
FC
FC
00
00
00
00
30
30
30
70
78
78
78
78
78
78
78
78
78
F8
FC
FC
FC
FC
FC
FC
FC
FC
FC
FC
FC
FC
FC
FC
FC
FC
FC
FC
FC
FC
FC
ENDCHAR
STARTCHAR 00A2
ENCODING 162
SWIDTH 556 0
DWIDTH 34 0
BBX 28 45 3 -7
BITMAP
00070000
00070000
00070000
00070000
00070000
000FE000
007FFC00
01FFFE00
03FFFF80
07FFFF80
0FE71FC0
1FC70FE0
3F8707E0
3F0703E0
3E0703F0
7E0703F0
7C0701F0
7C070000
7C070000
FC070000
FC070000
FC070000
F8070000
FC070000
FC070000
FC070000
7C070000
7C0701F0
7C0701F0
7E0703F0
3E0703F0
3F0703E0
1F8707E0
1FC70FC0
0FFF3FC0
07FFFF80
03FFFF00
01FFFC00
003FF000
00070000
00070000
00070000
00070000
00070000
00070000
ENDCHAR
STARTCHAR 00A3
ENCODING 163
SWIDTH 556 0
DWIDTH 34 0
BBX 31 46 2 -1
BITMAP
000FF000
007FFE00
01FFFF00
03FFFFC0
07FFFFE0
0FF01FE0
1FC007F0
1F8003F0
3F0001F8
3F0001F8
3E0001F8
7E0000F8
7E0000F8
7E0000F8
7E000000
3E000000
3F000000
3F000000
1F800000
1F800000
0FC00000
0FE00000
FFFFF000
FFFFF000
FFFFF000
01F00000
01F80000
01F80000
00F80000
00F80000
00F80000
00F80000
01F00000
01F00000
03E00000
03C00000
07C00000
0F800000
1F1E0000
3EFFE018
7FFFFFF8
FFFFFFFC
7FFFFFFE
3E07FFFC
3000FFF0
00001FC0
ENDCHAR
STARTCHAR 00A4
ENCODING 164
SWIDTH 556 0
DWIDTH 34 0
BBX 25 25 4 8
BITMAP
10000000
38000600
7C7F0F00
FFFFDF80
7FFFFF80
3FFFFF00
1FFFFE00
1FC0FE00
3F007E00
3E003F00
3E001F00
3C001F00
7C001F00
7C001F00
3C001F00
3E001F00
3E003F00
3F007E00
1FC0FE00
1FFFFE00
3FFFFF00
7FFFFF80
7FFFDF80
3C7F0F00
18000600
ENDCHAR
STARTCHAR 00A5
ENCODING 165
SWIDTH 556 0
DWIDTH 34 0
BBX 32 44 1 0
BITMAP
F800001F
FC00003F
7C00003E
7E00007C
3E00007C
1F0000F8
1F0000F8
0F8001F0
0FC001F0
07C003E0
03E007E0
03E007C0
01F00F80
01F00F80
00F81F00
00FC1F00
007C3E00
003E3E00
003E7C00
001FF800
001FF800
000FF000
1FFFFFF8
1FFFFFF8
1FFFFFF8
0007E000
0007E000
0007E000
0007E000
0007E000
1FFFFFF8
1FFFFFF8
1FFFFFF8
0007E000
0007E000
0007E000
0007E000
0007E000
0007E000
0007E000
0007E000
0007E000
0007E000
0007E000
ENDCHAR
STARTCHAR 00A6
ENCODING 166
SWIDTH 261 0
DWIDTH 16 0
BBX 4 58 6 -13
BITMAP
F0
F0
F0
F0
F0
F0
F0
F0
F0
F0
F0
F0
F0
F0
F0
F0
F0
F0
F0
F0
F0
F0
F0
F0
F0
00
00
00
00
00
00
00
00
F0
F0
F0
F0
F0
F0
F0
F0
F0
F0
F0
F0
F0
F0
F0
F0
F0
F0
F0
F0
F0
F0
F0
F0
F0
ENDCHAR
STARTCHAR 00A7
ENCODING 167
SWIDTH 556 0
DWIDTH 34 0
BBX 28 58 3 -13
BITMAP
001FC000
007FF800
01FFFC00
03FFFE00
07FFFF00
07E07F00
0FC01F80
0FC01F80
0F800F80
1F800F80
1F800F80
1F800F80
0FC00F80
0FC00000
0FF00000
07F80000
03FE0000
07FF0000
1FFFC000
3F3FE000
7E1FF800
7C07FC00
F803FF00
F800FF80
F8007FC0
F8001FC0
F8000FE0
F80007E0
FC0003F0
FE0003F0
7F0001F0
7F8001F0
3FE001F0
1FF001F0
0FF801E0
07FE03E0
01FF07E0
00FF8FC0
003FFF80
001FFE00
0007F800
0003FC00
0001FE00
00007F00
00003F00
00003F00
3E001F00
3E001F80
3E001F80
3E001F00
3F003F00
1F803F00
1FC07E00
0FFFFE00
0FFFFC00
03FFF800
01FFE000
007F8000
ENDCHAR
STARTCHAR 00A8
ENCODING 168
SWIDTH 327 0
DWIDTH 20 0
BBX 16 6 2 38
BITMAP
FC3F
FC3F
FC3F
FC3F
FC3F
FC3F
ENDCHAR
STARTCHAR 00A9
ENCODING 169
SWIDTH 736 0
DWIDTH 45 0
BBX 47 47 -1 -1
BITMAP
00001FF00000
0001FFFF0000
0007FFFFC000
001FFFFFF000
003FC007F800
007F0001FE00
01FC00007F00
03F000001F80
03E000000FC0
07C003E007C0
0F801FF803E0
0F007FFE01F0
1F00FFFF01F0
3E01F83F00F8
3E01F00F8078
3C03E007807C
7C07C007C07C
78078003C03C
78078003C03C
78078000003E
F80F8000001E
F00F0000001E
F00F0000001E
F00F0000001E
F00F0000001E
F00F0000001E
F80F8000001E
780F8003E03E
78078003C03C
78078003C03C
7C07C007C03C
3C03E007807C
3E03F00F8078
3E01F81F00F8
1F00FFFF00F0
1F007FFE01F0
0F803FF803E0
07C00FE007C0
03E000000FC0
03F000001F80
01FC00007F00
007F0001FE00
003FC007F800
001FFFFFF000
0007FFFFC000
0001FFFF0000
00001FF00000
ENDCHAR
STARTCHAR 00AA
ENCODING 170
SWIDTH 376 0
DWIDTH 23 0
BBX 18 27 2 19
BITMAP
07F800
1FFE00
3FFF00
3E1F00
780F00
780700
780700
000700
001F00
07FF00
1FFF00
3FC700
7C0700
F00700
F00700
F00F00
F00F00
783F80
7FFFC0
3FF7C0
1FC3C0
000000
000000
000000
7FFFC0
7FFFC0
7FFFC0
ENDCHAR
STARTCHAR 00AB
ENCODING 171
SWIDTH 556 0
DWIDTH 34 0
BBX 22 20 6 6
BITMAP
000004
00800C
03801C
07803C
0F80FC
1F81FC
7F03F0
FC07E0
F807C0
F00700
E00600
F00780
FC07C0
FE07E0
3F03F8
1F81FC
0F807C
07803C
01801C
00800C
ENDCHAR
STARTCHAR 00AC
ENCODING 172
SWIDTH 589 0
DWIDTH 36 0
BBX 31 18 2 5
BITMAP
FFFFFFFE
FFFFFFFE
FFFFFFFE
FFFFFFFE
0000001E
0000001E
0000001E
0000001E
0000001E
0000001E
0000001E
0000001E
0000001E
0000001E
0000001E
0000001E
0000001E
0000001E
ENDCHAR
STARTCHAR 00AD
ENCODING 173
SWIDTH 327 0
DWIDTH 20 0
BBX 14 4 3 15
BITMAP
FFFC
FFFC
FFFC
FFFC
ENDCHAR
STARTCHAR 00AE
ENCODING 174
SWIDTH 736 0
DWIDTH 45 0
BBX 47 47 -1 -1
BITMAP
00001FF00000
0000FFFF0000
0007FFFFC000
000FFFFFF000
003FE00FF800
007F0001FC00
00FC00007F00
01F800001F80
03E000000F80
07C0000007C0
0F87FFFC03E0
0F07FFFF01F0
1F07FFFF81F0
1E07FFFFC0F8
3E07C00FC078
3C07C003C078
7C07C003E07C
7807C003E03C
7807C003E03C
7807C003C03E
F807C007C03E
F807C00FC01E
F007FFFF801E
F007FFFF001E
F007FFFF001E
F007FFFF801E
F807C00FC01E
7807C007C03E
7807C003C03C
7807C003C03C
7C07C003C03C
3C07C003C07C
3E07C003C078
3E07C003C0F8
1F07C003E0F0
1F07C003E1F0
0F87C003E3E0
07C0000007C0
03E000000FC0
03F000001F80
01FC00007F00
00FF0001FE00
003FC007F800
001FFFFFF000
0007FFFFC000
0001FFFF0000
00001FF00000
ENDCHAR
STARTCHAR 00AF
ENCODING 175
SWIDTH 327 0
DWIDTH 20 0
BBX 16 4 2 39
BITMAP
FFFF
FFFF
FFFF
FFFF
ENDCHAR
STARTCHAR 00B0
ENCODING 176
SWIDTH 392 0
DWIDTH 24 0
BBX 18 18 3 24
BITMAP
03F000
0FFC00
1FFF00
3FFF80
7C0F80
7803C0
F003C0
F001C0
E001C0
E001C0
F001C0
F001C0
7803C0
780780
3E0F80
3FFF00
1FFE00
07F800
ENDCHAR
STARTCHAR 00B1
ENCODING 177
SWIDTH 589 0
DWIDTH 36 0
BBX 30 39 3 -1
BITMAP
00078000
00078000
00078000
00078000
00078000
00078000
00078000
00078000
00078000
00078000
00078000
00078000
00078000
FFFFFFFC
FFFFFFFC
FFFFFFFC
FFFFFFFC
00078000
00078000
00078000
00078000
00078000
00078000
00078000
00078000
00078000
00078000
00078000
00078000
00078000
00000000
00000000
00000000
00000000
00000000
FFFFFFFC
FFFFFFFC
FFFFFFFC
FFFFFFFC
ENDCHAR
STARTCHAR 00B2
ENCODING 178
SWIDTH 327 0
DWIDTH 20 0
BBX 18 26 1 17
BITMAP
03F800
0FFE00
3FFF00
3F1F80
7C07C0
7803C0
7003C0
F003C0
F003C0
0003C0
0003C0
000780
001F80
007F00
01FC00
03F800
0FE000
1F8000
3E0000
7C0000
780000
F80000
FFFFC0
FFFFC0
FFFFC0
FFFFC0
ENDCHAR
STARTCHAR 00B3
ENCODING 179
SWIDTH 327 0
DWIDTH 20 0
BBX 19 27 0 16
BITMAP
03F800
0FFE00
1FFF80
3F1F80
3C07C0
7803C0
7803C0
7803C0
7803C0
0003C0
000780
00FF00
00FE00
00FF80
001FC0
0003C0
0001E0
0001E0
F001E0
F001E0
7801E0
7801E0
7C03C0
3F0FC0
1FFF80
0FFF00
03F800
ENDCHAR
STARTCHAR 00B4
ENCODING 180
SWIDTH 327 0
DWIDTH 20 0
BBX 12 9 6 37
BITMAP
07F0
07E0
0FC0
1F80
1F00
3E00
7C00
7800
F000
ENDCHAR
STARTCHAR 00B5
ENCODING 181
SWIDTH 556 0
DWIDTH 34 0
BBX 29 45 4 -13
BITMAP
F8000F80
F8000F80
F8000F80
F8000F80
F8000F80
F8000F80
F8000F80
F8000F80
F8000F80
F8000F80
F8000F80
F8000F80
F8000F80
F8000F80
F8000F80
F8000F80
F8000F80
F8000F80
F8000F80
F8000F80
F8000F80
F8000F80
F8000F80
F8001F80
F8001F80
FC003F80
FE007F80
FF00FFC0
FFEFF7E0
FFFFE7F8
FFFFC7F8
FFFF83F8
F9FC01F8
F8000000
F8000000
F8000000
F8000000
F8000000
F8000000
F8000000
F8000000
F8000000
F8000000
F8000000
F8000000
ENDCHAR
STARTCHAR 00B6
ENCODING 182
SWIDTH 540 0
DWIDTH 33 0
BBX 29 55 3 -10
BITMAP
003FFFF8
00FFFFF8
03FFFFF8
07FFFFF8
0FFF0780
1FFF0780
3FFF0780
3FFF0780
7FFF0780
7FFF0780
7FFF0780
FFFF0780
FFFF0780
FFFF0780
FFFF0780
FFFF0780
FFFF0780
FFFF0780
FFFF0780
7FFF0780
7FFF0780
7FFF0780
3FFF0780
1FFF0780
1FFF0780
0FFF0780
07FF0780
01FF0780
003F0780
00070780
00070780
00070780
00070780
00070780
00070780
00070780
00070780
00070780
00070780
00070780
00070780
00070780
00070780
00070780
00070780
00070780
00070780
00070780
00070780
00070780
00070780
00070780
00070780
00070780
00070780
ENDCHAR
STARTCHAR 00B7
ENCODING 183
SWIDTH 278 0
DWIDTH 17 0
BBX 6 6 7 14
BITMAP
FC
FC
FC
FC
FC
FC
ENDCHAR
STARTCHAR 00B8
ENCODING 184
SWIDTH 327 0
DWIDTH 20 0
BBX 15 13 3 -13
BITMAP
0180
0380
0300
07E0
07F8
07FC
003C
003E
003C
E07C
FFFC
7FF8
1FC0
ENDCHAR
STARTCHAR 00B9
ENCODING 185
SWIDTH 327 0
DWIDTH 20 0
BBX 10 26 3 17
BITMAP
01C0
01C0
03C0
03C0
3FC0
FFC0
FFC0
FFC0
03C0
03C0
03C0
03C0
03C0
03C0
03C0
03C0
03C0
03C0
03C0
03C0
03C0
03C0
03C0
03C0
03C0
03C0
ENDCHAR
STARTCHAR 00BA
ENCODING 186
SWIDTH 360 0
DWIDTH 22 0
BBX 18 27 2 19
BITMAP
03F000
0FFC00
1FFE00
3E1F00
3C0F80
780780
780380
7003C0
7003C0
F003C0
F003C0
F003C0
7003C0
7003C0
780380
780780
3C0780
3E1F00
1FFE00
0FFC00
07F800
000000
000000
000000
7FFF80
7FFF80
7FFF80
ENDCHAR
STARTCHAR 00BB
ENCODING 187
SWIDTH 556 0
DWIDTH 34 0
BBX 22 20 6 6
BITMAP
000800
C00C00
E00E00
F00F00
F80FC0
FE0FE0
3F03F0
1F81F8
0F80FC
07803C
03801C
07807C
0F80FC
1F81F8
7F07F0
FC0FC0
F80F80
F00F00
E00E00
800800
ENDCHAR
STARTCHAR 00BC
ENCODING 188
SWIDTH 834 0
DWIDTH 51 0
BBX 48 44 2 -1
BITMAP
018000001C00
038000003C00
038000007800
078000007000
1F800000F000
FF800000E000
FF800001C000
FF800003C000
038000038000
038000078000
0380000F0000
0380000E0000
0380001E0000
0380001C0000
038000380000
038000780000
038000700000
038000F00070
038001E000F0
038001C001F0
038003C003F0
0380038007F0
0380070007F0
03800F000FF0
03800E001EF0
03801E003CF0
00003C0038F0
0000380078F0
00007800F0F0
00007001E0F0
0000E001C0F0
0001E003C0F0
0001C00780F0
0003C00F00F0
0007800FFFFF
0007000FFFFF
000F000FFFFF
000E000000F0
001C000000F0
003C000000F0
0038000000F0
0078000000F0
00F0000000F0
00E000000000
ENDCHAR
STARTCHAR 00BD
ENCODING 189
SWIDTH 834 0
DWIDTH 51 0
BBX 47 45 2 -1
BITMAP
018000003800
038000007000
03800000F000
03800000E000
0F800001E000
FF800003C000
FF8000038000
FF8000078000
038000070000
0380000F0000
0380001E0000
0380001C0000
0380003C0000
038000380000
038000700000
038000F00000
038000E00000
038001E00000
038003C03FE0
03800380FFF0
03800781FFFC
03800701F07C
03800E03C03E
03801E03C01E
03801C03801E
03803C07801E
00007807801E
00007000001E
0000F000003E
0000E000007C
0001E00000F8
0003C00003F0
000380000FE0
000780003F80
000700007E00
000E0000F800
001E0001F000
001C0003E000
003C0003C000
007800078000
00700007FFFE
00F00007FFFE
00E00007FFFE
01C00007FFFE
03C000000000
ENDCHAR
STARTCHAR 00BE
ENCODING 190
SWIDTH 834 0
DWIDTH 51 0
BBX 48 44 2 -1
BITMAP
07F000000700
1FFE00000E00
3FFF00001E00
7E1F00001C00
780F80003C00
700780007800
F00780007000
F0038000F000
F0078000E000
00078001C000
001F0003C000
01FE00038000
01FE00078000
01FF000F0000
000F800E0000
0007C01E0000
0003C01C0000
0003C03800F0
E003C07800F0
F003C07001F0
F003C0F003F0
F807C1E007F0
7C0F81C00FF0
7FFF03C00EF0
3FFE07801EF0
0FF807003CF0
00000F0078F0
00000E0070F0
00001E00F0F0
00003C01E0F0
00003803C0F0
0000780380F0
0000F00780F0
0000E00F00F0
0001E00FFFFF
0001C00FFFFF
0003800FFFFF
0007800000F0
0007000000F0
000F000000F0
001E000000F0
001C000000F0
003C000000F0
003800000000
ENDCHAR
STARTCHAR 00BF
ENCODING 191
SWIDTH 605 0
DWIDTH 37 0
BBX 26 45 6 -13
BITMAP
001F0000
001F0000
001F0000
001F0000
001F0000
001F0000
00000000
00000000
00000000
00000000
00000000
00000000
001F0000
001F0000
001F0000
001F0000
001F0000
003F0000
003F0000
007E0000
00FE0000
01FC0000
03F80000
07F00000
0FE00000
1FC00000
3F800000
7F000000
7E000000
FC000000
FC000000
FC0007C0
F80007C0
F80007C0
F80007C0
FC000FC0
FC000FC0
FE000F80
7F001F80
7F807F00
3FFFFF00
1FFFFE00
0FFFFC00
03FFF000
00FF8000
ENDCHAR
STARTCHAR 00C0
ENCODING 192
SWIDTH 670 0
DWIDTH 41 0
BBX 39 58 1 0
BITMAP
001FC00000
000FC00000
0007E00000
0003F00000
0001F00000
0000F80000
00007C0000
00003C0000
00001E0000
0000000000
0000000000
0000000000
0000000000
0000FE0000
0001FF0000
0001FF0000
0001FF0000
0003FF8000
0003FF8000
0003EFC000
0007EFC000
0007EFC000
0007C7E000
000FC7E000
000FC7E000
000F83F000
001F83F000
001F83F000
003F01F800
003F01F800
003F01F800
007E00FC00
007E00FC00
007C00FC00
00FC007E00
00FC007E00
00F8007E00
01F8003F00
01F8003F00
01F0003F00
03FFFFFF80
03FFFFFF80
03FFFFFFC0
07FFFFFFC0
07FFFFFFC0
0FE0000FE0
0FC00007E0
0FC00007E0
1F800007F0
1F800003F0
1F800003F0
3F000003F8
3F000001F8
3F000001F8
7E000001FC
7E000000FC
7E000000FC
FC000000FE
ENDCHAR
STARTCHAR 00C1
ENCODING 193
SWIDTH 670 0
DWIDTH 41 0
BBX 39 58 1 0
BITMAP
000007F000
000007E000
00000FC000
00001F8000
00001F0000
00003E0000
00007C0000
0000780000
0000F00000
0000000000
0000000000
0000000000
0000000000
0000FE0000
0001FF0000
0001FF0000
0001FF0000
0003FF8000
0003FF8000
0003EFC000
0007EFC000
0007EFC000
0007C7E000
000FC7E000
000FC7E000
000F83F000
001F83F000
001F83F000
003F01F800
003F01F800
003F01F800
007E00FC00
007E00FC00
007C00FC00
00FC007E00
00FC007E00
00F8007E00
01F8003F00
01F8003F00
01F0003F00
03FFFFFF80
03FFFFFF80
03FFFFFFC0
07FFFFFFC0
07FFFFFFC0
0FE0000FE0
0FC00007E0
0FC00007E0
1F800007F0
1F800003F0
1F800003F0
3F000003F8
3F000001F8
3F000001F8
7E000001FC
7E000000FC
7E000000FC
FC000000FE
ENDCHAR
STARTCHAR 00C2
ENCODING 194
SWIDTH 670 0
DWIDTH 41 0
BBX 39 58 1 0
BITMAP
0000FE0000
0000FE0000
0001FF0000
0003EF8000
0003EF8000
0007C7C000
000783C000
000F01E000
001E00F000
0000000000
0000000000
0000000000
0000000000
0000FE0000
0001FF0000
0001FF0000
0001FF0000
0003FF8000
0003FF8000
0003EFC000
0007EFC000
0007EFC000
0007C7E000
000FC7E000
000FC7E000
000F83F000
001F83F000
001F83F000
003F01F800
003F01F800
003F01F800
007E00FC00
007E00FC00
007C00FC00
00FC007E00
00FC007E00
00F8007E00
01F8003F00
01F8003F00
01F0003F00
03FFFFFF80
03FFFFFF80
03FFFFFFC0
07FFFFFFC0
07FFFFFFC0
0FE0000FE0
0FC00007E0
0FC00007E0
1F800007F0
1F800003F0
1F800003F0
3F000003F8
3F000001F8
3F000001F8
7E000001FC
7E000000FC
7E000000FC
FC000000FE
ENDCHAR
STARTCHAR 00C3
ENCODING 195
SWIDTH 670 0
DWIDTH 41 0
BBX 39 56 1 0
BITMAP
0007C07800
000FF8F800
001FFFF000
001FFFF000
003C3FE000
003C07C000
0000000000
0000000000
0000000000
0000000000
0000000000
0000FE0000
0001FF0000
0001FF0000
0001FF0000
0003FF8000
0003FF8000
0003EFC000
0007EFC000
0007EFC000
0007C7E000
000FC7E000
000FC7E000
000F83F000
001F83F000
001F83F000
003F01F800
003F01F800
003F01F800
007E00FC00
007E00FC00
007C00FC00
00FC007E00
00FC007E00
00F8007E00
01F8003F00
01F8003F00
01F0003F00
03FFFFFF80
03FFFFFF80
03FFFFFFC0
07FFFFFFC0
07FFFFFFC0
0FE0000FE0
0FC00007E0
0FC00007E0
1F800007F0
1F800003F0
1F800003F0
3F000003F8
3F000001F8
3F000001F8
7E000001FC
7E000000FC
7E000000FC
FC000000FE
ENDCHAR
STARTCHAR 00C4
ENCODING 196
SWIDTH 670 0
DWIDTH 41 0
BBX 39 56 1 0
BITMAP
001FC7F000
001FC7F000
001FC7F000
001FC7F000
001FC7F000
001FC7F000
0000000000
0000000000
0000000000
0000000000
0000000000
0000FE0000
0001FF0000
0001FF0000
0001FF0000
0003FF8000
0003FF8000
0003EFC000
0007EFC000
0007EFC000
0007C7E000
000FC7E000
000FC7E000
000F83F000
001F83F000
001F83F000
003F01F800
003F01F800
003F01F800
007E00FC00
007E00FC00
007C00FC00
00FC007E00
00FC007E00
00F8007E00
01F8003F00
01F8003F00
01F0003F00
03FFFFFF80
03FFFFFF80
03FFFFFFC0
07FFFFFFC0
07FFFFFFC0
0FE0000FE0
0FC00007E0
0FC00007E0
1F800007F0
1F800003F0
1F800003F0
3F000003F8
3F000001F8
3F000001F8
7E000001FC
7E000000FC
7E000000FC
FC000000FE
ENDCHAR
STARTCHAR 00C5
ENCODING 197
SWIDTH 670 0
DWIDTH 41 0
BBX 39 59 1 0
BITMAP
0000100000
0000FE0000
0001FF0000
0001C70000
0003838000
0003838000
0003838000
0003C78000
0001FF0000
0000FE0000
00007C0000
0000000000
0000000000
0000000000
0000FE0000
0001FF0000
0001FF0000
0001FF0000
0003FF8000
0003FF8000
0003EFC000
0007EFC000
0007EFC000
0007C7E000
000FC7E000
000FC7E000
000F83F000
001F83F000
001F83F000
003F01F800
003F01F800
003F01F800
007E00FC00
007E00FC00
007C00FC00
00FC007E00
00FC007E00
00F8007E00
01F8003F00
01F8003F00
01F0003F00
03FFFFFF80
03FFFFFF80
03FFFFFFC0
07FFFFFFC0
07FFFFFFC0
0FE0000FE0
0FC00007E0
0FC00007E0
1F800007F0
1F800003F0
1F800003F0
3F000003F8
3F000001F8
3F000001F8
7E000001FC
7E000000FC
7E000000FC
FC000000FE
ENDCHAR
STARTCHAR 00C6
ENCODING 198
SWIDTH 998 0
DWIDTH 61 0
BBX 57 45 1 0
BITMAP
00003FFFFFFFFF00
00007FFFFFFFFF00
00007FFFFFFFFF00
00007FFFFFFFFF00
0000FFFFFFFFFF00
0000F80F80000000
0001F80F80000000
0001F80F80000000
0003F00F80000000
0003F00F80000000
0003E00F80000000
0007E00F80000000
0007E00F80000000
000FC00F80000000
000FC00F80000000
000F800F80000000
001F800F80000000
001F800F80000000
003F000F80000000
003F000FFFFFFE00
003F000FFFFFFE00
007E000FFFFFFE00
007E000FFFFFFE00
00FC000FFFFFFE00
00FC000F80000000
00FC000F80000000
01F8000F80000000
01FFFFFF80000000
03FFFFFF80000000
03FFFFFF80000000
03FFFFFF80000000
07FFFFFF80000000
07E0000F80000000
0FE0000F80000000
0FC0000F80000000
0FC0000F80000000
1F80000F80000000
1F80000F80000000
3F80000F80000000
3F00000F80000000
7F00000FFFFFFF80
7E00000FFFFFFF80
7E00000FFFFFFF80
FE00000FFFFFFF80
FC00000FFFFFFF80
ENDCHAR
STARTCHAR 00C7
ENCODING 199
SWIDTH 720 0
DWIDTH 44 0
BBX 38 59 3 -13
BITMAP
0001FF8000
000FFFF800
003FFFFC00
007FFFFF00
01FFFFFF80
03FF00FFC0
07F8003FC0
07F0000FE0
0FE00007F0
1FC00003F0
1F800003F0
3F000001F8
3F000001F8
3F000001F8
7E000000F8
7E00000000
7E00000000
7C00000000
FC00000000
FC00000000
FC00000000
FC00000000
FC00000000
FC00000000
FC00000000
FC00000000
FC00000000
FC00000000
FC00000000
FC00000000
7C000000FC
7E000000FC
7E000000FC
7E000000FC
3F000001FC
3F000001F8
3F800001F8
1F800003F8
1FC00003F0
0FE00007F0
07F0000FE0
07FC003FC0
03FF80FFC0
01FFFFFF80
00FFFFFE00
003FFFFC00
000FFFF000
0000FF0000
0000300000
0000700000
00007F0000
0000FF8000
00000FC000
000007C000
000007C000
000C07C000
001FFF8000
000FFF0000
0001FC0000
ENDCHAR
STARTCHAR 00C8
ENCODING 200
SWIDTH 670 0
DWIDTH 41 0
BBX 31 58 6 0
BITMAP
01FC0000
00FC0000
007E0000
003F0000
001F0000
000F8000
0007C000
0003C000
0001E000
00000000
00000000
00000000
00000000
FFFFFFFC
FFFFFFFC
FFFFFFFC
FFFFFFFC
FFFFFFFC
F8000000
F8000000
F8000000
F8000000
F8000000
F8000000
F8000000
F8000000
F8000000
F8000000
F8000000
F8000000
F8000000
F8000000
FFFFFFF8
FFFFFFF8
FFFFFFF8
FFFFFFF8
FFFFFFF8
F8000000
F8000000
F8000000
F8000000
F8000000
F8000000
F8000000
F8000000
F8000000
F8000000
F8000000
F8000000
F8000000
F8000000
F8000000
F8000000
FFFFFFFE
FFFFFFFE
FFFFFFFE
FFFFFFFE
FFFFFFFE
ENDCHAR
STARTCHAR 00C9
ENCODING 201
SWIDTH 670 0
DWIDTH 41 0
BBX 31 58 6 0
BITMAP
0000FE00
0000FC00
0001F800
0003F000
0003E000
0007C000
000F8000
000F0000
001E0000
00000000
00000000
00000000
00000000
FFFFFFFC
FFFFFFFC
FFFFFFFC
FFFFFFFC
FFFFFFFC
F8000000
F8000000
F8000000
F8000000
F8000000
F8000000
F8000000
F8000000
F8000000
F8000000
F8000000
F8000000
F8000000
F8000000
FFFFFFF8
FFFFFFF8
FFFFFFF8
FFFFFFF8
FFFFFFF8
F8000000
F8000000
F8000000
F8000000
F8000000
F8000000
F8000000
F8000000
F8000000
F8000000
F8000000
F8000000
F8000000
F8000000
F8000000
F8000000
FFFFFFFE
FFFFFFFE
FFFFFFFE
FFFFFFFE
FFFFFFFE
ENDCHAR
STARTCHAR 00CA
ENCODING 202
SWIDTH 670 0
DWIDTH 41 0
BBX 31 58 6 0
BITMAP
000FC000
001FE000
001FE000
003FF000
007CF800
00787800
00F83C00
01F03E00
01E01E00
00000000
00000000
00000000
00000000
FFFFFFFC
FFFFFFFC
FFFFFFFC
FFFFFFFC
FFFFFFFC
F8000000
F8000000
F8000000
F8000000
F8000000
F8000000
F8000000
F8000000
F8000000
F8000000
F8000000
F8000000
F8000000
F8000000
FFFFFFF8
FFFFFFF8
FFFFFFF8
FFFFFFF8
FFFFFFF8
F8000000
F8000000
F8000000
F8000000
F8000000
F8000000
F8000000
F8000000
F8000000
F8000000
F8000000
F8000000
F8000000
F8000000
F8000000
F8000000
FFFFFFFE
FFFFFFFE
FFFFFFFE
FFFFFFFE
FFFFFFFE
ENDCHAR
STARTCHAR 00CB
ENCODING 203
SWIDTH 670 0
DWIDTH 41 0
BBX 31 56 6 0
BITMAP
01F87E00
01F87E00
01F87E00
01F87E00
01F87E00
01F87E00
00000000
00000000
00000000
00000000
00000000
FFFFFFFC
FFFFFFFC
FFFFFFFC
FFFFFFFC
FFFFFFFC
F8000000
F8000000
F8000000
F8000000
F8000000
F8000000
F8000000
F8000000
F8000000
F8000000
F8000000
F8000000
F8000000
F8000000
FFFFFFF8
FFFFFFF8
FFFFFFF8
FFFFFFF8
FFFFFFF8
F8000000
F8000000
F8000000
F8000000
F8000000
F8000000
F8000000
F8000000
F8000000
F8000000
F8000000
F8000000
F8000000
F8000000
F8000000
F8000000
FFFFFFFE
FFFFFFFE
FFFFFFFE
FFFFFFFE
FFFFFFFE
ENDCHAR
STARTCHAR 00CC
ENCODING 204
SWIDTH 278 0
DWIDTH 17 0
BBX 12 58 0 0
BITMAP
FE00
7F00
3F00
1F80
0FC0
07C0
03E0
01F0
00F0
0000
0000
0000
0000
03F0
03F0
03F0
03F0
03F0
03F0
03F0
03F0
03F0
03F0
03F0
03F0
03F0
03F0
03F0
03F0
03F0
03F0
03F0
03F0
03F0
03F0
03F0
03F0
03F0
03F0
03F0
03F0
03F0
03F0
03F0
03F0
03F0
03F0
03F0
03F0
03F0
03F0
03F0
03F0
03F0
03F0
03F0
03F0
03F0
ENDCHAR
STARTCHAR 00CD
ENCODING 205
SWIDTH 278 0
DWIDTH 17 0
BBX 12 58 5 0
BITMAP
07F0
0FE0
0FC0
1F80
3F00
3E00
7C00
F800
F000
0000
0000
0000
0000
7E00
7E00
7E00
7E00
7E00
7E00
7E00
7E00
7E00
7E00
7E00
7E00
7E00
7E00
7E00
7E00
7E00
7E00
7E00
7E00
7E00
7E00
7E00
7E00
7E00
7E00
7E00
7E00
7E00
7E00
7E00
7E00
7E00
7E00
7E00
7E00
7E00
7E00
7E00
7E00
7E00
7E00
7E00
7E00
7E00
ENDCHAR
STARTCHAR 00CE
ENCODING 206
SWIDTH 278 0
DWIDTH 17 0
BBX 17 58 0 0
BITMAP
03F000
07F800
0FF800
0FFC00
1F3C00
3E3E00
3C1F00
780F00
F00780
000000
000000
000000
000000
03F000
03F000
03F000
03F000
03F000
03F000
03F000
03F000
03F000
03F000
03F000
03F000
03F000
03F000
03F000
03F000
03F000
03F000
03F000
03F000
03F000
03F000
03F000
03F000
03F000
03F000
03F000
03F000
03F000
03F000
03F000
03F000
03F000
03F000
03F000
03F000
03F000
03F000
03F000
03F000
03F000
03F000
03F000
03F000
03F000
ENDCHAR
STARTCHAR 00CF
ENCODING 207
SWIDTH 278 0
DWIDTH 17 0
BBX 16 56 1 0
BITMAP
FC7F
FC7F
FC7F
FC7F
FC7F
FC7F
0000
0000
0000
0000
0000
07E0
07E0
07E0
07E0
07E0
07E0
07E0
07E0
07E0
07E0
07E0
07E0
07E0
07E0
07E0
07E0
07E0
07E0
07E0
07E0
07E0
07E0
07E0
07E0
07E0
07E0
07E0
07E0
07E0
07E0
07E0
07E0
07E0
07E0
07E0
07E0
07E0
07E0
07E0
07E0
07E0
07E0
07E0
07E0
07E0
ENDCHAR
STARTCHAR 00D0
ENCODING 208
SWIDTH 720 0
DWIDTH 44 0
BBX 40 45 1 0
BITMAP
0FFFFFC000
0FFFFFF800
0FFFFFFE00
0FFFFFFF00
0FFFFFFFC0
0FC000FFE0
0FC0001FE0
0FC00007F0
0FC00003F8
0FC00001F8
0FC00001FC
0FC00000FC
0FC00000FC
0FC000007E
0FC000007E
0FC000007E
0FC000003E
0FC000003E
0FC000003F
0FC000003F
FFFFF8003F
FFFFF8003F
FFFFF8003F
FFFFF8003F
0FC000003F
0FC000003F
0FC000003F
0FC000003E
0FC000003E
0FC000007E
0FC000007E
0FC000007E
0FC00000FC
0FC00000FC
0FC00001FC
0FC00001F8
0FC00003F8
0FC00007F0
0FC0001FE0
0FC0007FE0
0FFFFFFFC0
0FFFFFFF00
0FFFFFFE00
0FFFFFF800
0FFFFFC000
ENDCHAR
STARTCHAR 00D1
ENCODING 209
SWIDTH 720 0
DWIDTH 44 0
BBX 34 56 5 0
BITMAP
001F01E000
003FE3E000
007FFFC000
007FFFC000
00F0FF8000
00F01F0000
0000000000
0000000000
0000000000
0000000000
0000000000
FC000007C0
FE000007C0
FE000007C0
FF000007C0
FF800007C0
FF800007C0
FFC00007C0
FFE00007C0
FFE00007C0
FBF00007C0
FBF00007C0
F9F80007C0
F8FC0007C0
F8FC0007C0
F87E0007C0
F87F0007C0
F83F0007C0
F81F8007C0
F81FC007C0
F80FC007C0
F807E007C0
F807E007C0
F803F007C0
F803F807C0
F801F807C0
F800FC07C0
F800FE07C0
F8007E07C0
F8003F07C0
F8003F07C0
F8001F87C0
F8001FC7C0
F8000FC7C0
F80007E7C0
F80007F7C0
F80003F7C0
F80001FFC0
F80001FFC0
F80000FFC0
F800007FC0
F800007FC0
F800003FC0
F800003FC0
F800001FC0
F800000FC0
ENDCHAR
STARTCHAR 00D2
ENCODING 210
SWIDTH 785 0
DWIDTH 48 0
BBX 43 59 2 -1
BITMAP
0003F0000000
0001F8000000
0000FC000000
00007C000000
00003E000000
00001F000000
00000F000000
000007800000
000003C00000
000000000000
000000000000
000000000000
00007FE00000
0003FFFC0000
001FFFFF0000
003FFFFFC000
00FFFFFFE000
01FFC03FF800
03FE0007F800
07F80003FC00
07F00000FE00
0FE000007F00
1FC000003F00
1F8000003F80
3F8000001F80
3F0000000FC0
3F0000000FC0
7E0000000FC0
7E00000007E0
7E00000007E0
7C00000007E0
7C00000007E0
7C00000007E0
FC00000003E0
FC00000003E0
FC00000003E0
FC00000003E0
FC00000003E0
FC00000003E0
7C00000007E0
7E00000007E0
7E00000007E0
7E00000007E0
7E0000000FC0
3F0000000FC0
3F0000000FC0
3F8000001F80
1F8000003F80
1FC000003F00
0FE000007F00
07F00000FE00
07F80003FC00
03FE0007F800
01FFC03FF800
00FFFFFFE000
003FFFFFC000
001FFFFF0000
0007FFFC0000
00007FE00000
ENDCHAR
STARTCHAR 00D3
ENCODING 211
SWIDTH 785 0
DWIDTH 48 0
BBX 43 59 2 -1
BITMAP
000001FC0000
000001F80000
000003F00000
000007E00000
000007C00000
00000F800000
00001F000000
00001E000000
00003C000000
000000000000
000000000000
000000000000
00007FE00000
0003FFFC0000
001FFFFF0000
003FFFFFC000
00FFFFFFE000
01FFC03FF800
03FE0007F800
07F80003FC00
07F00000FE00
0FE000007F00
1FC000003F00
1F8000003F80
3F8000001F80
3F0000000FC0
3F0000000FC0
7E0000000FC0
7E00000007E0
7E00000007E0
7C00000007E0
7C00000007E0
7C00000007E0
FC00000003E0
FC00000003E0
FC00000003E0
FC00000003E0
FC00000003E0
FC00000003E0
7C00000007E0
7E00000007E0
7E00000007E0
7E00000007E0
7E0000000FC0
3F0000000FC0
3F0000000FC0
3F8000001F80
1F8000003F80
1FC000003F00
0FE000007F00
07F00000FE00
07F80003FC00
03FE0007F800
01FFC03FF800
00FFFFFFE000
003FFFFFC000
001FFFFF0000
0007FFFC0000
00007FE00000
ENDCHAR
STARTCHAR 00D4
ENCODING 212
SWIDTH 785 0
DWIDTH 48 0
BBX 43 59 2 -1
BITMAP
00001F800000
00003FC00000
00007FC00000
00007FE00000
0000F9F00000
0001F0F00000
0001E0780000
0003C07C0000
0007803C0000
000000000000
000000000000
000000000000
00007FE00000
0003FFFC0000
001FFFFF0000
003FFFFFC000
00FFFFFFE000
01FFC03FF800
03FE0007F800
07F80003FC00
07F00000FE00
0FE000007F00
1FC000003F00
1F8000003F80
3F8000001F80
3F0000000FC0
3F0000000FC0
7E0000000FC0
7E00000007E0
7E00000007E0
7C00000007E0
7C00000007E0
7C00000007E0
FC00000003E0
FC00000003E0
FC00000003E0
FC00000003E0
FC00000003E0
FC00000003E0
7C00000007E0
7E00000007E0
7E00000007E0
7E00000007E0
7E0000000FC0
3F0000000FC0
3F0000000FC0
3F8000001F80
1F8000003F80
1FC000003F00
0FE000007F00
07F00000FE00
07F80003FC00
03FE0007F800
01FFC03FF800
00FFFFFFE000
003FFFFFC000
001FFFFF0000
0007FFFC0000
00007FE00000
ENDCHAR
STARTCHAR 00D5
ENCODING 213
SWIDTH 785 0
DWIDTH 48 0
BBX 43 58 2 -1
BITMAP
0000F00F0000
0003FC0E0000
0003FF1E0000
0007FFFE0000
00078FFC0000
000703F80000
000000F00000
000000000000
000000000000
000000000000
000000000000
00007FE00000
0003FFFC0000
001FFFFF0000
003FFFFFC000
00FFFFFFE000
01FFC03FF800
03FE0007F800
07F80003FC00
07F00000FE00
0FE000007F00
1FC000003F00
1F8000003F80
3F8000001F80
3F0000000FC0
3F0000000FC0
7E0000000FC0
7E00000007E0
7E00000007E0
7C00000007E0
7C00000007E0
7C00000007E0
FC00000003E0
FC00000003E0
FC00000003E0
FC00000003E0
FC00000003E0
FC00000003E0
7C00000007E0
7E00000007E0
7E00000007E0
7E00000007E0
7E0000000FC0
3F0000000FC0
3F0000000FC0
3F8000001F80
1F8000003F80
1FC000003F00
0FE000007F00
07F00000FE00
07F80003FC00
03FE0007F800
01FFC03FF800
00FFFFFFE000
003FFFFFC000
001FFFFF0000
0007FFFC0000
00007FE00000
ENDCHAR
STARTCHAR 00D6
ENCODING 214
SWIDTH 785 0
DWIDTH 48 0
BBX 43 57 2 -1
BITMAP
0003F0FC0000
0003F0FC0000
0003F0FC0000
0003F0FC0000
0003F0FC0000
0003F0FC0000
000000000000
000000000000
000000000000
000000000000
00007FE00000
0003FFFC0000
001FFFFF0000
003FFFFFC000
00FFFFFFE000
01FFC03FF800
03FE0007F800
07F80003FC00
07F00000FE00
0FE000007F00
1FC000003F00
1F8000003F80
3F8000001F80
3F0000000FC0
3F0000000FC0
7E0000000FC0
7E00000007E0
7E00000007E0
7C00000007E0
7C00000007E0
7C00000007E0
FC00000003E0
FC00000003E0
FC00000003E0
FC00000003E0
FC00000003E0
FC00000003E0
7C00000007E0
7E00000007E0
7E00000007E0
7E00000007E0
7E0000000FC0
3F0000000FC0
3F0000000FC0
3F8000001F80
1F8000003F80
1FC000003F00
0FE000007F00
07F00000FE00
07F80003FC00
03FE0007F800
01FFC03FF800
00FFFFFFE000
003FFFFFC000
001FFFFF0000
0007FFFC0000
00007FE00000
ENDCHAR
STARTCHAR 00D7
ENCODING 215
SWIDTH 589 0
DWIDTH 36 0
BBX 23 24 6 2
BITMAP
200008
70001C
F8003E
FC007E
7E00FC
3F01F8
1F83F0
0FC7E0
07EFC0
03FF80
01FF00
00FE00
00FE00
01FF00
03FF80
07EFC0
0FC7E0
1F83F0
3F01F8
7E00FC
FC007E
F8003E
70001C
200008
ENDCHAR
STARTCHAR 00D8
ENCODING 216
SWIDTH 785 0
DWIDTH 48 0
BBX 43 47 2 0
BITMAP
00007FE000E0
0007FFFC01E0
001FFFFF03C0
003FFFFFC780
00FFFFFFEF80
01FFC03FFF00
03FE000FFE00
07F80003FC00
07F00000FE00
0FE00000FF00
1FC00001FF00
1F800003FF80
3F8000079F80
3F00000F1F80
3F00001E0FC0
7E00003E0FC0
7E00007C07C0
7E0000F807E0
7C0001F007E0
FC0001E007E0
FC0003C007E0
FC00078007E0
FC000F0007E0
FC001E0007E0
FC003C0007E0
FC00780007E0
FC00F80007E0
FC01F00007E0
7C03E00007E0
7E07C00007E0
7E07800007C0
7E0F00000FC0
3F1E00000FC0
3F3C00001F80
3FF800001F80
1FF000003F80
1FE000003F00
0FE000007F00
0FF00000FE00
0FF80003FC00
1FFE0007F800
3FFFC03FF000
3CFFFFFFE000
787FFFFFC000
F01FFFFF0000
6007FFFC0000
00007FC00000
ENDCHAR
STARTCHAR 00D9
ENCODING 217
SWIDTH 720 0
DWIDTH 44 0
BBX 34 59 5 -1
BITMAP
007F000000
003F000000
001F800000
000FC00000
0007C00000
0003E00000
0001F00000
0000F00000
0000780000
0000000000
0000000000
0000000000
0000000000
FC000007C0
FC000007C0
FC000007C0
FC000007C0
FC000007C0
FC000007C0
FC000007C0
FC000007C0
FC000007C0
FC000007C0
FC000007C0
FC000007C0
FC000007C0
FC000007C0
FC000007C0
FC000007C0
FC000007C0
FC000007C0
FC000007C0
FC000007C0
FC000007C0
FC000007C0
FC000007C0
FC000007C0
FC000007C0
FC000007C0
FC000007C0
FC000007C0
FC000007C0
FC000007C0
FC000007C0
FC000007C0
FC000007C0
FC000007C0
FC00000FC0
7E00000FC0
7E00001FC0
7F00001F80
3F80003F80
1FE000FF00
1FF803FE00
0FFFFFFC00
07FFFFF800
01FFFFF000
007FFFC000
000FFC0000
ENDCHAR
STARTCHAR 00DA
ENCODING 218
SWIDTH 720 0
DWIDTH 44 0
BBX 34 59 5 -1
BITMAP
00003F8000
00003F0000
00007E0000
0000FC0000
0000F80000
0001F00000
0001E00000
0003C00000
0007800000
0000000000
0000000000
0000000000
0000000000
FC000007C0
FC000007C0
FC000007C0
FC000007C0
FC000007C0
FC000007C0
FC000007C0
FC000007C0
FC000007C0
FC000007C0
FC000007C0
FC000007C0
FC000007C0
FC000007C0
FC000007C0
FC000007C0
FC000007C0
FC000007C0
FC000007C0
FC000007C0
FC000007C0
FC000007C0
FC000007C0
FC000007C0
FC000007C0
FC000007C0
FC000007C0
FC000007C0
FC000007C0
FC000007C0
FC000007C0
FC000007C0
FC000007C0
FC000007C0
FC00000FC0
7E00000FC0
7E00001FC0
7F00001F80
3F80003F80
1FE000FF00
1FF803FE00
0FFFFFFC00
07FFFFF800
01FFFFF000
007FFFC000
000FFC0000
ENDCHAR
STARTCHAR 00DB
ENCODING 219
SWIDTH 720 0
DWIDTH 44 0
BBX 34 59 5 -1
BITMAP
0003F00000
0003F80000
0007FC0000
000FFC0000
000F3E0000
001F1F0000
003E0F0000
003C078000
007803C000
0000000000
0000000000
0000000000
0000000000
FC000007C0
FC000007C0
FC000007C0
FC000007C0
FC000007C0
FC000007C0
FC000007C0
FC000007C0
FC000007C0
FC000007C0
FC000007C0
FC000007C0
FC000007C0
FC000007C0
FC000007C0
FC000007C0
FC000007C0
FC000007C0
FC000007C0
FC000007C0
FC000007C0
FC000007C0
FC000007C0
FC000007C0
FC000007C0
FC000007C0
FC000007C0
FC000007C0
FC000007C0
FC000007C0
FC000007C0
FC000007C0
FC000007C0
FC000007C0
FC00000FC0
7E00000FC0
7E00001FC0
7F00001F80
3F80003F80
1FE000FF00
1FF803FE00
0FFFFFFC00
07FFFFF800
01FFFFF000
007FFFC000
000FFC0000
ENDCHAR
STARTCHAR 00DC
ENCODING 220
SWIDTH 720 0
DWIDTH 44 0
BBX 34 57 5 -1
BITMAP
007F1F8000
007F1F8000
007F1F8000
007F1F8000
007F1F8000
007F1F8000
0000000000
0000000000
0000000000
0000000000
0000000000
FC000007C0
FC000007C0
FC000007C0
FC000007C0
FC000007C0
FC000007C0
FC000007C0
FC000007C0
FC000007C0
FC000007C0
FC000007C0
FC000007C0
FC000007C0
FC000007C0
FC000007C0
FC000007C0
FC000007C0
FC000007C0
FC000007C0
FC000007C0
FC000007C0
FC000007C0
FC000007C0
FC000007C0
FC000007C0
FC000007C0
FC000007C0
FC000007C0
FC000007C0
FC000007C0
FC000007C0
FC000007C0
FC000007C0
FC000007C0
FC00000FC0
7E00000FC0
7E00001FC0
7F00001F80
3F80003F80
1FE000FF00
1FF803FE00
0FFFFFFC00
07FFFFF800
01FFFFF000
007FFFC000
000FFC0000
ENDCHAR
STARTCHAR 00DD
ENCODING 221
SWIDTH 670 0
DWIDTH 41 0
BBX 39 58 1 0
BITMAP
000007F000
00000FE000
00000FC000
00001F8000
00003F0000
00003E0000
00007C0000
0000780000
0000F00000
0000000000
0000000000
0000000000
0000000000
FE000000FE
7F000000FC
7F000001FC
3F800001F8
1FC00003F8
1FC00007F0
0FE00007E0
0FE0000FE0
07F0000FC0
03F0001FC0
03F8003F80
01FC003F00
00FC007F00
00FE007E00
007E00FC00
007F00FC00
003F81F800
001F83F800
001FC3F000
000FC7E000
0007E7E000
0007FFC000
0003FFC000
0003FF8000
0001FF0000
0000FF0000
0000FE0000
00007E0000
00007E0000
00007E0000
00007E0000
00007E0000
00007E0000
00007E0000
00007E0000
00007E0000
00007E0000
00007E0000
00007E0000
00007E0000
00007E0000
00007E0000
00007E0000
00007E0000
00007E0000
ENDCHAR
STARTCHAR 00DE
ENCODING 222
SWIDTH 670 0
DWIDTH 41 0
BBX 32 45 6 0
BITMAP
F8000000
F8000000
F8000000
F8000000
F8000000
F8000000
F8000000
FFFFFC00
FFFFFF80
FFFFFFE0
FFFFFFF0
FFFFFFF8
F8000FFC
F80003FC
F80000FE
F80000FE
F800007E
F800007E
F800007F
F800003F
F800003F
F800007F
F800007E
F800007E
F80000FE
F80000FE
F80001FC
F80007FC
FFFFFFF8
FFFFFFF0
FFFFFFE0
FFFFFF80
FFFFFE00
F8000000
F8000000
F8000000
F8000000
F8000000
F8000000
F8000000
F8000000
F8000000
F8000000
F8000000
F8000000
ENDCHAR
STARTCHAR 00DF
ENCODING 223
SWIDTH 605 0
DWIDTH 37 0
BBX 30 46 4 -1
BITMAP
003FE000
01FFFC00
07FFFE00
0FFFFF80
1FFFFFC0
3FC03FC0
7F000FE0
7E0007E0
7C0003E0
FC0003F0
F80003F0
F80003F0
F80003F0
F80003F0
F80003E0
F80007E0
F8000FC0
F8003F80
F807FF00
F807FC00
F807F800
F807FF00
F807FF80
F8007FE0
F80007F0
F80003F0
F80001F8
F80000F8
F80000FC
F80000FC
F800007C
F800007C
F800007C
F80000FC
F80000FC
F80000F8
F80001F8
F80001F8
F80003F0
F8000FF0
F8003FE0
F80FFFC0
F80FFF80
F80FFF00
F80FFC00
000FE000
ENDCHAR
STARTCHAR 00E0
ENCODING 224
SWIDTH 556 0
DWIDTH 34 0
BBX 30 47 3 -1
BITMAP
03F80000
01F80000
00FC0000
007C0000
003E0000
001F0000
000F0000
000F8000
0007C000
0003C000
00000000
00000000
00000000
007FE000
03FFFC00
07FFFE00
1FFFFF00
1FFFFF80
3F803F80
3F000FC0
7E000FC0
7E0007C0
7C0007C0
000007C0
000007C0
00000FC0
00001FC0
0003FFC0
01FFFFC0
07FFFFC0
1FFFE7C0
3FFC07C0
7F8007C0
FE0007C0
FC0007C0
F80007C0
F80007C0
F8000FC0
F8000FC0
F8001FC0
FC003FC0
FE00FFC0
7FEFFFE0
7FFFF7FC
3FFFC7FC
0FFF03FC
03FC01F8
ENDCHAR
STARTCHAR 00E1
ENCODING 225
SWIDTH 556 0
DWIDTH 34 0
BBX 30 47 3 -1
BITMAP
0001FC00
0001F800
0003F000
0007E000
0007C000
000F8000
000F0000
001E0000
003C0000
00380000
00000000
00000000
00000000
007FE000
03FFFC00
07FFFE00
1FFFFF00
1FFFFF80
3F803F80
3F000FC0
7E000FC0
7E0007C0
7C0007C0
000007C0
000007C0
00000FC0
00001FC0
0003FFC0
01FFFFC0
07FFFFC0
1FFFE7C0
3FFC07C0
7F8007C0
FE0007C0
FC0007C0
F80007C0
F80007C0
F8000FC0
F8000FC0
F8001FC0
FC003FC0
FE00FFC0
7FEFFFE0
7FFFF7FC
3FFFC7FC
0FFF03FC
03FC01F8
ENDCHAR
STARTCHAR 00E2
ENCODING 226
SWIDTH 556 0
DWIDTH 34 0
BBX 30 47 3 -1
BITMAP
001F8000
003FC000
007FC000
007FE000
00F9E000
00F1F000
01E0F800
03E07800
03C03C00
07801E00
00000000
00000000
00000000
007FE000
03FFFC00
07FFFE00
1FFFFF00
1FFFFF80
3F803F80
3F000FC0
7E000FC0
7E0007C0
7C0007C0
000007C0
000007C0
00000FC0
00001FC0
0003FFC0
01FFFFC0
07FFFFC0
1FFFE7C0
3FFC07C0
7F8007C0
FE0007C0
FC0007C0
F80007C0
F80007C0
F8000FC0
F8000FC0
F8001FC0
FC003FC0
FE00FFC0
7FEFFFE0
7FFFF7FC
3FFFC7FC
0FFF03FC
03FC01F8
ENDCHAR
STARTCHAR 00E3
ENCODING 227
SWIDTH 556 0
DWIDTH 34 0
BBX 30 45 3 -1
BITMAP
00F00E00
03FE1E00
03FFFE00
07FFFC00
078FFC00
0F01F800
00000000
00000000
00000000
00000000
00000000
007FE000
03FFFC00
07FFFE00
1FFFFF00
1FFFFF80
3F803F80
3F000FC0
7E000FC0
7E0007C0
7C0007C0
000007C0
000007C0
00000FC0
00001FC0
0003FFC0
01FFFFC0
07FFFFC0
1FFFE7C0
3FFC07C0
7F8007C0
FE0007C0
FC0007C0
F80007C0
F80007C0
F8000FC0
F8000FC0
F8001FC0
FC003FC0
FE00FFC0
7FEFFFE0
7FFFF7FC
3FFFC7FC
0FFF03FC
03FC01F8
ENDCHAR
STARTCHAR 00E4
ENCODING 228
SWIDTH 556 0
DWIDTH 34 0
BBX 30 45 3 -1
BITMAP
03F1FC00
03F1FC00
03F1FC00
03F1FC00
03F1FC00
03F1FC00
00000000
00000000
00000000
00000000
00000000
007FE000
03FFFC00
07FFFE00
1FFFFF00
1FFFFF80
3F803F80
3F000FC0
7E000FC0
7E0007C0
7C0007C0
000007C0
000007C0
00000FC0
00001FC0
0003FFC0
01FFFFC0
07FFFFC0
1FFFE7C0
3FFC07C0
7F8007C0
FE0007C0
FC0007C0
F80007C0
F80007C0
F8000FC0
F8000FC0
F8001FC0
FC003FC0
FE00FFC0
7FEFFFE0
7FFFF7FC
3FFFC7FC
0FFF03FC
03FC01F8
ENDCHAR
STARTCHAR 00E5
ENCODING 229
SWIDTH 556 0
DWIDTH 34 0
BBX 30 47 3 -1
BITMAP
000F0000
003FC000
007FC000
0070E000
0060E000
00E0E000
0060E000
0071E000
007FC000
003F8000
00060000
00000000
00000000
007FE000
03FFFC00
07FFFE00
1FFFFF00
1FFFFF80
3F803F80
3F000FC0
7E000FC0
7E0007C0
7C0007C0
000007C0
000007C0
00000FC0
00001FC0
0003FFC0
01FFFFC0
07FFFFC0
1FFFE7C0
3FFC07C0
7F8007C0
FE0007C0
FC0007C0
F80007C0
F80007C0
F8000FC0
F8000FC0
F8001FC0
FC003FC0
FE00FFC0
7FEFFFE0
7FFFF7FC
3FFFC7FC
0FFF03FC
03FC01F8
ENDCHAR
STARTCHAR 00E6
ENCODING 230
SWIDTH 883 0
DWIDTH 54 0
BBX 50 34 2 -1
BITMAP
003FE000FE0000
01FFF807FFC000
07FFFE1FFFF000
0FFFFF3FFFF800
1FFFFFFFFFFC00
3FC01FFE01FE00
3F000FFC007F00
3E0007F8003F00
3E0007F0001F00
3E0007E0001F80
000007E0000F80
000007E0000F80
000007C0000F80
00001FC0000FC0
001FFFFFFFFFC0
01FFFFFFFFFFC0
0FFFFFFFFFFFC0
1FFFE7FFFFFFC0
3FF807C0000000
7F8007C0000000
7E0007C0000000
FC0007C0000000
FC0007E0000000
F80007E0000F80
F80007E0001F80
FC000FF0001F00
FC001FF8003F00
FC003EFC007E00
7F00FCFF01FE00
7FEFF87FFFFC00
3FFFF03FFFF800
1FFFE01FFFF000
0FFF8007FFC000
01FC0001FE0000
ENDCHAR
STARTCHAR 00E7
ENCODING 231
SWIDTH 507 0
DWIDTH 31 0
BBX 27 46 2 -13
BITMAP
003FC000
00FFF800
03FFFC00
07FFFF00
0FFFFF00
1FE03F80
1F801FC0
3F000FC0
3E0007C0
7E0007E0
7C0007E0
7C0003E0
FC000000
FC000000
F8000000
F8000000
F8000000
F8000000
F8000000
F8000000
F8000000
FC000000
FC0003E0
7C0003E0
7C0007E0
7E0007E0
3E0007C0
3F000FC0
1F801F80
1FE07F80
0FFFFF00
07FFFE00
03FFFC00
00FFF000
000F0000
001C0000
00180000
003FE000
003FE000
0001F000
0001F000
0001F000
0301E000
07FFE000
03FFC000
007F0000
ENDCHAR
STARTCHAR 00E8
ENCODING 232
SWIDTH 556 0
DWIDTH 34 0
BBX 29 47 2 -1
BITMAP
01FC0000
00FC0000
007E0000
003F0000
001F0000
000F8000
00078000
0003C000
0001E000
0000E000
00000000
00000000
00000000
001FE000
007FFC00
01FFFF00
03FFFF80
07FFFFC0
0FE01FE0
1FC00FE0
1F0003F0
3F0003F0
3E0001F8
7E0001F8
7C0000F8
7C0000F8
7C0000F8
7FFFFFF8
7FFFFFF8
FFFFFFF8
FFFFFFF8
7C000000
7C000000
7C000000
7C000000
7C000000
7E0001F8
3E0001F0
3F0003F0
3F8003F0
1FC007E0
0FE01FC0
0FFFFFC0
07FFFF80
01FFFE00
00FFFC00
001FE000
ENDCHAR
STARTCHAR 00E9
ENCODING 233
SWIDTH 556 0
DWIDTH 34 0
BBX 29 47 2 -1
BITMAP
0000FE00
0000FC00
0001F800
0001F000
0003E000
0007C000
0007C000
000F8000
000F0000
001E0000
00000000
00000000
00000000
001FE000
007FFC00
01FFFF00
03FFFF80
07FFFFC0
0FE01FE0
1FC00FE0
1F0003F0
3F0003F0
3E0001F8
7E0001F8
7C0000F8
7C0000F8
7C0000F8
7FFFFFF8
7FFFFFF8
FFFFFFF8
FFFFFFF8
7C000000
7C000000
7C000000
7C000000
7C000000
7E0001F8
3E0001F0
3F0003F0
3F8003F0
1FC007E0
0FE01FC0
0FFFFFC0
07FFFF80
01FFFE00
00FFFC00
001FE000
ENDCHAR
STARTCHAR 00EA
ENCODING 234
SWIDTH 556 0
DWIDTH 34 0
BBX 29 47 2 -1
BITMAP
000FE000
000FE000
001FF000
003EF800
003EF800
007C7C00
00783C00
00F01E00
01F01F00
01E00F00
00000000
00000000
00000000
001FE000
007FFC00
01FFFF00
03FFFF80
07FFFFC0
0FE01FE0
1FC00FE0
1F0003F0
3F0003F0
3E0001F8
7E0001F8
7C0000F8
7C0000F8
7C0000F8
7FFFFFF8
7FFFFFF8
FFFFFFF8
FFFFFFF8
7C000000
7C000000
7C000000
7C000000
7C000000
7E0001F8
3E0001F0
3F0003F0
3F8003F0
1FC007E0
0FE01FC0
0FFFFFC0
07FFFF80
01FFFE00
00FFFC00
001FE000
ENDCHAR
STARTCHAR 00EB
ENCODING 235
SWIDTH 556 0
DWIDTH 34 0
BBX 29 45 2 -1
BITMAP
01FC7F00
01FC7F00
01FC7F00
01FC7F00
01FC7F00
01FC7F00
00000000
00000000
00000000
00000000
00000000
001FE000
007FFC00
01FFFF00
03FFFF80
07FFFFC0
0FE01FE0
1FC00FE0
1F0003F0
3F0003F0
3E0001F8
7E0001F8
7C0000F8
7C0000F8
7C0000F8
7FFFFFF8
7FFFFFF8
FFFFFFF8
FFFFFFF8
7C000000
7C000000
7C000000
7C000000
7C000000
7E0001F8
3E0001F0
3F0003F0
3F8003F0
1FC007E0
0FE01FC0
0FFFFFC0
07FFFF80
01FFFE00
00FFFC00
001FE000
ENDCHAR
STARTCHAR 00EC
ENCODING 236
SWIDTH 278 0
DWIDTH 17 0
BBX 12 46 0 0
BITMAP
FE00
7F00
3F00
1F80
0F80
07C0
03E0
01E0
00F0
0070
0000
0000
0000
0000
03E0
03E0
03E0
03E0
03E0
03E0
03E0
03E0
03E0
03E0
03E0
03E0
03E0
03E0
03E0
03E0
03E0
03E0
03E0
03E0
03E0
03E0
03E0
03E0
03E0
03E0
03E0
03E0
03E0
03E0
03E0
03E0
ENDCHAR
STARTCHAR 00ED
ENCODING 237
SWIDTH 278 0
DWIDTH 17 0
BBX 12 46 4 0
BITMAP
03F0
07E0
0FC0
0F80
1F00
3F00
3E00
7C00
7800
F000
0000
0000
0000
0000
3E00
3E00
3E00
3E00
3E00
3E00
3E00
3E00
3E00
3E00
3E00
3E00
3E00
3E00
3E00
3E00
3E00
3E00
3E00
3E00
3E00
3E00
3E00
3E00
3E00
3E00
3E00
3E00
3E00
3E00
3E00
3E00
ENDCHAR
STARTCHAR 00EE
ENCODING 238
SWIDTH 278 0
DWIDTH 17 0
BBX 17 46 0 0
BITMAP
07F000
07F000
0FF800
1FF800
1E7C00
3E3E00
7C1E00
780F00
F00F00
F00780
000000
000000
000000
000000
03E000
03E000
03E000
03E000
03E000
03E000
03E000
03E000
03E000
03E000
03E000
03E000
03E000
03E000
03E000
03E000
03E000
03E000
03E000
03E000
03E000
03E000
03E000
03E000
03E000
03E000
03E000
03E000
03E000
03E000
03E000
03E000
ENDCHAR
STARTCHAR 00EF
ENCODING 239
SWIDTH 278 0
DWIDTH 17 0
BBX 16 43 0 0
BITMAP
FE3F
FE3F
FE3F
FE3F
FE3F
FE3F
0000
0000
0000
0000
0000
03E0
03E0
03E0
03E0
03E0
03E0
03E0
03E0
03E0
03E0
03E0
03E0
03E0
03E0
03E0
03E0
03E0
03E0
03E0
03E0
03E0
03E0
03E0
03E0
03E0
03E0
03E0
03E0
03E0
03E0
03E0
03E0
ENDCHAR
STARTCHAR 00F0
ENCODING 240
SWIDTH 556 0
DWIDTH 34 0
BBX 29 46 2 -1
BITMAP
07000000
0FC07000
0FE1F800
07FFF000
01FFC000
00FF0000
03FF8000
0FFFC000
0F87F000
0603F800
0001FC00
0000FE00
003FFE00
00FFFF00
03FFFF80
07FFFF80
0FFFFFC0
1FE01FE0
1F800FE0
3F0007F0
3F0003F0
7E0003F0
7E0001F0
7C0001F8
7C0001F8
FC0000F8
FC0000F8
FC0000F8
FC0000F8
FC0000F8
FC0000F8
FC0000F8
FC0000F8
7C0001F8
7C0001F8
7E0001F0
7E0003F0
3F0003F0
3F0007E0
1F800FE0
1FE03FC0
0FFFFF80
07FFFF80
03FFFE00
00FFFC00
003FE000
ENDCHAR
STARTCHAR 00F1
ENCODING 241
SWIDTH 556 0
DWIDTH 34 0
BBX 26 44 4 0
BITMAP
01F01E00
07FE3C00
07FFFC00
0FFFFC00
0F1FF800
0E03F000
00000000
00000000
00000000
00000000
00000000
000FE000
F83FFC00
F8FFFE00
F9FFFF00
FBFFFF80
FBC03F80
FF801FC0
FF000FC0
FE000FC0
FE0007C0
FC0007C0
FC0007C0
FC0007C0
FC0007C0
F80007C0
F80007C0
F80007C0
F80007C0
F80007C0
F80007C0
F80007C0
F80007C0
F80007C0
F80007C0
F80007C0
F80007C0
F80007C0
F80007C0
F80007C0
F80007C0
F80007C0
F80007C0
F80007C0
ENDCHAR
STARTCHAR 00F2
ENCODING 242
SWIDTH 556 0
DWIDTH 34 0
BBX 29 47 2 -1
BITMAP
01F80000
01FC0000
00FE0000
007E0000
003F0000
001F0000
000F8000
0007C000
0003C000
0001E000
00000000
00000000
00000000
001FE000
00FFFC00
03FFFE00
07FFFF00
0FFFFF80
1FE03FC0
1F800FE0
3F0007E0
3F0003F0
7E0003F0
7E0001F0
7C0001F8
7C0001F8
FC0000F8
FC0000F8
FC0000F8
FC0000F8
FC0000F8
FC0000F8
FC0000F8
FC0000F8
7C0001F8
7C0001F8
7E0001F0
7E0003F0
3F0003F0
3F0007E0
1F800FE0
1FE03FC0
0FFFFF80
07FFFF00
03FFFE00
00FFF800
001FE000
ENDCHAR
STARTCHAR 00F3
ENCODING 243
SWIDTH 556 0
DWIDTH 34 0
BBX 29 47 2 -1
BITMAP
0000FE00
0001FC00
0001F800
0003F000
0007E000
0007C000
000F8000
000F0000
001E0000
003C0000
00000000
00000000
00000000
001FE000
00FFFC00
03FFFE00
07FFFF00
0FFFFF80
1FE03FC0
1F800FE0
3F0007E0
3F0003F0
7E0003F0
7E0001F0
7C0001F8
7C0001F8
FC0000F8
FC0000F8
FC0000F8
FC0000F8
FC0000F8
FC0000F8
FC0000F8
FC0000F8
7C0001F8
7C0001F8
7E0001F0
7E0003F0
3F0003F0
3F0007E0
1F800FE0
1FE03FC0
0FFFFF80
07FFFF00
03FFFE00
00FFF800
001FE000
ENDCHAR
STARTCHAR 00F4
ENCODING 244
SWIDTH 556 0
DWIDTH 34 0
BBX 29 47 2 -1
BITMAP
001FC000
001FC000
003FE000
003FF000
007DF000
00F8F800
00F07C00
01F03C00
01E01E00
03C01E00
00000000
00000000
00000000
001FE000
00FFFC00
03FFFE00
07FFFF00
0FFFFF80
1FE03FC0
1F800FE0
3F0007E0
3F0003F0
7E0003F0
7E0001F0
7C0001F8
7C0001F8
FC0000F8
FC0000F8
FC0000F8
FC0000F8
FC0000F8
FC0000F8
FC0000F8
FC0000F8
7C0001F8
7C0001F8
7E0001F0
7E0003F0
3F0003F0
3F0007E0
1F800FE0
1FE03FC0
0FFFFF80
07FFFF00
03FFFE00
00FFF800
001FE000
ENDCHAR
STARTCHAR 00F5
ENCODING 245
SWIDTH 556 0
DWIDTH 34 0
BBX 29 45 2 -1
BITMAP
00780700
01FF0F00
01FFFF00
03FFFE00
03C7FE00
0780FC00
00000000
00000000
00000000
00000000
00000000
001FE000
00FFFC00
03FFFE00
07FFFF00
0FFFFF80
1FE03FC0
1F800FE0
3F0007E0
3F0003F0
7E0003F0
7E0001F0
7C0001F8
7C0001F8
FC0000F8
FC0000F8
FC0000F8
FC0000F8
FC0000F8
FC0000F8
FC0000F8
FC0000F8
7C0001F8
7C0001F8
7E0001F0
7E0003F0
3F0003F0
3F0007E0
1F800FE0
1FE03FC0
0FFFFF80
07FFFF00
03FFFE00
00FFF800
001FE000
ENDCHAR
STARTCHAR 00F6
ENCODING 246
SWIDTH 556 0
DWIDTH 34 0
BBX 29 45 2 -1
BITMAP
01F8FE00
01F8FE00
01F8FE00
01F8FE00
01F8FE00
01F8FE00
00000000
00000000
00000000
00000000
00000000
001FE000
00FFFC00
03FFFE00
07FFFF00
0FFFFF80
1FE03FC0
1F800FE0
3F0007E0
3F0003F0
7E0003F0
7E0001F0
7C0001F8
7C0001F8
FC0000F8
FC0000F8
FC0000F8
FC0000F8
FC0000F8
FC0000F8
FC0000F8
FC0000F8
7C0001F8
7C0001F8
7E0001F0
7E0003F0
3F0003F0
3F0007E0
1F800FE0
1FE03FC0
0FFFFF80
07FFFF00
03FFFE00
00FFF800
001FE000
ENDCHAR
STARTCHAR 00F7
ENCODING 247
SWIDTH 589 0
DWIDTH 36 0
BBX 30 29 3 0
BITMAP
000FC000
000FC000
000FC000
000FC000
000FC000
000FC000
00000000
00000000
00000000
00000000
00000000
00000000
00000000
FFFFFFFC
FFFFFFFC
FFFFFFFC
FFFFFFFC
00000000
00000000
00000000
00000000
00000000
00000000
000FC000
000FC000
000FC000
000FC000
000FC000
000FC000
ENDCHAR
STARTCHAR 00F8
ENCODING 248
SWIDTH 605 0
DWIDTH 37 0
BBX 31 34 1 -1
BITMAP
000FF004
007FFE0E
01FFFF1E
03FFFFBC
07FFFFF8
0FF01FF0
0FC007F0
1F8003F0
1F8003F8
3F0007F8
3F000EF8
3E001EFC
3E003CFC
7E00787C
7E00F07C
7E01E07C
7E01C07C
7E03807C
7E07007C
7E0E007C
7E1E007C
3E3C00FC
3E7800FC
3FF000F8
3FE001F8
1FC001F8
1F8003F0
0FC007F0
0FF01FE0
1FFFFFC0
3FFFFF80
79FFFF00
F07FFC00
601FF000
ENDCHAR
STARTCHAR 00F9
ENCODING 249
SWIDTH 556 0
DWIDTH 34 0
BBX 25 47 4 -1
BITMAP
0FE00000
07F00000
03F00000
01F80000
00FC0000
007C0000
003E0000
001F0000
000F0000
00000000
00000000
00000000
00000000
00000000
F8000F80
F8000F80
F8000F80
F8000F80
F8000F80
F8000F80
F8000F80
F8000F80
F8000F80
F8000F80
F8000F80
F8000F80
F8000F80
F8000F80
F8000F80
F8000F80
F8000F80
F8000F80
F8000F80
F8000F80
F8000F80
F8000F80
F8000F80
F8001F80
F8001F80
FC003F80
FE007F80
7F00FF80
7FEFF780
3FFFE780
1FFFC780
0FFF8780
03FE0000
ENDCHAR
STARTCHAR 00FA
ENCODING 250
SWIDTH 556 0
DWIDTH 34 0
BBX 25 47 4 -1
BITMAP
0003F800
0007F000
000FE000
000FC000
001F8000
001F0000
003E0000
007C0000
00780000
00000000
00000000
00000000
00000000
00000000
F8000F80
F8000F80
F8000F80
F8000F80
F8000F80
F8000F80
F8000F80
F8000F80
F8000F80
F8000F80
F8000F80
F8000F80
F8000F80
F8000F80
F8000F80
F8000F80
F8000F80
F8000F80
F8000F80
F8000F80
F8000F80
F8000F80
F8000F80
F8001F80
F8001F80
FC003F80
FE007F80
7F00FF80
7FEFF780
3FFFE780
1FFFC780
0FFF8780
03FE0000
ENDCHAR
STARTCHAR 00FB
ENCODING 251
SWIDTH 556 0
DWIDTH 34 0
BBX 25 47 4 -1
BITMAP
003F0000
007F8000
00FF8000
00FFC000
01F3E000
03E1E000
03C1F000
0780F000
07807800
08000000
00000000
00000000
00000000
00000000
F8000F80
F8000F80
F8000F80
F8000F80
F8000F80
F8000F80
F8000F80
F8000F80
F8000F80
F8000F80
F8000F80
F8000F80
F8000F80
F8000F80
F8000F80
F8000F80
F8000F80
F8000F80
F8000F80
F8000F80
F8000F80
F8000F80
F8000F80
F8001F80
F8001F80
FC003F80
FE007F80
7F00FF80
7FEFF780
3FFFE780
1FFFC780
0FFF8780
03FE0000
ENDCHAR
STARTCHAR 00FC
ENCODING 252
SWIDTH 556 0
DWIDTH 34 0
BBX 25 45 4 -1
BITMAP
07E1F800
07E1F800
07E1F800
07E1F800
07E1F800
07E1F800
00000000
00000000
00000000
00000000
00000000
00000000
F8000F80
F8000F80
F8000F80
F8000F80
F8000F80
F8000F80
F8000F80
F8000F80
F8000F80
F8000F80
F8000F80
F8000F80
F8000F80
F8000F80
F8000F80
F8000F80
F8000F80
F8000F80
F8000F80
F8000F80
F8000F80
F8000F80
F8000F80
F8001F80
F8001F80
FC003F80
FE007F80
7F00FF80
7FEFF780
3FFFE780
1FFFC780
0FFF8780
03FE0000
ENDCHAR
STARTCHAR 00FD
ENCODING 253
SWIDTH 507 0
DWIDTH 31 0
BBX 28 59 1 -13
BITMAP
0001FC00
0001F800
0003F000
0007E000
0007C000
000F8000
000F0000
001E0000
003C0000
00380000
00000000
00000000
00000000
00000000
FC0001F0
7C0003F0
7C0003E0
7E0007E0
3E0007E0
3E0007C0
3F000FC0
1F000F80
1F000F80
1F801F80
0F801F00
0F801F00
0FC03F00
07C03E00
07C03E00
07E07C00
03E07C00
03E0FC00
03F0F800
01F0F800
01F1F800
01F9F000
00F9F000
00FBE000
007FE000
007FE000
007FC000
003FC000
003FC000
003F8000
001F8000
001F8000
001F0000
003F0000
003E0000
003E0000
007E0000
007C0000
00FC0000
01FC0000
3FF80000
3FF00000
3FF00000
3FC00000
1F000000
ENDCHAR
STARTCHAR 00FE
ENCODING 254
SWIDTH 556 0
DWIDTH 34 0
BBX 29 57 3 -13
BITMAP
F8000000
F8000000
F8000000
F8000000
F8000000
F8000000
F8000000
F8000000
F8000000
F8000000
F8000000
F80FE000
F87FF800
F8FFFE00
F9FFFF00
FBFFFF80
FFE03FC0
FF801FC0
FF000FE0
FF0007E0
FE0003F0
FE0003F0
FC0001F0
FC0001F8
FC0001F8
FC0001F8
F80000F8
F80000F8
F80000F8
F80000F8
FC0001F8
FC0001F8
FC0001F8
FC0001F0
FE0003F0
FE0003F0
FF0007E0
FF0007E0
FF800FC0
FFE03FC0
FBFFFF80
FBFFFF00
F8FFFE00
F87FF800
F81FE000
F8000000
F8000000
F8000000
F8000000
F8000000
F8000000
F8000000
F8000000
F8000000
F8000000
F8000000
F8000000
ENDCHAR
STARTCHAR 00FF
ENCODING 255
SWIDTH 507 0
DWIDTH 31 0
BBX 28 57 1 -13
BITMAP
03F0FC00
03F0FC00
03F0FC00
03F0FC00
03F0FC00
03F0FC00
00000000
00000000
00000000
00000000
00000000
00000000
FC0001F0
7C0003F0
7C0003E0
7E0007E0
3E0007E0
3E0007C0
3F000FC0
1F000F80
1F000F80
1F801F80
0F801F00
0F801F00
0FC03F00
07C03E00
07C03E00
07E07C00
03E07C00
03E0FC00
03F0F800
01F0F800
01F1F800
01F9F000
00F9F000
00FBE000
007FE000
007FE000
007FC000
003FC000
003FC000
003F8000
001F8000
001F8000
001F0000
003F0000
003E0000
003E0000
007E0000
007C0000
00FC0000
01FC0000
3FF80000
3FF00000
3FF00000
3FC00000
1F000000
ENDCHAR
STARTCHAR 0100
ENCODING 256
SWIDTH 670 0
DWIDTH 41 0
BBX 39 55 1 0
BITMAP
001FFFF000
001FFFF000
001FFFF000
001FFFF000
0000000000
0000000000
0000000000
0000000000
0000000000
0000000000
0000FE0000
0001FF0000
0001FF0000
0001FF0000
0003FF8000
0003FF8000
0003EFC000
0007EFC000
0007EFC000
0007C7E000
000FC7E000
000FC7E000
000F83F000
001F83F000
001F83F000
003F01F800
003F01F800
003F01F800
007E00FC00
007E00FC00
007C00FC00
00FC007E00
00FC007E00
00F8007E00
01F8003F00
01F8003F00
01F0003F00
03FFFFFF80
03FFFFFF80
03FFFFFFC0
07FFFFFFC0
07FFFFFFC0
0FE0000FE0
0FC00007E0
0FC00007E0
1F800007F0
1F800003F0
1F800003F0
3F000003F8
3F000001F8
3F000001F8
7E000001FC
7E000000FC
7E000000FC
FC000000FE
ENDCHAR
STARTCHAR 0101
ENCODING 257
SWIDTH 556 0
DWIDTH 34 0
BBX 30 44 3 -1
BITMAP
07FFFC00
07FFFC00
07FFFC00
07FFFC00
00000000
00000000
00000000
00000000
00000000
00000000
007FE000
03FFFC00
07FFFE00
1FFFFF00
1FFFFF80
3F803F80
3F000FC0
7E000FC0
7E0007C0
7C0007C0
000007C0
000007C0
00000FC0
00001FC0
0003FFC0
01FFFFC0
07FFFFC0
1FFFE7C0
3FFC07C0
7F8007C0
FE0007C0
FC0007C0
F80007C0
F80007C0
F8000FC0
F8000FC0
F8001FC0
FC003FC0
FE00FFC0
7FEFFFE0
7FFFF7FC
3FFFC7FC
0FFF03FC
03FC01F8
ENDCHAR
STARTCHAR 0102
ENCODING 258
SWIDTH 670 0
DWIDTH 41 0
BBX 39 57 1 0
BITMAP
003C007800
003C007000
001E00F000
001F83F000
000FFFE000
000FFFC000
0003FF8000
0000FE0000
0000000000
0000000000
0000000000
0000000000
0000FE0000
0001FF0000
0001FF0000
0001FF0000
0003FF8000
0003FF8000
0003EFC000
0007EFC000
0007EFC000
0007C7E000
000FC7E000
000FC7E000
000F83F000
001F83F000
001F83F000
003F01F800
003F01F800
003F01F800
007E00FC00
007E00FC00
007C00FC00
00FC007E00
00FC007E00
00F8007E00
01F8003F00
01F8003F00
01F0003F00
03FFFFFF80
03FFFFFF80
03FFFFFFC0
07FFFFFFC0
07FFFFFFC0
0FE0000FE0
0FC00007E0
0FC00007E0
1F800007F0
1F800003F0
1F800003F0
3F000003F8
3F000001F8
3F000001F8
7E000001FC
7E000000FC
7E000000FC
FC000000FE
ENDCHAR
STARTCHAR 0103
ENCODING 259
SWIDTH 556 0
DWIDTH 34 0
BBX 30 46 3 -1
BITMAP
07001E00
07801E00
07803E00
07E07C00
03FFFC00
01FFF800
00FFF000
003FC000
00000000
00000000
00000000
00000000
007FE000
03FFFC00
07FFFE00
1FFFFF00
1FFFFF80
3F803F80
3F000FC0
7E000FC0
7E0007C0
7C0007C0
000007C0
000007C0
00000FC0
00001FC0
0003FFC0
01FFFFC0
07FFFFC0
1FFFE7C0
3FFC07C0
7F8007C0
FE0007C0
FC0007C0
F80007C0
F80007C0
F8000FC0
F8000FC0
F8001FC0
FC003FC0
FE00FFC0
7FEFFFE0
7FFFF7FC
3FFFC7FC
0FFF03FC
03FC01F8
ENDCHAR
STARTCHAR 0104
ENCODING 260
SWIDTH 670 0
DWIDTH 41 0
BBX 41 58 1 -13
BITMAP
0000FE000000
0001FF000000
0001FF000000
0001FF000000
0003FF800000
0003FF800000
0003EFC00000
0007EFC00000
0007EFC00000
0007C7E00000
000FC7E00000
000FC7E00000
000F83F00000
001F83F00000
001F83F00000
003F01F80000
003F01F80000
003F01F80000
007E00FC0000
007E00FC0000
007C00FC0000
00FC007E0000
00FC007E0000
00F8007E0000
01F8003F0000
01F8003F0000
01F0003F0000
03FFFFFF8000
03FFFFFF8000
03FFFFFFC000
07FFFFFFC000
07FFFFFFC000
0FE0000FE000
0FC00007E000
0FC00007E000
1F800007F000
1F800003F000
1F800003F000
3F000003F800
3F000001F800
3F000001F800
7E000001FC00
7E000000FC00
7E000000FC00
FC000000FE00
000000003C00
00000000F000
00000001E000
00000003C000
00000007C000
000000078000
000000078000
000000078000
00000007C000
00000007E000
00000003FF80
00000001FF80
000000003E00
ENDCHAR
STARTCHAR 0105
ENCODING 261
SWIDTH 556 0
DWIDTH 34 0
BBX 33 45 3 -12
BITMAP
007FE00000
03FFFC0000
07FFFE0000
1FFFFF0000
1FFFFF8000
3F803F8000
3F000FC000
7E000FC000
7E0007C000
7C0007C000
000007C000
000007C000
00000FC000
00001FC000
0003FFC000
01FFFFC000
07FFFFC000
1FFFE7C000
3FFC07C000
7F8007C000
FE0007C000
FC0007C000
F80007C000
F80007C000
F8000FC000
F8000FC000
F8001FC000
FC003FC000
FE00FFC000
7FEFFFE000
3FFFF7FC00
3FFFC3FC00
0FFF83FC00
03FC01FC00
000000F000
000001E000
000003C000
0000078000
0000078000
0000078000
000007C000
000007C000
000003FF80
000001FF80
0000007F80
ENDCHAR
STARTCHAR 0106
ENCODING 262
SWIDTH 720 0
DWIDTH 44 0
BBX 38 59 3 -1
BITMAP
000007F000
000007E000
00000FC000
00001F8000
00001F0000
00003E0000
00003C0000
0000780000
0000F00000
0000000000
0000000000
0000000000
0001FF8000
000FFFF800
003FFFFC00
007FFFFF00
01FFFFFF80
03FF00FFC0
07F8003FE0
07F0000FE0
0FE00007F0
1FC00003F0
1F800003F0
3F000001F8
3F000001F8
3E000001F8
7E000000F8
7E00000000
7C00000000
7C00000000
FC00000000
FC00000000
FC00000000
FC00000000
FC00000000
FC00000000
FC00000000
FC00000000
FC00000000
FC00000000
FC00000000
FC000000FC
7C000000FC
7E000000FC
7E000000FC
7F000000FC
3F000001F8
3F800001F8
1F800003F8
1FC00003F0
0FE00007F0
0FF0000FE0
07FC003FE0
03FF00FFC0
01FFFFFF80
00FFFFFF00
003FFFFC00
000FFFF000
0001FF8000
ENDCHAR
STARTCHAR 0107
ENCODING 263
SWIDTH 507 0
DWIDTH 31 0
BBX 27 47 2 -1
BITMAP
0000FE00
0001FC00
0001F800
0003F000
0007E000
0007C000
000F8000
000F0000
001E0000
003C0000
00000000
00000000
00000000
003FC000
00FFF800
03FFFC00
07FFFF00
0FFFFF00
1FE03F80
1F801FC0
3F000FC0
3E0007C0
7E0007E0
7C0007E0
7C0003E0
FC000000
FC000000
F8000000
F8000000
F8000000
F8000000
F8000000
F8000000
F8000000
FC000000
FC0003E0
7C0003E0
7E0007E0
7E0007C0
3F000FC0
3F801FC0
1FE03F80
0FFFFF00
07FFFE00
03FFFC00
01FFF800
003FC000
ENDCHAR
STARTCHAR 0108
ENCODING 264
SWIDTH 720 0
DWIDTH 44 0
BBX 38 59 3 -1
BITMAP
0000FE0000
0000FF0000
0001FF0000
0001EF8000
0003E7C000
0007C3C000
000781E000
000F01F000
001E00F000
0000000000
0000000000
0000000000
0001FF8000
000FFFF800
003FFFFC00
007FFFFF00
01FFFFFF80
03FF00FFC0
07F8003FE0
07F0000FE0
0FE00007F0
1FC00003F0
1F800003F0
3F000001F8
3F000001F8
3E000001F8
7E000000F8
7E00000000
7C00000000
7C00000000
FC00000000
FC00000000
FC00000000
FC00000000
FC00000000
FC00000000
FC00000000
FC00000000
FC00000000
FC00000000
FC00000000
FC000000FC
7C000000FC
7E000000FC
7E000000FC
7F000000FC
3F000001F8
3F800001F8
1F800003F8
1FC00003F0
0FE00007F0
0FF0000FE0
07FC003FE0
03FF00FFC0
01FFFFFF80
00FFFFFF00
003FFFFC00
000FFFF000
0001FF8000
ENDCHAR
STARTCHAR 0109
ENCODING 265
SWIDTH 507 0
DWIDTH 31 0
BBX 27 47 2 -1
BITMAP
001FC000
001FC000
003FE000
007FE000
0079F000
00F8F800
01F07800
01E07C00
03C03C00
03C01E00
00000000
00000000
00000000
003FC000
00FFF800
03FFFC00
07FFFF00
0FFFFF00
1FE03F80
1F801FC0
3F000FC0
3E0007C0
7E0007E0
7C0007E0
7C0003E0
FC000000
FC000000
F8000000
F8000000
F8000000
F8000000
F8000000
F8000000
F8000000
FC000000
FC0003E0
7C0003E0
7E0007E0
7E0007C0
3F000FC0
3F801FC0
1FE03F80
0FFFFF00
07FFFE00
03FFFC00
01FFF800
003FC000
ENDCHAR
STARTCHAR 010A
ENCODING 266
SWIDTH 720 0
DWIDTH 44 0
BBX 38 57 3 -1
BITMAP
00007F0000
00007F0000
00007F0000
00007F0000
00007F0000
00007F0000
0000000000
0000000000
0000000000
0000000000
0001FF8000
000FFFF800
003FFFFC00
007FFFFF00
01FFFFFF80
03FF00FFC0
07F8003FE0
07F0000FE0
0FE00007F0
1FC00003F0
1F800003F0
3F000001F8
3F000001F8
3E000001F8
7E000000F8
7E00000000
7C00000000
7C00000000
FC00000000
FC00000000
FC00000000
FC00000000
FC00000000
FC00000000
FC00000000
FC00000000
FC00000000
FC00000000
FC00000000
FC000000FC
7C000000FC
7E000000FC
7E000000FC
7F000000FC
3F000001F8
3F800001F8
1F800003F8
1FC00003F0
0FE00007F0
0FF0000FE0
07FC003FE0
03FF00FFC0
01FFFFFF80
00FFFFFF00
003FFFFC00
000FFFF000
0001FF8000
ENDCHAR
STARTCHAR 010B
ENCODING 267
SWIDTH 507 0
DWIDTH 31 0
BBX 27 45 2 -1
BITMAP
001F8000
001F8000
001F8000
001F8000
001F8000
001F8000
00000000
00000000
00000000
00000000
00000000
003FC000
00FFF800
03FFFC00
07FFFF00
0FFFFF00
1FE03F80
1F801FC0
3F000FC0
3E0007C0
7E0007E0
7C0007E0
7C0003E0
FC000000
FC000000
F8000000
F8000000
F8000000
F8000000
F8000000
F8000000
F8000000
FC000000
FC0003E0
7C0003E0
7E0007E0
7E0007C0
3F000FC0
3F801FC0
1FE03F80
0FFFFF00
07FFFE00
03FFFC00
01FFF800
003FC000
ENDCHAR
STARTCHAR 010C
ENCODING 268
SWIDTH 720 0
DWIDTH 44 0
BBX 38 59 3 -1
BITMAP
000F007800
000780F000
0007C1E000
0003C3E000
0003E7C000
0001FF8000
0000FF8000
0000FF0000
00007E0000
0000000000
0000000000
0000000000
0001FF8000
000FFFF800
003FFFFC00
007FFFFF00
01FFFFFF80
03FF00FFC0
07F8003FE0
07F0000FE0
0FE00007F0
1FC00003F0
1F800003F0
3F000001F8
3F000001F8
3E000001F8
7E000000F8
7E00000000
7C00000000
7C00000000
FC00000000
FC00000000
FC00000000
FC00000000
FC00000000
FC00000000
FC00000000
FC00000000
FC00000000
FC00000000
FC00000000
FC000000FC
7C000000FC
7E000000FC
7E000000FC
7F000000FC
3F000001F8
3F800001F8
1F800003F8
1FC00003F0
0FE00007F0
0FF0000FE0
07FC003FE0
03FF00FFC0
01FFFFFF80
00FFFFFF00
003FFFFC00
000FFFF000
0001FF8000
ENDCHAR
STARTCHAR 010D
ENCODING 269
SWIDTH 507 0
DWIDTH 31 0
BBX 27 47 2 -1
BITMAP
03C01E00
03E03C00
01E07800
00F0F800
00F8F000
007DF000
007FE000
003FC000
001FC000
001F8000
00000000
00000000
00000000
003FC000
00FFF800
03FFFC00
07FFFF00
0FFFFF00
1FE03F80
1F801FC0
3F000FC0
3E0007C0
7E0007E0
7C0007E0
7C0003E0
FC000000
FC000000
F8000000
F8000000
F8000000
F8000000
F8000000
F8000000
F8000000
FC000000
FC0003E0
7C0003E0
7E0007E0
7E0007C0
3F000FC0
3F801FC0
1FE03F80
0FFFFF00
07FFFE00
03FFFC00
01FFF800
003FC000
ENDCHAR
STARTCHAR 010E
ENCODING 270
SWIDTH 720 0
DWIDTH 44 0
BBX 36 58 5 0
BITMAP
01E00F0000
00F01F0000
00F83E0000
007C3C0000
003C7C0000
003EF80000
001FF00000
000FF00000
000FE00000
0000000000
0000000000
0000000000
0000000000
FFFFFC0000
FFFFFF8000
FFFFFFE000
FFFFFFF000
FFFFFFFC00
FC000FFE00
FC0001FE00
FC00007F00
FC00003F80
FC00001F80
FC00001FC0
FC00000FC0
FC00000FC0
FC000007E0
FC000007E0
FC000007E0
FC000003E0
FC000003E0
FC000003F0
FC000003F0
FC000003F0
FC000003F0
FC000003F0
FC000003F0
FC000003F0
FC000003F0
FC000003F0
FC000003E0
FC000003E0
FC000007E0
FC000007E0
FC000007E0
FC00000FC0
FC00000FC0
FC00001FC0
FC00001F80
FC00003F80
FC00007F00
FC0001FE00
FC0007FC00
FFFFFFFC00
FFFFFFF000
FFFFFFE000
FFFFFF8000
FFFFFC0000
ENDCHAR
STARTCHAR 010F
ENCODING 271
SWIDTH 638 0
DWIDTH 39 0
BBX 38 46 2 -1
BITMAP
000001F1FC
000001F1FC
000001F1FC
000001F1FC
000001F1FC
000001F1FC
000001F01C
000001F01C
000001F018
000001F038
000001F038
000001F070
003F81F1F0
01FFF1F1C0
03FFF9F000
0FFFFDF000
1FFFFFF000
1FE03FF000
3F801FF000
3F000FF000
7E0007F000
7E0003F000
FC0003F000
FC0003F000
F80001F000
F80001F000
F80001F000
F80001F000
F80001F000
F80001F000
F80001F000
F80001F000
F80001F000
F80001F000
FC0003F000
FC0003F000
7E0003F000
7E0007F000
3F000FF000
3F801FF000
1FE03FF000
1FFFFEF000
0FFFFCF000
07FFF8F000
01FFF0F000
003F800000
ENDCHAR
STARTCHAR 0110
ENCODING 272
SWIDTH 720 0
DWIDTH 44 0
BBX 40 45 1 0
BITMAP
0FFFFFC000
0FFFFFF800
0FFFFFFE00
0FFFFFFF00
0FFFFFFFC0
0FC000FFE0
0FC0001FE0
0FC00007F0
0FC00003F8
0FC00001F8
0FC00001FC
0FC00000FC
0FC00000FC
0FC000007E
0FC000007E
0FC000007E
0FC000003E
0FC000003E
0FC000003F
0FC000003F
FFFFF8003F
FFFFF8003F
FFFFF8003F
FFFFF8003F
0FC000003F
0FC000003F
0FC000003F
0FC000003E
0FC000003E
0FC000007E
0FC000007E
0FC000007E
0FC00000FC
0FC00000FC
0FC00001FC
0FC00001F8
0FC00003F8
0FC00007F0
0FC0001FE0
0FC0007FE0
0FFFFFFFC0
0FFFFFFF00
0FFFFFFE00
0FFFFFF800
0FFFFFC000
ENDCHAR
STARTCHAR 0111
ENCODING 273
SWIDTH 556 0
DWIDTH 34 0
BBX 32 46 2 -1
BITMAP
000001F0
000001F0
000001F0
000001F0
000001F0
0003FFFF
0003FFFF
0003FFFF
000001F0
000001F0
000001F0
000001F0
003F81F0
01FFE1F0
03FFF9F0
0FFFFDF0
1FFFFFF0
1FE07FF0
3F801FF0
3F000FF0
7E0007F0
7E0007F0
FC0003F0
FC0003F0
F80001F0
F80001F0
F80001F0
F80001F0
F80001F0
F80001F0
F80001F0
F80001F0
F80001F0
F80001F0
FC0003F0
FC0003F0
7E0003F0
7E0007F0
3F000FF0
3F801FF0
1FE07FF0
0FFFFEF0
07FFFCF0
03FFF8F0
01FFE0F0
003F8000
ENDCHAR
STARTCHAR 0112
ENCODING 274
SWIDTH 670 0
DWIDTH 41 0
BBX 31 55 6 0
BITMAP
01FFFE00
01FFFE00
01FFFE00
01FFFE00
00000000
00000000
00000000
00000000
00000000
00000000
FFFFFFFC
FFFFFFFC
FFFFFFFC
FFFFFFFC
FFFFFFFC
F8000000
F8000000
F8000000
F8000000
F8000000
F8000000
F8000000
F8000000
F8000000
F8000000
F8000000
F8000000
F8000000
F8000000
FFFFFFF8
FFFFFFF8
FFFFFFF8
FFFFFFF8
FFFFFFF8
F8000000
F8000000
F8000000
F8000000
F8000000
F8000000
F8000000
F8000000
F8000000
F8000000
F8000000
F8000000
F8000000
F8000000
F8000000
F8000000
FFFFFFFE
FFFFFFFE
FFFFFFFE
FFFFFFFE
FFFFFFFE
ENDCHAR
STARTCHAR 0113
ENCODING 275
SWIDTH 556 0
DWIDTH 34 0
BBX 29 44 2 -1
BITMAP
01FFFF00
01FFFF00
01FFFF00
01FFFF00
00000000
00000000
00000000
00000000
00000000
00000000
001FE000
007FFC00
01FFFF00
03FFFF80
07FFFFC0
0FE01FE0
1FC00FE0
1F0003F0
3F0003F0
3E0001F8
7E0001F8
7C0000F8
7C0000F8
7C0000F8
7FFFFFF8
7FFFFFF8
FFFFFFF8
FFFFFFF8
7C000000
7C000000
7C000000
7C000000
7C000000
7E0001F8
3E0001F0
3F0003F0
3F8003F0
1FC007E0
0FE01FC0
0FFFFFC0
07FFFF80
01FFFE00
00FFFC00
001FE000
ENDCHAR
STARTCHAR 0114
ENCODING 276
SWIDTH 670 0
DWIDTH 41 0
BBX 31 57 6 0
BITMAP
03C00700
03C00F00
03E01F00
01F87E00
01FFFE00
00FFFC00
007FF800
001FE000
00000000
00000000
00000000
00000000
FFFFFFFC
FFFFFFFC
FFFFFFFC
FFFFFFFC
FFFFFFFC
F8000000
F8000000
F8000000
F8000000
F8000000
F8000000
F8000000
F8000000
F8000000
F8000000
F8000000
F8000000
F8000000
F8000000
FFFFFFF8
FFFFFFF8
FFFFFFF8
FFFFFFF8
FFFFFFF8
F8000000
F8000000
F8000000
F8000000
F8000000
F8000000
F8000000
F8000000
F8000000
F8000000
F8000000
F8000000
F8000000
F8000000
F8000000
F8000000
FFFFFFFE
FFFFFFFE
FFFFFFFE
FFFFFFFE
FFFFFFFE
ENDCHAR
STARTCHAR 0115
ENCODING 277
SWIDTH 556 0
DWIDTH 34 0
BBX 29 46 2 -1
BITMAP
03C00780
03C00780
01E00F00
01F81F00
01FFFE00
00FFFE00
007FFC00
001FF000
00000000
00000000
00000000
00000000
001FE000
007FFC00
01FFFF00
03FFFF80
07FFFFC0
0FE01FE0
1FC00FE0
1F0003F0
3F0003F0
3E0001F8
7E0001F8
7C0000F8
7C0000F8
7C0000F8
7FFFFFF8
7FFFFFF8
FFFFFFF8
FFFFFFF8
7C000000
7C000000
7C000000
7C000000
7C000000
7E0001F8
3E0001F0
3F0003F0
3F8003F0
1FC007E0
0FE01FC0
0FFFFFC0
07FFFF80
01FFFE00
00FFFC00
001FE000
ENDCHAR
STARTCHAR 0116
ENCODING 278
SWIDTH 670 0
DWIDTH 41 0
BBX 31 56 6 0
BITMAP
000FC000
000FC000
000FC000
000FC000
000FC000
000FC000
00000000
00000000
00000000
00000000
00000000
FFFFFFFC
FFFFFFFC
FFFFFFFC
FFFFFFFC
FFFFFFFC
F8000000
F8000000
F8000000
F8000000
F8000000
F8000000
F8000000
F8000000
F8000000
F8000000
F8000000
F8000000
F8000000
F8000000
FFFFFFF8
FFFFFFF8
FFFFFFF8
FFFFFFF8
FFFFFFF8
F8000000
F8000000
F8000000
F8000000
F8000000
F8000000
F8000000
F8000000
F8000000
F8000000
F8000000
F8000000
F8000000
F8000000
F8000000
F8000000
FFFFFFFE
FFFFFFFE
FFFFFFFE
FFFFFFFE
FFFFFFFE
ENDCHAR
STARTCHAR 0117
ENCODING 279
SWIDTH 556 0
DWIDTH 34 0
BBX 29 45 2 -1
BITMAP
000FE000
000FE000
000FE000
000FE000
000FE000
000FE000
00000000
00000000
00000000
00000000
00000000
001FE000
007FFC00
01FFFF00
03FFFF80
07FFFFC0
0FE01FE0
1FC00FE0
1F0003F0
3F0003F0
3E0001F8
7E0001F8
7C0000F8
7C0000F8
7C0000F8
7FFFFFF8
7FFFFFF8
FFFFFFF8
FFFFFFF8
7C000000
7C000000
7C000000
7C000000
7C000000
7E0001F8
3E0001F0
3F0003F0
3F8003F0
1FC007E0
0FE01FC0
0FFFFFC0
07FFFF80
01FFFE00
00FFFC00
001FE000
ENDCHAR
STARTCHAR 0118
ENCODING 280
SWIDTH 670 0
DWIDTH 41 0
BBX 34 58 6 -13
BITMAP
FFFFFFFC00
FFFFFFFC00
FFFFFFFC00
FFFFFFFC00
FFFFFFFC00
F800000000
F800000000
F800000000
F800000000
F800000000
F800000000
F800000000
F800000000
F800000000
F800000000
F800000000
F800000000
F800000000
F800000000
FFFFFFF800
FFFFFFF800
FFFFFFF800
FFFFFFF800
FFFFFFF800
F800000000
F800000000
F800000000
F800000000
F800000000
F800000000
F800000000
F800000000
F800000000
F800000000
F800000000
F800000000
F800000000
F800000000
F800000000
F800000000
FFFFFFFE00
FFFFFFFE00
FFFFFFFE00
FFFFFFFE00
FFFFFFFE00
0000003C00
000000F800
000001F000
000003E000
000003C000
000007C000
000007C000
000007C000
000007C000
000003E040
000001FFC0
000000FFC0
0000001F00
ENDCHAR
STARTCHAR 0119
ENCODING 281
SWIDTH 556 0
DWIDTH 34 0
BBX 29 45 2 -12
BITMAP
001FE000
007FFC00
01FFFF00
03FFFF80
07FFFFC0
0FE01FE0
1FC00FE0
1F0003F0
3F0003F0
3E0001F8
7E0001F8
7C0000F8
7C0000F8
7C0000F8
7FFFFFF8
7FFFFFF8
FFFFFFF8
FFFFFFF8
7C000000
7C000000
7C000000
7C000000
7C000000
7E0001F8
3E0001F0
3F0003F0
3F8003F0
1FC007E0
0FE01FC0
0FFFFFC0
07FFFF80
01FFFF00
00FFFE00
001FFC00
00003800
00007800
0000F000
0000F000
0001F000
0001E000
0001F000
0001F800
0000FFF0
00007FF0
00000FE0
ENDCHAR
STARTCHAR 011A
ENCODING 282
SWIDTH 670 0
DWIDTH 41 0
BBX 31 58 6 0
BITMAP
01E00F00
01E01E00
00F03C00
00F87C00
007CF800
003FF000
003FF000
001FE000
000FC000
00000000
00000000
00000000
00000000
FFFFFFFC
FFFFFFFC
FFFFFFFC
FFFFFFFC
FFFFFFFC
F8000000
F8000000
F8000000
F8000000
F8000000
F8000000
F8000000
F8000000
F8000000
F8000000
F8000000
F8000000
F8000000
F8000000
FFFFFFF8
FFFFFFF8
FFFFFFF8
FFFFFFF8
FFFFFFF8
F8000000
F8000000
F8000000
F8000000
F8000000
F8000000
F8000000
F8000000
F8000000
F8000000
F8000000
F8000000
F8000000
F8000000
F8000000
F8000000
FFFFFFFE
FFFFFFFE
FFFFFFFE
FFFFFFFE
FFFFFFFE
ENDCHAR
STARTCHAR 011B
ENCODING 283
SWIDTH 556 0
DWIDTH 34 0
BBX 29 47 2 -1
BITMAP
01E00F00
00F01E00
00F83E00
00783C00
007C7C00
003EF800
001FF000
001FF000
000FE000
000FC000
00000000
00000000
00000000
001FE000
007FFC00
01FFFF00
03FFFF80
07FFFFC0
0FE01FE0
1FC00FE0
1F0003F0
3F0003F0
3E0001F8
7E0001F8
7C0000F8
7C0000F8
7C0000F8
7FFFFFF8
7FFFFFF8
FFFFFFF8
FFFFFFF8
7C000000
7C000000
7C000000
7C000000
7C000000
7E0001F8
3E0001F0
3F0003F0
3F8003F0
1FC007E0
0FE01FC0
0FFFFFC0
07FFFF80
01FFFE00
00FFFC00
001FE000
ENDCHAR
STARTCHAR 011C
ENCODING 284
SWIDTH 785 0
DWIDTH 48 0
BBX 40 59 3 -1
BITMAP
00007F0000
00007F8000
0000FF8000
0001F7C000
0001E3C000
0003E1E000
0007C1F000
000780F000
000F007800
0000000000
0000000000
0000000000
0000FFC000
0007FFFC00
003FFFFF00
007FFFFF80
00FFFFFFE0
03FF807FF0
03FC000FF0
07F00003F8
0FE00001FC
1FC00000FC
1F800000FE
3F8000007E
3F0000007E
7E0000003F
7E00000000
7E00000000
7C00000000
FC00000000
FC00000000
FC00000000
FC00000000
F800000000
F80003FFFF
F80003FFFF
F80003FFFF
F80003FFFF
FC0003FFFF
FC0000001F
FC0000001F
FC0000001F
FC0000001F
7E0000001F
7E0000001F
7F0000003F
3F0000003F
3F8000007F
1F8000007F
1FC00000FF
0FE00001FF
07F80003FF
07FC000FFF
03FF807FCF
01FFFFFF8F
007FFFFE0F
003FFFFC0F
000FFFF007
0001FF8000
ENDCHAR
STARTCHAR 011D
ENCODING 285
SWIDTH 556 0
DWIDTH 34 0
BBX 27 59 2 -13
BITMAP
001FC000
001FC000
003FE000
003FF000
007DF000
00F8F800
00F07800
01E03C00
01E01E00
03C01E00
00000000
00000000
00000000
003F8000
00FFE1E0
03FFF1E0
07FFF9E0
0FFFFDE0
1FC07FE0
1F801FE0
3F000FE0
3E000FE0
7E0007E0
7C0007E0
7C0003E0
7C0003E0
FC0003E0
FC0003E0
FC0003E0
F80003E0
F80003E0
FC0003E0
FC0003E0
FC0003E0
FC0003E0
7C0003E0
7C0007E0
7E0007E0
3E000FE0
3F000FE0
1F801FE0
1FC07FE0
0FFFFBE0
07FFF3E0
03FFE3E0
01FFC3E0
003F03E0
000003E0
000003E0
7C0007E0
7E0007C0
3E0007C0
3F000FC0
3F801F80
1FF0FF00
0FFFFE00
07FFFC00
03FFF800
007FC000
ENDCHAR
STARTCHAR 011E
ENCODING 286
SWIDTH 785 0
DWIDTH 48 0
BBX 40 58 3 -1
BITMAP
000F001E00
000F001C00
0007803C00
0007E0FC00
0007FFF800
0003FFF000
0000FFE000
00003F8000
0000000000
0000000000
0000000000
0000FFC000
0007FFFC00
003FFFFF00
007FFFFF80
00FFFFFFE0
03FF807FF0
03FC000FF0
07F00003F8
0FE00001FC
1FC00000FC
1F800000FE
3F8000007E
3F0000007E
7E0000003F
7E00000000
7E00000000
7C00000000
FC00000000
FC00000000
FC00000000
FC00000000
F800000000
F80003FFFF
F80003FFFF
F80003FFFF
F80003FFFF
FC0003FFFF
FC0000001F
FC0000001F
FC0000001F
FC0000001F
7E0000001F
7E0000001F
7F0000003F
3F0000003F
3F8000007F
1F8000007F
1FC00000FF
0FE00001FF
07F80003FF
07FC000FFF
03FF807FCF
01FFFFFF8F
007FFFFE0F
003FFFFC0F
000FFFF007
0001FF8000
ENDCHAR
STARTCHAR 011F
ENCODING 287
SWIDTH 556 0
DWIDTH 34 0
BBX 27 58 2 -13
BITMAP
07800F00
07800E00
03C01E00
03F03E00
03FFFC00
01FFFC00
00FFF800
003FE000
00000000
00000000
00000000
00000000
003F8000
00FFE1E0
03FFF1E0
07FFF9E0
0FFFFDE0
1FC07FE0
1F801FE0
3F000FE0
3E000FE0
7E0007E0
7C0007E0
7C0003E0
7C0003E0
FC0003E0
FC0003E0
FC0003E0
F80003E0
F80003E0
FC0003E0
FC0003E0
FC0003E0
FC0003E0
7C0003E0
7C0007E0
7E0007E0
3E000FE0
3F000FE0
1F801FE0
1FC07FE0
0FFFFBE0
07FFF3E0
03FFE3E0
01FFC3E0
003F03E0
000003E0
000003E0
7C0007E0
7E0007C0
3E0007C0
3F000FC0
3F801F80
1FF0FF00
0FFFFE00
07FFFC00
03FFF800
007FC000
ENDCHAR
STARTCHAR 0120
ENCODING 288
SWIDTH 785 0
DWIDTH 48 0
BBX 40 57 3 -1
BITMAP
00003F0000
00003F0000
00003F0000
00003F0000
00003F0000
00003F0000
0000000000
0000000000
0000000000
0000000000
0000FFC000
0007FFFC00
003FFFFF00
007FFFFF80
00FFFFFFE0
03FF807FF0
03FC000FF0
07F00003F8
0FE00001FC
1FC00000FC
1F800000FE
3F8000007E
3F0000007E
7E0000003F
7E00000000
7E00000000
7C00000000
FC00000000
FC00000000
FC00000000
FC00000000
F800000000
F80003FFFF
F80003FFFF
F80003FFFF
F80003FFFF
FC0003FFFF
FC0000001F
FC0000001F
FC0000001F
FC0000001F
7E0000001F
7E0000001F
7F0000003F
3F0000003F
3F8000007F
1F8000007F
1FC00000FF
0FE00001FF
07F80003FF
07FC000FFF
03FF807FCF
01FFFFFF8F
007FFFFE0F
003FFFFC0F
000FFFF007
0001FF8000
ENDCHAR
STARTCHAR 0121
ENCODING 289
SWIDTH 556 0
DWIDTH 34 0
BBX 27 57 2 -13
BITMAP
001F8000
001F8000
001F8000
001F8000
001F8000
001F8000
00000000
00000000
00000000
00000000
00000000
003F8000
00FFE1E0
03FFF1E0
07FFF9E0
0FFFFDE0
1FC07FE0
1F801FE0
3F000FE0
3E000FE0
7E0007E0
7C0007E0
7C0003E0
7C0003E0
FC0003E0
FC0003E0
FC0003E0
F80003E0
F80003E0
FC0003E0
FC0003E0
FC0003E0
FC0003E0
7C0003E0
7C0007E0
7E0007E0
3E000FE0
3F000FE0
1F801FE0
1FC07FE0
0FFFFBE0
07FFF3E0
03FFE3E0
01FFC3E0
003F03E0
000003E0
000003E0
7C0007E0
7E0007C0
3E0007C0
3F000FC0
3F801F80
1FF0FF00
0FFFFE00
07FFFC00
03FFF800
007FC000
ENDCHAR
STARTCHAR 0122
ENCODING 290
SWIDTH 785 0
DWIDTH 48 0
BBX 40 63 3 -17
BITMAP
0000FFC000
0007FFFC00
003FFFFF00
007FFFFF80
00FFFFFFE0
03FF807FF0
03FC000FF0
07F00003F8
0FE00001FC
1FC00000FC
1F800000FE
3F8000007E
3F0000007E
7E0000003F
7E00000000
7E00000000
7C00000000
FC00000000
FC00000000
FC00000000
FC00000000
F800000000
F80003FFFF
F80003FFFF
F80003FFFF
F80003FFFF
FC0003FFFF
FC0000001F
FC0000001F
FC0000001F
FC0000001F
7E0000001F
7E0000001F
7F0000003F
3F0000003F
3F8000007F
1F8000007F
1FC00000FF
0FE00001FF
07F80003FF
07FC000FFF
03FF807FCF
01FFFFFF8F
007FFFFE0F
003FFFFC0F
000FFFF007
0001FF8000
0000000000
0000000000
00003F0000
00003F0000
00003F0000
00003F0000
00003F0000
00003F0000
0000070000
0000070000
0000060000
00000E0000
00000E0000
00003C0000
0000380000
0000200000
ENDCHAR
STARTCHAR 0123
ENCODING 291
SWIDTH 556 0
DWIDTH 34 0
BBX 27 63 2 -13
BITMAP
00008000
00038000
00078000
000E0000
000C0000
001C0000
001C0000
001C0000
001F8000
001F8000
001F8000
001F8000
001F8000
001F8000
00000000
00000000
00000000
003F8000
00FFE1E0
03FFF1E0
07FFF9E0
0FFFFDE0
1FC07FE0
1F801FE0
3F000FE0
3E000FE0
7E0007E0
7C0007E0
7C0003E0
7C0003E0
FC0003E0
FC0003E0
FC0003E0
F80003E0
F80003E0
FC0003E0
FC0003E0
FC0003E0
FC0003E0
7C0003E0
7C0007E0
7E0007E0
3E000FE0
3F000FE0
1F801FE0
1FC07FE0
0FFFFBE0
07FFF3E0
03FFE3E0
01FFC3E0
003F03E0
000003E0
000003E0
7C0007E0
7E0007C0
3E0007C0
3F000FC0
3F801F80
1FF0FF00
0FFFFE00
07FFFC00
03FFF800
007FC000
ENDCHAR
STARTCHAR 0124
ENCODING 292
SWIDTH 720 0
DWIDTH 44 0
BBX 34 58 5 0
BITMAP
0001F80000
0003FC0000
0007FC0000
0007FE0000
000F9E0000
001F1F0000
001E0F8000
003C078000
007803C000
0000000000
0000000000
0000000000
0000000000
FC000007C0
FC000007C0
FC000007C0
FC000007C0
FC000007C0
FC000007C0
FC000007C0
FC000007C0
FC000007C0
FC000007C0
FC000007C0
FC000007C0
FC000007C0
FC000007C0
FC000007C0
FC000007C0
FC000007C0
FC000007C0
FC000007C0
FFFFFFFFC0
FFFFFFFFC0
FFFFFFFFC0
FFFFFFFFC0
FFFFFFFFC0
FC000007C0
FC000007C0
FC000007C0
FC000007C0
FC000007C0
FC000007C0
FC000007C0
FC000007C0
FC000007C0
FC000007C0
FC000007C0
FC000007C0
FC000007C0
FC000007C0
FC000007C0
FC000007C0
FC000007C0
FC000007C0
FC000007C0
FC000007C0
FC000007C0
ENDCHAR
STARTCHAR 0125
ENCODING 293
SWIDTH 556 0
DWIDTH 34 0
BBX 31 58 -1 0
BITMAP
07E00000
0FF00000
0FF00000
1FF80000
3E7C0000
3C3C0000
783E0000
F81F0000
F00F0000
00000000
00000000
00000000
00000000
07C00000
07C00000
07C00000
07C00000
07C00000
07C00000
07C00000
07C00000
07C00000
07C00000
07C00000
07C00000
07C07F00
07C3FFE0
07C7FFF0
07CFFFF8
07DFFFFC
07FE01FC
07FC00FC
07F8007E
07F0007E
07E0003E
07E0003E
07E0003E
07E0003E
07C0003E
07C0003E
07C0003E
07C0003E
07C0003E
07C0003E
07C0003E
07C0003E
07C0003E
07C0003E
07C0003E
07C0003E
07C0003E
07C0003E
07C0003E
07C0003E
07C0003E
07C0003E
07C0003E
07C0003E
ENDCHAR
STARTCHAR 0126
ENCODING 294
SWIDTH 720 0
DWIDTH 44 0
BBX 44 45 0 0
BITMAP
07E000003E00
07E000003E00
07E000003E00
07E000003E00
07E000003E00
07E000003E00
07E000003E00
07E000003E00
07E000003E00
07E000003E00
FFFFFFFFFFF0
FFFFFFFFFFF0
FFFFFFFFFFF0
FFFFFFFFFFF0
07E000003E00
07E000003E00
07E000003E00
07E000003E00
07E000003E00
07FFFFFFFE00
07FFFFFFFE00
07FFFFFFFE00
07FFFFFFFE00
07FFFFFFFE00
07E000003E00
07E000003E00
07E000003E00
07E000003E00
07E000003E00
07E000003E00
07E000003E00
07E000003E00
07E000003E00
07E000003E00
07E000003E00
07E000003E00
07E000003E00
07E000003E00
07E000003E00
07E000003E00
07E000003E00
07E000003E00
07E000003E00
07E000003E00
07E000003E00
ENDCHAR
STARTCHAR 0127
ENCODING 295
SWIDTH 556 0
DWIDTH 34 0
BBX 29 45 1 0
BITMAP
1F000000
1F000000
1F000000
1F000000
1F000000
FFFFF800
FFFFF800
FFFFF800
1F000000
1F000000
1F000000
1F000000
1F01FC00
1F0FFF80
1F1FFFC0
1F3FFFE0
1F7FFFF0
1FF807F0
1FF003F0
1FE001F8
1FC001F8
1F8000F8
1F8000F8
1F8000F8
1F8000F8
1F0000F8
1F0000F8
1F0000F8
1F0000F8
1F0000F8
1F0000F8
1F0000F8
1F0000F8
1F0000F8
1F0000F8
1F0000F8
1F0000F8
1F0000F8
1F0000F8
1F0000F8
1F0000F8
1F0000F8
1F0000F8
1F0000F8
1F0000F8
ENDCHAR
STARTCHAR 0128
ENCODING 296
SWIDTH 278 0
DWIDTH 17 0
BBX 19 56 -1 0
BITMAP
1F01E0
3FE3C0
7FFFC0
FFFFC0
F1FF80
E03F00
000000
000000
000000
000000
000000
01F800
01F800
01F800
01F800
01F800
01F800
01F800
01F800
01F800
01F800
01F800
01F800
01F800
01F800
01F800
01F800
01F800
01F800
01F800
01F800
01F800
01F800
01F800
01F800
01F800
01F800
01F800
01F800
01F800
01F800
01F800
01F800
01F800
01F800
01F800
01F800
01F800
01F800
01F800
01F800
01F800
01F800
01F800
01F800
01F800
ENDCHAR
STARTCHAR 0129
ENCODING 297
SWIDTH 278 0
DWIDTH 17 0
BBX 19 44 -1 0
BITMAP
1F01E0
3FE3E0
7FFFC0
FFFFC0
F1FF80
E03F00
000000
000000
000000
000000
000000
000000
01F000
01F000
01F000
01F000
01F000
01F000
01F000
01F000
01F000
01F000
01F000
01F000
01F000
01F000
01F000
01F000
01F000
01F000
01F000
01F000
01F000
01F000
01F000
01F000
01F000
01F000
01F000
01F000
01F000
01F000
01F000
01F000
ENDCHAR
STARTCHAR 012A
ENCODING 298
SWIDTH 278 0
DWIDTH 17 0
BBX 16 55 1 0
BITMAP
FFFF
FFFF
FFFF
FFFF
0000
0000
0000
0000
0000
0000
07E0
07E0
07E0
07E0
07E0
07E0
07E0
07E0
07E0
07E0
07E0
07E0
07E0
07E0
07E0
07E0
07E0
07E0
07E0
07E0
07E0
07E0
07E0
07E0
07E0
07E0
07E0
07E0
07E0
07E0
07E0
07E0
07E0
07E0
07E0
07E0
07E0
07E0
07E0
07E0
07E0
07E0
07E0
07E0
07E0
ENDCHAR
STARTCHAR 012B
ENCODING 299
SWIDTH 278 0
DWIDTH 17 0
BBX 15 43 1 0
BITMAP
FFFE
FFFE
FFFE
FFFE
0000
0000
0000
0000
0000
0000
0000
07C0
07C0
07C0
07C0
07C0
07C0
07C0
07C0
07C0
07C0
07C0
07C0
07C0
07C0
07C0
07C0
07C0
07C0
07C0
07C0
07C0
07C0
07C0
07C0
07C0
07C0
07C0
07C0
07C0
07C0
07C0
07C0
ENDCHAR
STARTCHAR 012C
ENCODING 300
SWIDTH 278 0
DWIDTH 17 0
BBX 19 57 -1 0
BITMAP
F001E0
F001C0
7803C0
7E0FC0
3FFF80
3FFF00
0FFE00
03F800
000000
000000
000000
000000
01F000
01F000
01F000
01F000
01F000
01F000
01F000
01F000
01F000
01F000
01F000
01F000
01F000
01F000
01F000
01F000
01F000
01F000
01F000
01F000
01F000
01F000
01F000
01F000
01F000
01F000
01F000
01F000
01F000
01F000
01F000
01F000
01F000
01F000
01F000
01F000
01F000
01F000
01F000
01F000
01F000
01F000
01F000
01F000
01F000
ENDCHAR
STARTCHAR 012D
ENCODING 301
SWIDTH 278 0
DWIDTH 17 0
BBX 19 45 -1 0
BITMAP
F001E0
F001C0
7803C0
7E0FC0
7FFF80
3FFF80
1FFF00
07FC00
000000
000000
000000
000000
000000
01F000
01F000
01F000
01F000
01F000
01F000
01F000
01F000
01F000
01F000
01F000
01F000
01F000
01F000
01F000
01F000
01F000
01F000
01F000
01F000
01F000
01F000
01F000
01F000
01F000
01F000
01F000
01F000
01F000
01F000
01F000
01F000
ENDCHAR
STARTCHAR 012E
ENCODING 302
SWIDTH 278 0
DWIDTH 17 0
BBX 10 58 4 -13
BITMAP
3F00
3F00
3F00
3F00
3F00
3F00
3F00
3F00
3F00
3F00
3F00
3F00
3F00
3F00
3F00
3F00
3F00
3F00
3F00
3F00
3F00
3F00
3F00
3F00
3F00
3F00
3F00
3F00
3F00
3F00
3F00
3F00
3F00
3F00
3F00
3F00
3F00
3F00
3F00
3F00
3F00
3F00
3F00
3F00
3F00
0E00
1C00
3C00
7800
7800
F800
F000
F800
F800
FC00
7FC0
3FC0
0780
ENDCHAR
STARTCHAR 012F
ENCODING 303
SWIDTH 229 0
DWIDTH 14 0
BBX 10 58 2 -13
BITMAP
3E00
3E00
3E00
3E00
3E00
3E00
0000
0000
0000
0000
0000
0000
0000
3E00
3E00
3E00
3E00
3E00
3E00
3E00
3E00
3E00
3E00
3E00
3E00
3E00
3E00
3E00
3E00
3E00
3E00
3E00
3E00
3E00
3E00
3E00
3E00
3E00
3E00
3E00
3E00
3E00
3E00
3E00
3E00
1E00
3C00
7800
7800
F000
F000
F000
F000
F000
F840
7FC0
3FC0
0F00
ENDCHAR
STARTCHAR 0130
ENCODING 304
SWIDTH 278 0
DWIDTH 17 0
BBX 6 56 6 0
BITMAP
FC
FC
FC
FC
FC
FC
00
00
00
00
00
FC
FC
FC
FC
FC
FC
FC
FC
FC
FC
FC
FC
FC
FC
FC
FC
FC
FC
FC
FC
FC
FC
FC
FC
FC
FC
FC
FC
FC
FC
FC
FC
FC
FC
FC
FC
FC
FC
FC
FC
FC
FC
FC
FC
FC
ENDCHAR
STARTCHAR 0131
ENCODING 305
SWIDTH 278 0
DWIDTH 17 0
BBX 5 32 6 0
BITMAP
F8
F8
F8
F8
F8
F8
F8
F8
F8
F8
F8
F8
F8
F8
F8
F8
F8
F8
F8
F8
F8
F8
F8
F8
F8
F8
F8
F8
F8
F8
F8
F8
ENDCHAR
STARTCHAR 0132
ENCODING 306
SWIDTH 736 0
DWIDTH 45 0
BBX 34 46 6 -1
BITMAP
FC00000FC0
FC00000FC0
FC00000FC0
FC00000FC0
FC00000FC0
FC00000FC0
FC00000FC0
FC00000FC0
FC00000FC0
FC00000FC0
FC00000FC0
FC00000FC0
FC00000FC0
FC00000FC0
FC00000FC0
FC00000FC0
FC00000FC0
FC00000FC0
FC00000FC0
FC00000FC0
FC00000FC0
FC00000FC0
FC00000FC0
FC00000FC0
FC00000FC0
FC00000FC0
FC00000FC0
FC00000FC0
FC00000FC0
FC00000FC0
FC7E000FC0
FC7E000FC0
FC7E000FC0
FC7E000FC0
FC7E000FC0
FC7E000FC0
FC7E000FC0
FC7F000FC0
FC3F001F80
FC3F803F80
FC1FC07F00
FC1FFFFF00
FC0FFFFE00
FC07FFFC00
FC01FFF000
00007FC000
ENDCHAR
STARTCHAR 0133
ENCODING 307
SWIDTH 441 0
DWIDTH 27 0
BBX 17 58 5 -13
BITMAP
F80F80
F80F80
F80F80
F80F80
F80F80
F80F80
000000
000000
000000
000000
000000
000000
000000
F80F80
F80F80
F80F80
F80F80
F80F80
F80F80
F80F80
F80F80
F80F80
F80F80
F80F80
F80F80
F80F80
F80F80
F80F80
F80F80
F80F80
F80F80
F80F80
F80F80
F80F80
F80F80
F80F80
F80F80
F80F80
F80F80
F80F80
F80F80
F80F80
F80F80
F80F80
F80F80
000F80
000F80
000F80
000F80
000F80
000F80
000F80
000F80
001F80
01FF80
01FF00
01FE00
01FC00
ENDCHAR
STARTCHAR 0134
ENCODING 308
SWIDTH 507 0
DWIDTH 31 0
BBX 30 59 1 -1
BITMAP
00003F80
00003F80
00007FC0
0000FFC0
0000F3E0
0001F1F0
0003E0F0
0003C078
0007803C
00000000
00000000
00000000
00000000
00001F80
00001F80
00001F80
00001F80
00001F80
00001F80
00001F80
00001F80
00001F80
00001F80
00001F80
00001F80
00001F80
00001F80
00001F80
00001F80
00001F80
00001F80
00001F80
00001F80
00001F80
00001F80
00001F80
00001F80
00001F80
00001F80
00001F80
00001F80
00001F80
00001F80
FC001F80
FC001F80
FC001F80
FC001F80
FC001F80
FC001F80
FC001F80
FE001F80
7E003F00
7F007F00
3F80FE00
3FFFFE00
1FFFFC00
0FFFF800
03FFE000
00FF0000
ENDCHAR
STARTCHAR 0135
ENCODING 309
SWIDTH 229 0
DWIDTH 14 0
BBX 17 59 -2 -13
BITMAP
07F000
07F000
0FF800
0F7C00
1F7C00
3E3E00
3C1E00
780F00
780780
F00780
000000
000000
000000
000000
03E000
03E000
03E000
03E000
03E000
03E000
03E000
03E000
03E000
03E000
03E000
03E000
03E000
03E000
03E000
03E000
03E000
03E000
03E000
03E000
03E000
03E000
03E000
03E000
03E000
03E000
03E000
03E000
03E000
03E000
03E000
03E000
03E000
03E000
03E000
03E000
03E000
03E000
03E000
03E000
07E000
7FE000
7FC000
7F8000
7F0000
ENDCHAR
STARTCHAR 0136
ENCODING 310
SWIDTH 670 0
DWIDTH 41 0
BBX 35 63 5 -18
BITMAP
FC00001FE0
FC00003FC0
FC00007F80
FC0000FF00
FC0001FE00
FC0003FC00
FC0007F800
FC000FF000
FC001FE000
FC003FC000
FC007F8000
FC00FF0000
FC00FE0000
FC01FC0000
FC03F80000
FC07F00000
FC0FE00000
FC1FC00000
FC3F800000
FC7FC00000
FCFFC00000
FDFFE00000
FFF7F00000
FFE3F00000
FFC1F80000
FF81FC0000
FF00FC0000
FE007E0000
FC007F0000
FC003F8000
FC001F8000
FC001FC000
FC000FE000
FC0007E000
FC0007F000
FC0003F800
FC0001F800
FC0001FC00
FC0000FE00
FC00007E00
FC00007F00
FC00003F80
FC00001F80
FC00001FC0
FC00000FE0
0000000000
0000000000
0000000000
0000000000
0007E00000
0007E00000
0007E00000
0007E00000
0007E00000
0007E00000
0000600000
0000600000
0000E00000
0000E00000
0001C00000
0007C00000
0007800000
0004000000
ENDCHAR
STARTCHAR 0137
ENCODING 311
SWIDTH 507 0
DWIDTH 31 0
BBX 26 63 4 -18
BITMAP
F8000000
F8000000
F8000000
F8000000
F8000000
F8000000
F8000000
F8000000
F8000000
F8000000
F8000000
F8000000
F8000000
F8003F00
F8007E00
F800FC00
F801F800
F803F000
F807E000
F80FC000
F81F8000
F83F0000
F87E0000
F8FC0000
F9FC0000
FBFE0000
FFFE0000
FFFF0000
FFBF0000
FF1F8000
FE1FC000
FC0FC000
F807E000
F807F000
F803F000
F803F800
F801F800
F800FC00
F800FE00
F8007E00
F8003F00
F8003F80
F8001F80
F8001FC0
F8000FC0
00000000
00000000
00000000
00000000
007E0000
007E0000
007E0000
007E0000
007E0000
007E0000
00060000
00060000
000E0000
000E0000
001C0000
007C0000
00780000
00400000
ENDCHAR
STARTCHAR 0138
ENCODING 312
SWIDTH 507 0
DWIDTH 31 0
BBX 24 31 3 0
BITMAP
E0003F
E0007C
E000F8
E001F0
E003E0
E007C0
E00F80
E01F00
E03E00
E07C00
E07800
E0F000
E1E000
E3F000
E7F800
EF7800
FE3C00
FC3E00
F81F00
F00F00
E00F80
E007C0
E003C0
E003E0
E001F0
E000F0
E000F8
E0007C
E0003E
E0003E
E0001F
ENDCHAR
STARTCHAR 0139
ENCODING 313
SWIDTH 556 0
DWIDTH 34 0
BBX 28 58 5 0
BITMAP
07F00000
0FE00000
0FC00000
1F800000
3F000000
3E000000
7C000000
F8000000
F0000000
00000000
00000000
00000000
00000000
FC000000
FC000000
FC000000
FC000000
FC000000
FC000000
FC000000
FC000000
FC000000
FC000000
FC000000
FC000000
FC000000
FC000000
FC000000
FC000000
FC000000
FC000000
FC000000
FC000000
FC000000
FC000000
FC000000
FC000000
FC000000
FC000000
FC000000
FC000000
FC000000
FC000000
FC000000
FC000000
FC000000
FC000000
FC000000
FC000000
FC000000
FC000000
FC000000
FC000000
FFFFFFF0
FFFFFFF0
FFFFFFF0
FFFFFFF0
FFFFFFF0
ENDCHAR
STARTCHAR 013A
ENCODING 314
SWIDTH 229 0
DWIDTH 14 0
BBX 12 58 4 0
BITMAP
07F0
07E0
0FC0
0F80
1F00
3E00
3C00
7800
F000
0000
0000
0000
0000
F800
F800
F800
F800
F800
F800
F800
F800
F800
F800
F800
F800
F800
F800
F800
F800
F800
F800
F800
F800
F800
F800
F800
F800
F800
F800
F800
F800
F800
F800
F800
F800
F800
F800
F800
F800
F800
F800
F800
F800
F800
F800
F800
F800
F800
ENDCHAR
STARTCHAR 013B
ENCODING 315
SWIDTH 556 0
DWIDTH 34 0
BBX 28 63 5 -18
BITMAP
FC000000
FC000000
FC000000
FC000000
FC000000
FC000000
FC000000
FC000000
FC000000
FC000000
FC000000
FC000000
FC000000
FC000000
FC000000
FC000000
FC000000
FC000000
FC000000
FC000000
FC000000
FC000000
FC000000
FC000000
FC000000
FC000000
FC000000
FC000000
FC000000
FC000000
FC000000
FC000000
FC000000
FC000000
FC000000
FC000000
FC000000
FC000000
FC000000
FC000000
FFFFFFF0
FFFFFFF0
FFFFFFF0
FFFFFFF0
FFFFFFF0
00000000
00000000
00000000
00000000
001F8000
001F8000
001F8000
001F8000
001F8000
001F8000
00038000
00038000
00038000
00030000
00070000
001E0000
001C0000
00100000
ENDCHAR
STARTCHAR 013C
ENCODING 316
SWIDTH 229 0
DWIDTH 14 0
BBX 6 63 4 -18
BITMAP
F8
F8
F8
F8
F8
F8
F8
F8
F8
F8
F8
F8
F8
F8
F8
F8
F8
F8
F8
F8
F8
F8
F8
F8
F8
F8
F8
F8
F8
F8
F8
F8
F8
F8
F8
F8
F8
F8
F8
F8
F8
F8
F8
F8
F8
00
00
00
00
FC
FC
FC
FC
FC
FC
1C
1C
1C
18
38
F0
E0
80
ENDCHAR
STARTCHAR 013D
ENCODING 317
SWIDTH 556 0
DWIDTH 34 0
BBX 28 45 5 0
BITMAP
FC0FC000
FC0FC000
FC0FC000
FC0FC000
FC0FC000
FC0FC000
FC01C000
FC01C000
FC01C000
FC018000
FC038000
FC0F0000
FC0E0000
FC0C0000
FC000000
FC000000
FC000000
FC000000
FC000000
FC000000
FC000000
FC000000
FC000000
FC000000
FC000000
FC000000
FC000000
FC000000
FC000000
FC000000
FC000000
FC000000
FC000000
FC000000
FC000000
FC000000
FC000000
FC000000
FC000000
FC000000
FFFFFFF0
FFFFFFF0
FFFFFFF0
FFFFFFF0
FFFFFFF0
ENDCHAR
STARTCHAR 013E
ENCODING 318
SWIDTH 294 0
DWIDTH 18 0
BBX 15 45 4 0
BITMAP
F87E
F87E
F87E
F87E
F87E
F87E
F80E
F80E
F80C
F81C
F81C
F878
F870
F860
F800
F800
F800
F800
F800
F800
F800
F800
F800
F800
F800
F800
F800
F800
F800
F800
F800
F800
F800
F800
F800
F800
F800
F800
F800
F800
F800
F800
F800
F800
F800
ENDCHAR
STARTCHAR 013F
ENCODING 319
SWIDTH 556 0
DWIDTH 34 0
BBX 28 45 5 0
BITMAP
FC000000
FC000000
FC000000
FC000000
FC000000
FC000000
FC000000
FC000000
FC000000
FC000000
FC000000
FC000000
FC000000
FC000000
FC000000
FC000000
FC000000
FC000000
FC000000
FC000000
FC00FC00
FC00FC00
FC00FC00
FC00FC00
FC00FC00
FC00FC00
FC000000
FC000000
FC000000
FC000000
FC000000
FC000000
FC000000
FC000000
FC000000
FC000000
FC000000
FC000000
FC000000
FC000000
FFFFFFF0
FFFFFFF0
FFFFFFF0
FFFFFFF0
FFFFFFF0
ENDCHAR
STARTCHAR 0140
ENCODING 320
SWIDTH 327 0
DWIDTH 20 0
BBX 15 45 5 0
BITMAP
F800
F800
F800
F800
F800
F800
F800
F800
F800
F800
F800
F800
F800
F800
F800
F800
F800
F800
F800
F800
F87E
F87E
F87E
F87E
F87E
F87E
F800
F800
F800
F800
F800
F800
F800
F800
F800
F800
F800
F800
F800
F800
F800
F800
F800
F800
F800
ENDCHAR
STARTCHAR 0141
ENCODING 321
SWIDTH 556 0
DWIDTH 34 0
BBX 34 45 0 0
BITMAP
07E0000000
07E0000000
07E0000000
07E0000000
07E0000000
07E0000000
07E0000000
07E0000000
07E0000000
07E0000000
07E0000000
07E0000000
07E0000000
07E0080000
07E0380000
07E0780000
07E1F80000
07E3F80000
07E7E00000
07FFC00000
07FF000000
07FE000000
07FC000000
0FF0000000
1FE0000000
7FE0000000
FFE0000000
FFE0000000
F7E0000000
C7E0000000
87E0000000
07E0000000
07E0000000
07E0000000
07E0000000
07E0000000
07E0000000
07E0000000
07E0000000
07E0000000
07FFFFFFC0
07FFFFFFC0
07FFFFFFC0
07FFFFFFC0
07FFFFFFC0
ENDCHAR
STARTCHAR 0142
ENCODING 322
SWIDTH 229 0
DWIDTH 14 0
BBX 13 45 0 0
BITMAP
0F80
0F80
0F80
0F80
0F80
0F80
0F80
0F80
0F80
0F80
0F80
0F80
0F80
0F80
0F80
0F80
0F88
0F98
0FB8
0FF8
0FF0
0FE0
1FC0
3F80
FF80
FF80
EF80
CF80
0F80
0F80
0F80
0F80
0F80
0F80
0F80
0F80
0F80
0F80
0F80
0F80
0F80
0F80
0F80
0F80
0F80
ENDCHAR
STARTCHAR 0143
ENCODING 323
SWIDTH 720 0
DWIDTH 44 0
BBX 34 58 5 0
BITMAP
00001F8000
00003F0000
00007E0000
00007C0000
0000F80000
0001F00000
0001E00000
0003C00000
0007800000
0000000000
0000000000
0000000000
0000000000
FC000007C0
FE000007C0
FE000007C0
FF000007C0
FF800007C0
FF800007C0
FFC00007C0
FFE00007C0
FFE00007C0
FBF00007C0
FBF00007C0
F9F80007C0
F8FC0007C0
F8FC0007C0
F87E0007C0
F87F0007C0
F83F0007C0
F81F8007C0
F81FC007C0
F80FC007C0
F807E007C0
F807E007C0
F803F007C0
F803F807C0
F801F807C0
F800FC07C0
F800FE07C0
F8007E07C0
F8003F07C0
F8003F07C0
F8001F87C0
F8000FC7C0
F8000FC7C0
F80007E7C0
F80007F7C0
F80003F7C0
F80001FFC0
F80001FFC0
F80000FFC0
F800007FC0
F800007FC0
F800003FC0
F800003FC0
F800001FC0
F800000FC0
ENDCHAR
STARTCHAR 0144
ENCODING 324
SWIDTH 556 0
DWIDTH 34 0
BBX 26 46 4 0
BITMAP
0001F800
0003F000
0007E000
0007E000
000FC000
000F8000
001F0000
003E0000
003C0000
00780000
00000000
00000000
00000000
000FE000
F83FFC00
F8FFFE00
F9FFFF00
FBFFFF80
FBC03F80
FF801FC0
FF000FC0
FE000FC0
FE0007C0
FC0007C0
FC0007C0
FC0007C0
FC0007C0
F80007C0
F80007C0
F80007C0
F80007C0
F80007C0
F80007C0
F80007C0
F80007C0
F80007C0
F80007C0
F80007C0
F80007C0
F80007C0
F80007C0
F80007C0
F80007C0
F80007C0
F80007C0
F80007C0
ENDCHAR
STARTCHAR 0145
ENCODING 325
SWIDTH 720 0
DWIDTH 44 0
BBX 34 63 5 -18
BITMAP
FC000007C0
FE000007C0
FE000007C0
FF000007C0
FF800007C0
FF800007C0
FFC00007C0
FFE00007C0
FFE00007C0
FBF00007C0
FBF00007C0
F9F80007C0
F8FC0007C0
F8FC0007C0
F87E0007C0
F87F0007C0
F83F0007C0
F81F8007C0
F81FC007C0
F80FC007C0
F807E007C0
F807E007C0
F803F007C0
F803F807C0
F801F807C0
F800FC07C0
F800FE07C0
F8007E07C0
F8003F07C0
F8003F07C0
F8001F87C0
F8000FC7C0
F8000FC7C0
F80007E7C0
F80007F7C0
F80003F7C0
F80001FFC0
F80001FFC0
F80000FFC0
F800007FC0
F800007FC0
F800003FC0
F800003FC0
F800001FC0
F800000FC0
0000000000
0000000000
0000000000
0000000000
0007E00000
0007E00000
0007E00000
0007E00000
0007E00000
0007E00000
0000600000
0000600000
0000E00000
0000E00000
0001C00000
0007C00000
0007800000
0004000000
ENDCHAR
STARTCHAR 0146
ENCODING 326
SWIDTH 556 0
DWIDTH 34 0
BBX 26 51 4 -18
BITMAP
000FE000
F83FFC00
F8FFFE00
F9FFFF00
FBFFFF80
FBC03F80
FF801FC0
FF000FC0
FE000FC0
FE0007C0
FC0007C0
FC0007C0
FC0007C0
FC0007C0
F80007C0
F80007C0
F80007C0
F80007C0
F80007C0
F80007C0
F80007C0
F80007C0
F80007C0
F80007C0
F80007C0
F80007C0
F80007C0
F80007C0
F80007C0
F80007C0
F80007C0
F80007C0
F80007C0
00000000
00000000
00000000
00000000
003F0000
003F0000
003F0000
003F0000
003F0000
003F0000
00070000
00070000
00070000
00070000
000E0000
003E0000
003C0000
00200000
ENDCHAR
STARTCHAR 0147
ENCODING 327
SWIDTH 720 0
DWIDTH 44 0
BBX 34 58 5 0
BITMAP
007803C000
0078078000
003C0F0000
003E1F0000
001F3E0000
000FFC0000
000FFC0000
0007F80000
0003F00000
0000000000
0000000000
0000000000
0000000000
FC000007C0
FE000007C0
FE000007C0
FF000007C0
FF800007C0
FF800007C0
FFC00007C0
FFE00007C0
FFE00007C0
FBF00007C0
FBF00007C0
F9F80007C0
F8FC0007C0
F8FC0007C0
F87E0007C0
F87F0007C0
F83F0007C0
F81F8007C0
F81FC007C0
F80FC007C0
F807E007C0
F807E007C0
F803F007C0
F803F807C0
F801F807C0
F800FC07C0
F800FE07C0
F8007E07C0
F8003F07C0
F8003F07C0
F8001F87C0
F8000FC7C0
F8000FC7C0
F80007E7C0
F80007F7C0
F80003F7C0
F80001FFC0
F80001FFC0
F80000FFC0
F800007FC0
F800007FC0
F800003FC0
F800003FC0
F800001FC0
F800000FC0
ENDCHAR
STARTCHAR 0148
ENCODING 328
SWIDTH 556 0
DWIDTH 34 0
BBX 26 46 4 0
BITMAP
07807800
07807800
03C0F000
03E1F000
01F3E000
00FBC000
00FFC000
007F8000
007F8000
003F0000
00000000
00000000
00000000
000FE000
F83FFC00
F8FFFE00
F9FFFF00
FBFFFF80
FBC03F80
FF801FC0
FF000FC0
FE000FC0
FE0007C0
FC0007C0
FC0007C0
FC0007C0
FC0007C0
F80007C0
F80007C0
F80007C0
F80007C0
F80007C0
F80007C0
F80007C0
F80007C0
F80007C0
F80007C0
F80007C0
F80007C0
F80007C0
F80007C0
F80007C0
F80007C0
F80007C0
F80007C0
F80007C0
ENDCHAR
STARTCHAR 0149
ENCODING 329
SWIDTH 605 0
DWIDTH 37 0
BBX 32 47 1 0
BITMAP
FC000000
FC000000
FC000000
FC000000
FC000000
FC000000
1C000000
1C000000
1C000000
18000000
38000000
F0000000
F0000000
C0000000
00003F80
03E0FFF0
03E3FFF8
03E7FFFC
03EFFFFE
03EF00FE
03FE007E
03FC003F
03F8003F
03F0003F
03F0001F
03F0001F
03F0001F
03E0001F
03E0001F
03E0001F
03E0001F
03E0001F
03E0001F
03E0001F
03E0001F
03E0001F
03E0001F
03E0001F
03E0001F
03E0001F
03E0001F
03E0001F
03E0001F
03E0001F
03E0001F
03E0001F
03E0001F
ENDCHAR
STARTCHAR 014A
ENCODING 330
SWIDTH 720 0
DWIDTH 44 0
BBX 33 64 6 -18
BITMAP
0001FE0000
F80FFFC000
F81FFFF000
F87FFFF800
F8FFFFFC00
F9FC07FE00
F9F001FF00
FBC0007F00
FF80003F00
FF00003F00
FF00003F80
FE00001F80
FE00001F80
FC00001F80
FC00001F80
FC00001F80
FC00001F80
FC00001F80
FC00001F80
F800001F80
F800001F80
F800001F80
F800001F80
F800001F80
F800001F80
F800001F80
F800001F80
F800001F80
F800001F80
F800001F80
F800001F80
F800001F80
F800001F80
F800001F80
F800001F80
F800001F80
F800001F80
F800001F80
F800001F80
F800001F80
F800001F80
F800001F80
F800001F80
F800001F80
F800001F80
F800001F80
0000001F80
0000001F80
0000001F80
0000001F80
0000001F80
0000001F80
0000001F80
0000001F80
0000001F80
0000001F80
0000001F80
0000003F00
0000007F00
00001FFF00
00001FFE00
00001FFC00
00001FF800
00001FE000
ENDCHAR
STARTCHAR 014B
ENCODING 331
SWIDTH 556 0
DWIDTH 34 0
BBX 26 47 4 -14
BITMAP
000FF000
F83FFC00
F87FFE00
F9FFFF00
F9FDFF80
FBC03F80
FF801FC0
FF000FC0
FE000FC0
FE0007C0
FC0007C0
FC0007C0
FC0007C0
FC0007C0
FC0007C0
F80007C0
F80007C0
F80007C0
F80007C0
F80007C0
F80007C0
F80007C0
F80007C0
F80007C0
F80007C0
F80007C0
F80007C0
F80007C0
F80007C0
F80007C0
F80007C0
F80007C0
F80007C0
000007C0
000007C0
000007C0
000007C0
000007C0
000007C0
000007C0
00000FC0
00001FC0
0001FF80
0001FF80
0001FF00
0001FE00
00004000
ENDCHAR
STARTCHAR 014C
ENCODING 332
SWIDTH 785 0
DWIDTH 48 0
BBX 43 57 2 -1
BITMAP
0007FFFC0000
0007FFFC0000
0007FFFC0000
0007FFFC0000
000000000000
000000000000
000000000000
000000000000
000000000000
000000000000
00007FE00000
0003FFFC0000
001FFFFF0000
003FFFFFC000
00FFFFFFE000
01FFC03FF800
03FE0007F800
07F80003FC00
07F00000FE00
0FE000007F00
1FC000003F00
1F8000003F80
3F8000001F80
3F0000000FC0
3F0000000FC0
7E0000000FC0
7E00000007E0
7E00000007E0
7C00000007E0
7C00000007E0
7C00000007E0
FC00000003E0
FC00000003E0
FC00000003E0
FC00000003E0
FC00000003E0
FC00000003E0
7C00000007E0
7E00000007E0
7E00000007E0
7E00000007E0
7E0000000FC0
3F0000000FC0
3F0000000FC0
3F8000001F80
1F8000003F80
1FC000003F00
0FE000007F00
07F00000FE00
07F80003FC00
03FE0007F800
01FFC03FF800
00FFFFFFE000
003FFFFFC000
001FFFFF0000
0007FFFC0000
00007FE00000
ENDCHAR
STARTCHAR 014D
ENCODING 333
SWIDTH 556 0
DWIDTH 34 0
BBX 29 44 2 -1
BITMAP
03FFFE00
03FFFE00
03FFFE00
03FFFE00
00000000
00000000
00000000
00000000
00000000
00000000
001FE000
00FFFC00
03FFFE00
07FFFF00
0FFFFF80
1FE03FC0
1F800FE0
3F0007E0
3F0003F0
7E0003F0
7E0001F0
7C0001F8
7C0001F8
FC0000F8
FC0000F8
FC0000F8
FC0000F8
FC0000F8
FC0000F8
FC0000F8
FC0000F8
7C0001F8
7C0001F8
7E0001F0
7E0003F0
3F0003F0
3F0007E0
1F800FE0
1FE03FC0
0FFFFF80
07FFFF00
03FFFE00
00FFF800
001FE000
ENDCHAR
STARTCHAR 014E
ENCODING 334
SWIDTH 785 0
DWIDTH 48 0
BBX 43 58 2 -1
BITMAP
0007001E0000
0007801E0000
0007803C0000
0007E0FC0000
0003FFF80000
0001FFF80000
0000FFE00000
00003F800000
000000000000
000000000000
000000000000
00007FE00000
0003FFFC0000
001FFFFF0000
003FFFFFC000
00FFFFFFE000
01FFC03FF800
03FE0007F800
07F80003FC00
07F00000FE00
0FE000007F00
1FC000003F00
1F8000003F80
3F8000001F80
3F0000000FC0
3F0000000FC0
7E0000000FC0
7E00000007E0
7E00000007E0
7C00000007E0
7C00000007E0
7C00000007E0
FC00000003E0
FC00000003E0
FC00000003E0
FC00000003E0
FC00000003E0
FC00000003E0
7C00000007E0
7E00000007E0
7E00000007E0
7E00000007E0
7E0000000FC0
3F0000000FC0
3F0000000FC0
3F8000001F80
1F8000003F80
1FC000003F00
0FE000007F00
07F00000FE00
07F80003FC00
03FE0007F800
01FFC03FF800
00FFFFFFE000
003FFFFFC000
001FFFFF0000
0007FFFC0000
00007FE00000
ENDCHAR
STARTCHAR 014F
ENCODING 335
SWIDTH 556 0
DWIDTH 34 0
BBX 29 46 2 -1
BITMAP
07800F00
03800F00
03C01E00
03F03E00
01FFFC00
01FFFC00
00FFF800
003FE000
00000000
00000000
00000000
00000000
001FE000
00FFFC00
03FFFE00
07FFFF00
0FFFFF80
1FE03FC0
1F800FE0
3F0007E0
3F0003F0
7E0003F0
7E0001F0
7C0001F8
7C0001F8
FC0000F8
FC0000F8
FC0000F8
FC0000F8
FC0000F8
FC0000F8
FC0000F8
FC0000F8
7C0001F8
7C0001F8
7E0001F0
7E0003F0
3F0003F0
3F0007E0
1F800FE0
1FE03FC0
0FFFFF80
07FFFF00
03FFFE00
00FFF800
001FE000
ENDCHAR
STARTCHAR 0150
ENCODING 336
SWIDTH 785 0
DWIDTH 48 0
BBX 43 59 2 -1
BITMAP
00000FE3F800
00001FC3F000
00001F87E000
00003F07C000
00007E0F8000
00007C1F0000
0000F81E0000
0001F03C0000
0001E0780000
000000000000
000000000000
000000000000
00007FE00000
0003FFFC0000
001FFFFF0000
003FFFFFC000
00FFFFFFE000
01FFC03FF800
03FE0007F800
07F80003FC00
07F00000FE00
0FE000007F00
1FC000003F00
1F8000003F80
3F8000001F80
3F0000000FC0
3F0000000FC0
7E0000000FC0
7E00000007E0
7E00000007E0
7C00000007E0
7C00000007E0
7C00000007E0
FC00000003E0
FC00000003E0
FC00000003E0
FC00000003E0
FC00000003E0
FC00000003E0
7C00000007E0
7E00000007E0
7E00000007E0
7E00000007E0
7E0000000FC0
3F0000000FC0
3F0000000FC0
3F8000001F80
1F8000003F80
1FC000003F00
0FE000007F00
07F00000FE00
07F80003FC00
03FE0007F800
01FFC03FF800
00FFFFFFE000
003FFFFFC000
001FFFFF0000
0007FFFC0000
00007FE00000
ENDCHAR
STARTCHAR 0151
ENCODING 337
SWIDTH 556 0
DWIDTH 34 0
BBX 30 47 2 -1
BITMAP
000FE1FC
000FC3F8
001F83F0
001F07E0
003E07C0
007C0F80
00781F00
00F01E00
01F03C00
01E07800
00000000
00000000
00000000
001FE000
00FFFC00
03FFFE00
07FFFF00
0FFFFF80
1FE03FC0
1F800FE0
3F0007E0
3F0003F0
7E0003F0
7E0001F0
7C0001F8
7C0001F8
FC0000F8
FC0000F8
FC0000F8
FC0000F8
FC0000F8
FC0000F8
FC0000F8
FC0000F8
7C0001F8
7C0001F8
7E0001F0
7E0003F0
3F0003F0
3F0007E0
1F800FE0
1FE03FC0
0FFFFF80
07FFFF00
03FFFE00
00FFF800
001FE000
ENDCHAR
STARTCHAR 0152
ENCODING 338
SWIDTH 998 0
DWIDTH 61 0
BBX 56 47 3 -1
BITMAP
0003FC00000000
001FFF87FFFFFE
007FFFC7FFFFFE
01FFFFE7FFFFFE
03FFFFF7FFFFFE
07FC03FFFFFFFE
0FF000FFE00000
0FE0007FE00000
1F80003FE00000
1F80001FE00000
3F00000FE00000
3F000007E00000
7E000007E00000
7E000007E00000
7C000007E00000
7C000007E00000
FC000007E00000
FC000007E00000
FC000007E00000
F8000007E00000
F8000007E00000
F8000007FFFFFE
F8000007FFFFFE
F8000007FFFFFE
F8000007FFFFFE
F8000007FFFFFE
F8000007E00000
F8000007E00000
FC000007E00000
FC000007E00000
FC000007E00000
FC000007E00000
7C000007E00000
7E000007E00000
7E000007E00000
7F000007E00000
3F00000FE00000
3F80001FE00000
1FC0003FE00000
0FE0007FE00000
0FF000FFE00000
07FC03FFFFFFFF
03FFFFF7FFFFFF
01FFFFE7FFFFFF
007FFFC7FFFFFF
003FFF07FFFFFF
0007FC00000000
ENDCHAR
STARTCHAR 0153
ENCODING 339
SWIDTH 949 0
DWIDTH 58 0
BBX 53 34 2 -1
BITMAP
001FE0001FE000
00FFFC00FFF800
03FFFE01FFFE00
07FFFF87FFFF00
0FFFFFCFFFFF80
1FE01FCFE03FC0
1FC00FFF800FE0
3F8007FF0007E0
3F0003FE0003F0
7E0001FE0003F0
7E0001FC0001F0
7C0001FC0001F8
7C0000FC0001F8
7C0000FC0001F8
7C0000FFFFFFF8
FC0000FFFFFFF8
FC0000FFFFFFF8
FC0000FFFFFFF8
7C0000F8000000
7C0000F8000000
7C0000FC000000
7C0000FC000000
7E0001FC000000
7E0001FC0001F0
3E0001FE0003F0
3F0003FE0003F0
3F8007FF0007E0
1FC00FFF800FE0
1FE01FDFE01FC0
0FFFFF8FFFFF80
07FFFF87FFFF00
03FFFE03FFFE00
00FFFC00FFF800
001FE0001FE000
ENDCHAR
STARTCHAR 0154
ENCODING 340
SWIDTH 720 0
DWIDTH 44 0
BBX 35 58 6 0
BITMAP
00007F0000
00007E0000
0000FC0000
0001F80000
0001F00000
0003E00000
0007C00000
0007800000
000F000000
0000000000
0000000000
0000000000
0000000000
FFFFFF8000
FFFFFFF000
FFFFFFFC00
FFFFFFFE00
FFFFFFFF00
F80001FF00
F800007F80
F800003F80
F800001F80
F800001FC0
F800000FC0
F800000FC0
F800000FC0
F800000FC0
F800000FC0
F800000F80
F800001F80
F800001F80
F800003F00
F800007F00
F80001FE00
FFFFFFFC00
FFFFFFF000
FFFFFFE000
FFFFFFF800
FFFFFFFE00
F80001FE00
F800007F00
F800003F00
F800001F00
F800001F80
F800001F80
F800001F80
F800001F80
F800001F80
F800001F80
F800001F80
F800001F80
F800001F80
F800001F80
F800001F80
F800000FC0
F800000FC0
F800000FE0
F800000FE0
ENDCHAR
STARTCHAR 0155
ENCODING 341
SWIDTH 327 0
DWIDTH 20 0
BBX 16 46 4 0
BITMAP
007F
00FE
00FC
01F8
01F0
03E0
07C0
0780
0F00
1E00
0000
0000
0000
001F
F87F
F8FF
F9FF
FBFF
FBFC
FFC0
FF00
FE00
FE00
FC00
FC00
FC00
FC00
F800
F800
F800
F800
F800
F800
F800
F800
F800
F800
F800
F800
F800
F800
F800
F800
F800
F800
F800
ENDCHAR
STARTCHAR 0156
ENCODING 342
SWIDTH 720 0
DWIDTH 44 0
BBX 35 63 6 -18
BITMAP
FFFFFF8000
FFFFFFF000
FFFFFFFC00
FFFFFFFE00
FFFFFFFF00
F80001FF00
F800007F80
F800003F80
F800001F80
F800001FC0
F800000FC0
F800000FC0
F800000FC0
F800000FC0
F800000FC0
F800000F80
F800001F80
F800001F80
F800003F00
F800007F00
F80001FE00
FFFFFFFC00
FFFFFFF000
FFFFFFE000
FFFFFFF800
FFFFFFFE00
F80001FE00
F800007F00
F800003F00
F800001F00
F800001F80
F800001F80
F800001F80
F800001F80
F800001F80
F800001F80
F800001F80
F800001F80
F800001F80
F800001F80
F800001F80
F800000FC0
F800000FC0
F800000FE0
F800000FE0
0000000000
0000000000
0000000000
0000000000
0007F00000
0007F00000
0007F00000
0007F00000
0007F00000
0007F00000
0000700000
0000700000
0000600000
0000E00000
0000E00000
0007C00000
0007800000
0006000000
ENDCHAR
STARTCHAR 0157
ENCODING 343
SWIDTH 327 0
DWIDTH 20 0
BBX 16 51 4 -18
BITMAP
001F
F87F
F8FF
F9FF
FBFF
FBFC
FFC0
FF00
FE00
FE00
FC00
FC00
FC00
FC00
F800
F800
F800
F800
F800
F800
F800
F800
F800
F800
F800
F800
F800
F800
F800
F800
F800
F800
F800
0000
0000
0000
0000
FC00
FC00
FC00
FC00
FC00
FC00
1C00
1C00
1C00
1C00
3800
F000
F000
8000
ENDCHAR
STARTCHAR 0158
ENCODING 344
SWIDTH 720 0
DWIDTH 44 0
BBX 35 58 6 0
BITMAP
01E00F0000
00F01F0000
00781E0000
007C3C0000
003E7C0000
003EF80000
001FF00000
000FF00000
000FE00000
0000000000
0000000000
0000000000
0000000000
FFFFFF8000
FFFFFFF000
FFFFFFFC00
FFFFFFFE00
FFFFFFFF00
F80001FF00
F800007F80
F800003F80
F800001F80
F800001FC0
F800000FC0
F800000FC0
F800000FC0
F800000FC0
F800000FC0
F800000F80
F800001F80
F800001F80
F800003F00
F800007F00
F80001FE00
FFFFFFFC00
FFFFFFF000
FFFFFFE000
FFFFFFF800
FFFFFFFE00
F80001FE00
F800007F00
F800003F00
F800001F00
F800001F80
F800001F80
F800001F80
F800001F80
F800001F80
F800001F80
F800001F80
F800001F80
F800001F80
F800001F80
F800001F80
F800000FC0
F800000FC0
F800000FE0
F800000FE0
ENDCHAR
STARTCHAR 0159
ENCODING 345
SWIDTH 327 0
DWIDTH 20 0
BBX 17 46 3 0
BITMAP
F00780
780F80
7C0F00
3E1E00
1E3E00
1F7C00
0FFC00
0FF800
07F000
03F000
000000
000000
000000
000F80
7C3F80
7C7F80
7CFF80
7DFF80
7DFE00
7FE000
7F8000
7F0000
7F0000
7E0000
7E0000
7E0000
7E0000
7C0000
7C0000
7C0000
7C0000
7C0000
7C0000
7C0000
7C0000
7C0000
7C0000
7C0000
7C0000
7C0000
7C0000
7C0000
7C0000
7C0000
7C0000
7C0000
ENDCHAR
STARTCHAR 015A
ENCODING 346
SWIDTH 670 0
DWIDTH 41 0
BBX 35 59 3 -1
BITMAP
00001FC000
00003F0000
00007E0000
00007C0000
0000F80000
0001F00000
0001E00000
0003C00000
0003800000
0000000000
0000000000
0000000000
000FFC0000
007FFFC000
01FFFFF000
03FFFFF800
07FFFFFC00
0FF003FE00
1FC000FF00
3F80003F00
3F00003F80
3F00001F80
3E00001F80
7E00000F80
7E00000F80
7E00000F80
7E00000000
7F00000000
3F80000000
3FC0000000
3FF8000000
1FFF000000
0FFFF00000
07FFFF0000
01FFFFE000
003FFFF800
0007FFFE00
00007FFF00
000007FF80
000000FF80
0000003FC0
0000001FC0
0000000FE0
F8000007E0
F8000007E0
F8000007E0
FC000007E0
FC000007E0
7C000007E0
7E00000FC0
7F00000FC0
3F80001F80
3FE0007F80
1FF801FF00
0FFFFFFE00
07FFFFFC00
01FFFFF800
007FFFE000
000FFE0000
ENDCHAR
STARTCHAR 015B
ENCODING 347
SWIDTH 507 0
DWIDTH 31 0
BBX 26 47 2 -1
BITMAP
0003F800
0003F000
0007E000
0007C000
000F8000
001F0000
001F0000
003E0000
003C0000
00780000
00000000
00000000
00000000
007F8000
03FFF000
0FFFFC00
1FFFFE00
1FFFFE00
3F807F00
7E003F00
7E001F80
7C001F80
7C001F80
7C000000
7E000000
7F000000
3FC00000
3FFC0000
1FFFC000
07FFF800
01FFFE00
003FFF00
0003FF80
00003F80
00001FC0
00000FC0
FC0007C0
FC0007C0
FC0007C0
7C000FC0
7E001F80
7F803F80
3FFFFF00
1FFFFE00
0FFFFC00
07FFF000
00FF8000
ENDCHAR
STARTCHAR 015C
ENCODING 348
SWIDTH 670 0
DWIDTH 41 0
BBX 35 59 3 -1
BITMAP
0003F80000
0007F80000
0007FC0000
000FFC0000
001F3E0000
001E1F0000
003C0F0000
007C078000
007803C000
0000000000
0000000000
0000000000
000FFC0000
007FFFC000
01FFFFF000
03FFFFF800
07FFFFFC00
0FF003FE00
1FC000FF00
3F80003F00
3F00003F80
3F00001F80
3E00001F80
7E00000F80
7E00000F80
7E00000F80
7E00000000
7F00000000
3F80000000
3FC0000000
3FF8000000
1FFF000000
0FFFF00000
07FFFF0000
01FFFFE000
003FFFF800
0007FFFE00
00007FFF00
000007FF80
000000FF80
0000003FC0
0000001FC0
0000000FE0
F8000007E0
F8000007E0
F8000007E0
FC000007E0
FC000007E0
7C000007E0
7E00000FC0
7F00000FC0
3F80001F80
3FE0007F80
1FF801FF00
0FFFFFFE00
07FFFFFC00
01FFFFF800
007FFFE000
000FFE0000
ENDCHAR
STARTCHAR 015D
ENCODING 349
SWIDTH 507 0
DWIDTH 31 0
BBX 26 47 2 -1
BITMAP
003F0000
007F8000
007FC000
00FFC000
00F3E000
01F1F000
03E0F000
03C0F800
07807800
07803C00
00000000
00000000
00000000
007F8000
03FFF000
0FFFFC00
1FFFFE00
1FFFFE00
3F807F00
7E003F00
7E001F80
7C001F80
7C001F80
7C000000
7E000000
7F000000
3FC00000
3FFC0000
1FFFC000
07FFF800
01FFFE00
003FFF00
0003FF80
00003F80
00001FC0
00000FC0
FC0007C0
FC0007C0
FC0007C0
7C000FC0
7E001F80
7F803F80
3FFFFF00
1FFFFE00
0FFFFC00
07FFF000
00FF8000
ENDCHAR
STARTCHAR 015E
ENCODING 350
SWIDTH 670 0
DWIDTH 41 0
BBX 35 59 3 -13
BITMAP
0007FE0000
007FFFC000
01FFFFF000
03FFFFF800
07FFFFFC00
0FF003FE00
1FC000FF00
1F80003F00
3F00001F80
3F00001F80
3E00000F80
3E00000FC0
7E00000FC0
7E00000FC0
3F00000000
3F00000000
3F80000000
3FC0000000
1FF8000000
1FFF000000
0FFFF00000
07FFFF0000
01FFFFE000
003FFFF800
0007FFFE00
00007FFF00
000007FF80
000000FFC0
0000003FC0
0000001FE0
0000000FE0
FC000007E0
FC000007E0
FC000007E0
FC000007E0
FC000007E0
7E000007E0
7E000007C0
3F00000FC0
3F80001FC0
1FE0003F80
1FF801FF00
0FFFFFFE00
07FFFFFC00
01FFFFF800
007FFFE000
000FFE0000
0001800000
0001800000
0003F80000
0003FE0000
00027E0000
00003E0000
00001E0000
00401E0000
00703E0000
00FFFC0000
007FF80000
000FE00000
ENDCHAR
STARTCHAR 015F
ENCODING 351
SWIDTH 507 0
DWIDTH 31 0
BBX 26 46 2 -13
BITMAP
007F8000
03FFF000
07FFFC00
1FFFFE00
1FFFFE00
3F807F00
7E003F00
7E001F80
7C001F80
7C001F80
7C000000
7E000000
7F000000
3FC00000
3FF80000
1FFF8000
0FFFF000
03FFFC00
00FFFF00
000FFF80
0000FF80
00001FC0
00000FC0
00000FC0
FC0007C0
FC0007C0
FC000FC0
7E000FC0
7F001F80
7FC07F80
3FFFFF00
1FFFFE00
0FFFFC00
03FFF000
003F0000
00380000
00300000
007F8000
007FC000
0007E000
0003E000
0003E000
0E07C000
0FFFC000
07FF8000
01FC0000
ENDCHAR
STARTCHAR 0160
ENCODING 352
SWIDTH 670 0
DWIDTH 41 0
BBX 35 59 3 -1
BITMAP
007803C000
003C078000
003E0F0000
001F1F0000
000F3E0000
000FBC0000
0007FC0000
0007F80000
0003F80000
0000000000
0000000000
0000000000
000FFC0000
007FFFC000
01FFFFF000
03FFFFF800
07FFFFFC00
0FF003FE00
1FC000FF00
3F80003F00
3F00003F80
3F00001F80
3E00001F80
7E00000F80
7E00000F80
7E00000F80
7E00000000
7F00000000
3F80000000
3FC0000000
3FF8000000
1FFF000000
0FFFF00000
07FFFF0000
01FFFFE000
003FFFF800
0007FFFE00
00007FFF00
000007FF80
000000FF80
0000003FC0
0000001FC0
0000000FE0
F8000007E0
F8000007E0
F8000007E0
FC000007E0
FC000007E0
7C000007E0
7E00000FC0
7F00000FC0
3F80001F80
3FE0007F80
1FF801FF00
0FFFFFFE00
07FFFFFC00
01FFFFF800
007FFFE000
000FFE0000
ENDCHAR
STARTCHAR 0161
ENCODING 353
SWIDTH 507 0
DWIDTH 31 0
BBX 26 47 2 -1
BITMAP
07803C00
07807800
03C0F000
03E1F000
01F3E000
00FBC000
00FFC000
007F8000
007F8000
003F0000
00000000
00000000
00000000
007F8000
03FFF000
0FFFFC00
1FFFFE00
1FFFFE00
3F807F00
7E003F00
7E001F80
7C001F80
7C001F80
7C000000
7E000000
7F000000
3FC00000
3FFC0000
1FFFC000
07FFF800
01FFFE00
003FFF00
0003FF80
00003F80
00001FC0
00000FC0
FC0007C0
FC0007C0
FC0007C0
7C000FC0
7E001F80
7F803F80
3FFFFF00
1FFFFE00
0FFFFC00
07FFF000
00FF8000
ENDCHAR
STARTCHAR 0162
ENCODING 354
SWIDTH 605 0
DWIDTH 37 0
BBX 35 58 1 -13
BITMAP
FFFFFFFFE0
FFFFFFFFE0
FFFFFFFFE0
FFFFFFFFE0
FFFFFFFFE0
0001F80000
0001F80000
0001F80000
0001F80000
0001F80000
0001F80000
0001F80000
0001F80000
0001F80000
0001F80000
0001F80000
0001F80000
0001F80000
0001F80000
0001F80000
0001F80000
0001F80000
0001F80000
0001F80000
0001F80000
0001F80000
0001F80000
0001F80000
0001F80000
0001F80000
0001F80000
0001F80000
0001F80000
0001F80000
0001F80000
0001F80000
0001F80000
0001F80000
0001F80000
0001F80000
0001F80000
0001F80000
0001F80000
0001F80000
0001F80000
0000300000
0000700000
0000600000
0000FC0000
0000FF0000
0001FF8000
00000F8000
0000078000
0000078000
001C0F8000
003FFF0000
001FFE0000
0003F80000
ENDCHAR
STARTCHAR 0163
ENCODING 355
SWIDTH 278 0
DWIDTH 17 0
BBX 15 53 1 -13
BITMAP
0F80
0F80
0F80
0F80
0F80
0F80
0F80
0F80
0F80
FFFE
FFFE
FFFE
FFFE
0F80
0F80
0F80
0F80
0F80
0F80
0F80
0F80
0F80
0F80
0F80
0F80
0F80
0F80
0F80
0F80
0F80
0F80
0F80
0F80
0F80
0F80
0F80
0FC0
0FF6
0FFE
07FE
03FE
01FE
0380
0300
07F8
07FC
047E
003E
003E
403E
F07C
FFF8
3FF0
ENDCHAR
STARTCHAR 0164
ENCODING 356
SWIDTH 605 0
DWIDTH 37 0
BBX 35 58 1 0
BITMAP
007803C000
003C07C000
001E078000
001F0F0000
000F9F0000
000FBE0000
0007FC0000
0003FC0000
0003F80000
0000000000
0000000000
0000000000
0000000000
FFFFFFFFE0
FFFFFFFFE0
FFFFFFFFE0
FFFFFFFFE0
FFFFFFFFE0
0001F80000
0001F80000
0001F80000
0001F80000
0001F80000
0001F80000
0001F80000
0001F80000
0001F80000
0001F80000
0001F80000
0001F80000
0001F80000
0001F80000
0001F80000
0001F80000
0001F80000
0001F80000
0001F80000
0001F80000
0001F80000
0001F80000
0001F80000
0001F80000
0001F80000
0001F80000
0001F80000
0001F80000
0001F80000
0001F80000
0001F80000
0001F80000
0001F80000
0001F80000
0001F80000
0001F80000
0001F80000
0001F80000
0001F80000
0001F80000
ENDCHAR
STARTCHAR 0165
ENCODING 357
SWIDTH 310 0
DWIDTH 19 0
BBX 19 50 1 -1
BITMAP
000FE0
000FE0
000FE0
000FE0
000FE0
000FE0
0000E0
0000E0
0F80C0
0F81C0
0F81C0
0F8F80
0F8F00
0F8C00
0F8000
0F8000
0F8000
FFFE00
FFFE00
FFFE00
FFFE00
0F8000
0F8000
0F8000
0F8000
0F8000
0F8000
0F8000
0F8000
0F8000
0F8000
0F8000
0F8000
0F8000
0F8000
0F8000
0F8000
0F8000
0F8000
0F8000
0F8000
0F8000
0F8000
0F8000
0FC000
0FF600
0FFE00
07FE00
03FE00
01FE00
ENDCHAR
STARTCHAR 0166
ENCODING 358
SWIDTH 605 0
DWIDTH 37 0
BBX 35 45 1 0
BITMAP
FFFFFFFFE0
FFFFFFFFE0
FFFFFFFFE0
FFFFFFFFE0
FFFFFFFFE0
0001F80000
0001F80000
0001F80000
0001F80000
0001F80000
0001F80000
0001F80000
0001F80000
0001F80000
0001F80000
0001F80000
07FFFFFC00
07FFFFFC00
07FFFFFC00
07FFFFFC00
0001F80000
0001F80000
0001F80000
0001F80000
0001F80000
0001F80000
0001F80000
0001F80000
0001F80000
0001F80000
0001F80000
0001F80000
0001F80000
0001F80000
0001F80000
0001F80000
0001F80000
0001F80000
0001F80000
0001F80000
0001F80000
0001F80000
0001F80000
0001F80000
0001F80000
ENDCHAR
STARTCHAR 0167
ENCODING 359
SWIDTH 278 0
DWIDTH 17 0
BBX 15 42 1 -1
BITMAP
0F80
0F80
0F80
0F80
0F80
0F80
0F80
0F80
0F80
FFFE
FFFE
FFFE
FFFE
0F80
0F80
0F80
0F80
0F80
FFFC
FFFC
FFFC
0F80
0F80
0F80
0F80
0F80
0F80
0F80
0F80
0F80
0F80
0F80
0F80
0F80
0F80
0F80
0FC0
0FF6
0FFE
07FE
03FE
01FE
ENDCHAR
STARTCHAR 0168
ENCODING 360
SWIDTH 720 0
DWIDTH 44 0
BBX 34 57 5 -1
BITMAP
003F01C000
007FE3C000
00FFFFC000
00FFFF8000
00F1FF8000
01E03E0000
0000000000
0000000000
0000000000
0000000000
0000000000
FC000007C0
FC000007C0
FC000007C0
FC000007C0
FC000007C0
FC000007C0
FC000007C0
FC000007C0
FC000007C0
FC000007C0
FC000007C0
FC000007C0
FC000007C0
FC000007C0
FC000007C0
FC000007C0
FC000007C0
FC000007C0
FC000007C0
FC000007C0
FC000007C0
FC000007C0
FC000007C0
FC000007C0
FC000007C0
FC000007C0
FC000007C0
FC000007C0
FC000007C0
FC000007C0
FC000007C0
FC000007C0
FC000007C0
FC000007C0
FC00000FC0
7E00000FC0
7E00001FC0
7F00001F80
3F80003F80
3FE000FF00
1FF803FE00
0FFFFFFC00
07FFFFF800
01FFFFF000
007FFFC000
000FFC0000
ENDCHAR
STARTCHAR 0169
ENCODING 361
SWIDTH 556 0
DWIDTH 34 0
BBX 25 45 4 -1
BITMAP
03E01C00
07FC3C00
0FFFFC00
0FFFF800
0F1FF800
1E03F000
00000000
00000000
00000000
00000000
00000000
00000000
F8000F80
F8000F80
F8000F80
F8000F80
F8000F80
F8000F80
F8000F80
F8000F80
F8000F80
F8000F80
F8000F80
F8000F80
F8000F80
F8000F80
F8000F80
F8000F80
F8000F80
F8000F80
F8000F80
F8000F80
F8000F80
F8000F80
F8000F80
F8001F80
F8001F80
FC003F80
FE007F80
7F00FF80
7FEFF780
3FFFE780
1FFFC780
0FFF8780
03FE0000
ENDCHAR
STARTCHAR 016A
ENCODING 362
SWIDTH 720 0
DWIDTH 44 0
BBX 34 56 5 -1
BITMAP
007FFFC000
007FFFC000
007FFFC000
007FFFC000
0000000000
0000000000
0000000000
0000000000
0000000000
0000000000
FC000007C0
FC000007C0
FC000007C0
FC000007C0
FC000007C0
FC000007C0
FC000007C0
FC000007C0
FC000007C0
FC000007C0
FC000007C0
FC000007C0
FC000007C0
FC000007C0
FC000007C0
FC000007C0
FC000007C0
FC000007C0
FC000007C0
FC000007C0
FC000007C0
FC000007C0
FC000007C0
FC000007C0
FC000007C0
FC000007C0
FC000007C0
FC000007C0
FC000007C0
FC000007C0
FC000007C0
FC000007C0
FC000007C0
FC000007C0
FC00000FC0
7E00000FC0
7E00001FC0
7F00001F80
3F80003F80
3FE000FF00
1FF803FE00
0FFFFFFC00
07FFFFF800
01FFFFF000
007FFFC000
000FFC0000
ENDCHAR
STARTCHAR 016B
ENCODING 363
SWIDTH 556 0
DWIDTH 34 0
BBX 25 44 4 -1
BITMAP
0FFFF800
0FFFF800
0FFFF800
0FFFF800
00000000
00000000
00000000
00000000
00000000
00000000
00000000
F8000F80
F8000F80
F8000F80
F8000F80
F8000F80
F8000F80
F8000F80
F8000F80
F8000F80
F8000F80
F8000F80
F8000F80
F8000F80
F8000F80
F8000F80
F8000F80
F8000F80
F8000F80
F8000F80
F8000F80
F8000F80
F8000F80
F8000F80
F8001F80
F8001F80
FC003F80
FE007F80
7F00FF80
7FEFF780
3FFFE780
1FFFC780
0FFF8780
03FE0000
ENDCHAR
STARTCHAR 016C
ENCODING 364
SWIDTH 720 0
DWIDTH 44 0
BBX 34 58 5 -1
BITMAP
00F003C000
00F003C000
00F807C000
00FE1F8000
007FFF8000
003FFF0000
001FFE0000
0007F80000
0000000000
0000000000
0000000000
0000000000
FC000007C0
FC000007C0
FC000007C0
FC000007C0
FC000007C0
FC000007C0
FC000007C0
FC000007C0
FC000007C0
FC000007C0
FC000007C0
FC000007C0
FC000007C0
FC000007C0
FC000007C0
FC000007C0
FC000007C0
FC000007C0
FC000007C0
FC000007C0
FC000007C0
FC000007C0
FC000007C0
FC000007C0
FC000007C0
FC000007C0
FC000007C0
FC000007C0
FC000007C0
FC000007C0
FC000007C0
FC000007C0
FC000007C0
FC000007C0
FC00000FC0
7E00000FC0
7E00001FC0
7F00001F80
3F80003F80
3FE000FF00
1FF803FE00
0FFFFFFC00
07FFFFF800
01FFFFF000
007FFFC000
000FFC0000
ENDCHAR
STARTCHAR 016D
ENCODING 365
SWIDTH 556 0
DWIDTH 34 0
BBX 25 46 4 -1
BITMAP
0E001C00
0F003C00
0F807C00
0FC0F800
07FFF800
03FFF000
01FFE000
007F8000
00000000
00000000
00000000
00000000
00000000
F8000F80
F8000F80
F8000F80
F8000F80
F8000F80
F8000F80
F8000F80
F8000F80
F8000F80
F8000F80
F8000F80
F8000F80
F8000F80
F8000F80
F8000F80
F8000F80
F8000F80
F8000F80
F8000F80
F8000F80
F8000F80
F8000F80
F8000F80
F8001F80
F8001F80
FC003F80
FE007F80
7F00FF80
7FEFF780
3FFFE780
1FFFC780
0FFF8780
03FE0000
ENDCHAR
STARTCHAR 016E
ENCODING 366
SWIDTH 720 0
DWIDTH 44 0
BBX 34 60 5 -1
BITMAP
0000C00000
0003F80000
0007FC0000
000F1C0000
000E0E0000
000E0E0000
000E0E0000
000E1C0000
0007FC0000
0003F80000
0001F00000
0000000000
0000000000
0000000000
FC000007C0
FC000007C0
FC000007C0
FC000007C0
FC000007C0
FC000007C0
FC000007C0
FC000007C0
FC000007C0
FC000007C0
FC000007C0
FC000007C0
FC000007C0
FC000007C0
FC000007C0
FC000007C0
FC000007C0
FC000007C0
FC000007C0
FC000007C0
FC000007C0
FC000007C0
FC000007C0
FC000007C0
FC000007C0
FC000007C0
FC000007C0
FC000007C0
FC000007C0
FC000007C0
FC000007C0
FC000007C0
FC000007C0
FC000007C0
FC00000FC0
7E00000FC0
7E00001FC0
7F00001F80
3F80003F80
3FE000FF00
1FF803FE00
0FFFFFFC00
07FFFFF800
01FFFFF000
007FFFC000
000FFC0000
ENDCHAR
STARTCHAR 016F
ENCODING 367
SWIDTH 556 0
DWIDTH 34 0
BBX 25 47 4 -1
BITMAP
001E0000
007F0000
00FF8000
00E1C000
01C1C000
01C1C000
01C1C000
00E3C000
00FF8000
007F0000
000C0000
00000000
00000000
00000000
F8000F80
F8000F80
F8000F80
F8000F80
F8000F80
F8000F80
F8000F80
F8000F80
F8000F80
F8000F80
F8000F80
F8000F80
F8000F80
F8000F80
F8000F80
F8000F80
F8000F80
F8000F80
F8000F80
F8000F80
F8000F80
F8000F80
F8000F80
F8001F80
F8001F80
FC003F80
FE007F80
7F00FF80
7FEFF780
3FFFE780
1FFFC780
0FFF8780
03FE0000
ENDCHAR
STARTCHAR 0170
ENCODING 368
SWIDTH 720 0
DWIDTH 44 0
BBX 34 59 5 -1
BITMAP
0001FC3F00
0003F87E00
0003F0FC00
0007E0F800
000FC1F000
000F83E000
001F03C000
003E078000
003C0F0000
0000000000
0000000000
0000000000
0000000000
FC000007C0
FC000007C0
FC000007C0
FC000007C0
FC000007C0
FC000007C0
FC000007C0
FC000007C0
FC000007C0
FC000007C0
FC000007C0
FC000007C0
FC000007C0
FC000007C0
FC000007C0
FC000007C0
FC000007C0
FC000007C0
FC000007C0
FC000007C0
FC000007C0
FC000007C0
FC000007C0
FC000007C0
FC000007C0
FC000007C0
FC000007C0
FC000007C0
FC000007C0
FC000007C0
FC000007C0
FC000007C0
FC000007C0
FC000007C0
FC00000FC0
7E00000FC0
7E00001FC0
7F00001F80
3F80003F80
3FE000FF00
1FF803FE00
0FFFFFFC00
07FFFFF800
01FFFFF000
007FFFC000
000FFC0000
ENDCHAR
STARTCHAR 0171
ENCODING 369
SWIDTH 556 0
DWIDTH 34 0
BBX 28 47 4 -1
BITMAP
001F87F0
003F07E0
007E0FC0
007C1F80
00F81F00
01F03E00
01E07C00
03C07800
0780F000
00000000
00000000
00000000
00000000
00000000
F8000F80
F8000F80
F8000F80
F8000F80
F8000F80
F8000F80
F8000F80
F8000F80
F8000F80
F8000F80
F8000F80
F8000F80
F8000F80
F8000F80
F8000F80
F8000F80
F8000F80
F8000F80
F8000F80
F8000F80
F8000F80
F8000F80
F8000F80
F8001F80
F8001F80
FC003F80
FE007F80
7F00FF80
7FEFF780
3FFFE780
1FFFC780
0FFF8780
03FE0000
ENDCHAR
STARTCHAR 0172
ENCODING 370
SWIDTH 720 0
DWIDTH 44 0
BBX 34 57 5 -12
BITMAP
FC000007C0
FC000007C0
FC000007C0
FC000007C0
FC000007C0
FC000007C0
FC000007C0
FC000007C0
FC000007C0
FC000007C0
FC000007C0
FC000007C0
FC000007C0
FC000007C0
FC000007C0
FC000007C0
FC000007C0
FC000007C0
FC000007C0
FC000007C0
FC000007C0
FC000007C0
FC000007C0
FC000007C0
FC000007C0
FC000007C0
FC000007C0
FC000007C0
FC000007C0
FC000007C0
FC000007C0
FC000007C0
FC000007C0
FC000007C0
FC00000FC0
7E00000FC0
7E00001FC0
7F00001F80
3F80003F80
3FE000FF00
1FF807FF00
0FFFFFFE00
07FFFFFC00
01FFFFF800
007FFFF000
000FFDE000
000003C000
0000078000
00000F0000
00001F0000
00001F0000
00001F0000
00001F0000
00000F8000
00000FFF00
000007FF00
000000FE00
ENDCHAR
STARTCHAR 0173
ENCODING 371
SWIDTH 556 0
DWIDTH 34 0
BBX 28 44 4 -12
BITMAP
F8000F80
F8000F80
F8000F80
F8000F80
F8000F80
F8000F80
F8000F80
F8000F80
F8000F80
F8000F80
F8000F80
F8000F80
F8000F80
F8000F80
F8000F80
F8000F80
F8000F80
F8000F80
F8000F80
F8000F80
F8000F80
F8000F80
F8000F80
F8001F80
F8001F80
FC003F80
FE007F80
7F00FF80
7FEFF780
3FFFE780
1FFFC780
0FFF0780
03FC0780
00000E00
00003C00
00007C00
00007800
0000F800
0000F800
0000F800
00007C00
00007FF0
00001FF0
000007F0
ENDCHAR
STARTCHAR 0174
ENCODING 372
SWIDTH 949 0
DWIDTH 58 0
BBX 56 58 1 0
BITMAP
000000FE000000
000000FE000000
000001FF000000
000001FF800000
000003E7800000
000007C7C00000
00000783E00000
00000F01E00000
00001E00F00000
00000000000000
00000000000000
00000000000000
00000000000000
FE00007E00007F
7E00007F00007E
7E0000FF00007E
7F0000FF00007E
7F0000FF0000FE
3F0001FF8000FC
3F0001FF8000FC
3F0001FF8000FC
3F8001FF8000FC
1F8003FFC001F8
1F8003E7C001F8
1F8003E7C001F8
1FC003E7E001F8
0FC007C7E003F0
0FC007C3E003F0
0FC007C3E003F0
07C00FC3F003F0
07E00F81F007E0
07E00F81F007E0
07E00F81F807E0
03E01F81F807E0
03F01F00F807C0
03F01F00F80FC0
03F01F00FC0FC0
01F03F007C0FC0
01F83E007C0F80
01F83E007C1F80
01F83E007E1F80
00F87C003E1F80
00F87C003E1F00
00FC7C003F1F00
00FCFC003F3F00
007CF8001F3F00
007CF8001F3E00
007EF8001FBE00
007FF8000FFE00
003FF0000FFE00
003FF0000FFC00
003FF0000FFC00
003FE00007FC00
001FE00007FC00
001FE00007F800
001FE00003F800
001FC00003F800
000FC00003F800
ENDCHAR
STARTCHAR 0175
ENCODING 373
SWIDTH 720 0
DWIDTH 44 0
BBX 43 46 0 0
BITMAP
00001F800000
00003FC00000
00007FC00000
00007FE00000
0000F9E00000
0001F1F00000
0001E0F80000
0003E0780000
0003C03C0000
0007803C0000
000000000000
000000000000
000000000000
000000000000
FC003F8007E0
7C003F8007E0
7E003FC007E0
7E003FC007C0
3E003FC00FC0
3E007FC00FC0
3F007FE00F80
1F007BE00F80
1F007BE01F80
1F00FBE01F00
1F80FBF01F00
0F80F1F01F00
0F80F1F03F00
0FC1F1F03E00
07C1F0F83E00
07C1E0F83E00
07C1E0F87C00
07E3E0F87C00
03E3E07C7C00
03E3C07C7C00
03E3C07CF800
01F7C07CF800
01F7C03EF800
01F7803EF000
01F7803FF000
00FF803FF000
00FF801FE000
00FF001FE000
007F001FE000
007F001FE000
007F000FC000
007F000FC000
ENDCHAR
STARTCHAR 0176
ENCODING 374
SWIDTH 670 0
DWIDTH 41 0
BBX 39 58 1 0
BITMAP
00007E0000
0000FF0000
0000FF0000
0001FF8000
0003E7C000
0003C3C000
000781E000
000F81F000
000F00F000
0000000000
0000000000
0000000000
0000000000
FE000000FE
7F000000FC
7F000001FC
3F800001F8
1FC00003F8
1FC00007F0
0FE00007E0
0FE0000FE0
07F0000FC0
03F0001FC0
03F8001F80
01FC003F00
00FC007F00
00FE007E00
007E00FE00
007F00FC00
003F81F800
001F83F800
001FC3F000
000FC7E000
0007E7E000
0007FFC000
0003FFC000
0001FF8000
0001FF0000
0000FF0000
0000FE0000
00007E0000
00007E0000
00007E0000
00007E0000
00007E0000
00007E0000
00007E0000
00007E0000
00007E0000
00007E0000
00007E0000
00007E0000
00007E0000
00007E0000
00007E0000
00007E0000
00007E0000
00007E0000
ENDCHAR
STARTCHAR 0177
ENCODING 375
SWIDTH 507 0
DWIDTH 31 0
BBX 28 59 1 -13
BITMAP
001F8000
003FC000
003FE000
007FE000
0079F000
00F8F800
01F07800
01E07C00
03C03C00
03C01E00
00000000
00000000
00000000
00000000
FC0001F0
7C0003F0
7C0003E0
7E0007E0
3E0007E0
3E0007C0
3F000FC0
1F000F80
1F000F80
1F801F80
0F801F00
0F801F00
0FC03F00
07C03E00
07C03E00
07E07C00
03E07C00
03E0FC00
03F0F800
01F0F800
01F1F800
01F9F000
00F9F000
00FBE000
007FE000
007FE000
007FC000
003FC000
003FC000
003F8000
001F8000
001F8000
001F0000
003F0000
003E0000
003E0000
007E0000
007C0000
00FC0000
01FC0000
3FF80000
3FF00000
3FF00000
3FC00000
1F000000
ENDCHAR
STARTCHAR 0178
ENCODING 376
SWIDTH 670 0
DWIDTH 41 0
BBX 39 56 1 0
BITMAP
000FC3F000
000FC3F000
000FC3F000
000FC3F000
000FC3F000
000FC3F000
0000000000
0000000000
0000000000
0000000000
0000000000
FE000000FE
7F000000FC
7F000001FC
3F800001F8
1FC00003F8
1FC00007F0
0FE00007E0
0FE0000FE0
07F0000FC0
03F0001FC0
03F8001F80
01FC003F00
00FC007F00
00FE007E00
007E00FE00
007F00FC00
003F81F800
001F83F800
001FC3F000
000FC7E000
0007E7E000
0007FFC000
0003FFC000
0001FF8000
0001FF0000
0000FF0000
0000FE0000
00007E0000
00007E0000
00007E0000
00007E0000
00007E0000
00007E0000
00007E0000
00007E0000
00007E0000
00007E0000
00007E0000
00007E0000
00007E0000
00007E0000
00007E0000
00007E0000
00007E0000
00007E0000
ENDCHAR
STARTCHAR 0179
ENCODING 377
SWIDTH 605 0
DWIDTH 37 0
BBX 34 58 2 0
BITMAP
00001FC000
00003F8000
00003F0000
00007E0000
0000FC0000
0000F80000
0001F00000
0003E00000
0003C00000
0000000000
0000000000
0000000000
0000000000
7FFFFFFFC0
7FFFFFFFC0
7FFFFFFFC0
7FFFFFFFC0
7FFFFFFFC0
0000003F80
0000007F00
0000007F00
000000FE00
000001FC00
000003F800
000003F800
000007F000
00000FE000
00001FC000
00003FC000
00003F8000
00007F0000
0000FE0000
0001FE0000
0001FC0000
0003F80000
0007F00000
000FE00000
000FE00000
001FC00000
003F800000
007F000000
00FF000000
00FE000000
01FC000000
03F8000000
07F8000000
07F0000000
0FE0000000
1FC0000000
3FC0000000
3F80000000
7F00000000
FE00000000
FFFFFFFFC0
FFFFFFFFC0
FFFFFFFFC0
FFFFFFFFC0
FFFFFFFFC0
ENDCHAR
STARTCHAR 017A
ENCODING 378
SWIDTH 507 0
DWIDTH 31 0
BBX 26 46 2 0
BITMAP
0001F800
0003F000
0007F000
0007E000
000FC000
000F8000
001F0000
003E0000
003C0000
00780000
00000000
00000000
00000000
00000000
7FFFFF80
7FFFFF80
7FFFFF80
7FFFFF80
00001F80
00003F00
00007E00
0000FE00
0000FC00
0001F800
0003F000
0007E000
000FC000
001FC000
001F8000
003F0000
007E0000
00FC0000
01FC0000
03F80000
03F00000
07E00000
0FC00000
1F800000
3F800000
7F000000
7E000000
FC000000
FFFFFFC0
FFFFFFC0
FFFFFFC0
FFFFFFC0
ENDCHAR
STARTCHAR 017B
ENCODING 379
SWIDTH 605 0
DWIDTH 37 0
BBX 34 56 2 0
BITMAP
0003F80000
0003F80000
0003F80000
0003F80000
0003F80000
0003F80000
0000000000
0000000000
0000000000
0000000000
0000000000
7FFFFFFFC0
7FFFFFFFC0
7FFFFFFFC0
7FFFFFFFC0
7FFFFFFFC0
0000003F80
0000007F00
0000007F00
000000FE00
000001FC00
000003F800
000003F800
000007F000
00000FE000
00001FC000
00003FC000
00003F8000
00007F0000
0000FE0000
0001FE0000
0001FC0000
0003F80000
0007F00000
000FE00000
000FE00000
001FC00000
003F800000
007F000000
00FF000000
00FE000000
01FC000000
03F8000000
07F8000000
07F0000000
0FE0000000
1FC0000000
3FC0000000
3F80000000
7F00000000
FE00000000
FFFFFFFFC0
FFFFFFFFC0
FFFFFFFFC0
FFFFFFFFC0
FFFFFFFFC0
ENDCHAR
STARTCHAR 017C
ENCODING 380
SWIDTH 507 0
DWIDTH 31 0
BBX 26 44 2 0
BITMAP
003F8000
003F8000
003F8000
003F8000
003F8000
003F8000
00000000
00000000
00000000
00000000
00000000
00000000
7FFFFF80
7FFFFF80
7FFFFF80
7FFFFF80
00001F80
00003F00
00007E00
0000FE00
0000FC00
0001F800
0003F000
0007E000
000FC000
001FC000
001F8000
003F0000
007E0000
00FC0000
01FC0000
03F80000
03F00000
07E00000
0FC00000
1F800000
3F800000
7F000000
7E000000
FC000000
FFFFFFC0
FFFFFFC0
FFFFFFC0
FFFFFFC0
ENDCHAR
STARTCHAR 017D
ENCODING 381
SWIDTH 605 0
DWIDTH 37 0
BBX 34 58 2 0
BITMAP
007803C000
003C078000
003E0F8000
001E0F0000
000F1E0000
000FBE0000
0007FC0000
0007F80000
0003F80000
0000000000
0000000000
0000000000
0000000000
7FFFFFFFC0
7FFFFFFFC0
7FFFFFFFC0
7FFFFFFFC0
7FFFFFFFC0
0000003F80
0000007F00
0000007F00
000000FE00
000001FC00
000003F800
000003F800
000007F000
00000FE000
00001FC000
00003FC000
00003F8000
00007F0000
0000FE0000
0001FE0000
0001FC0000
0003F80000
0007F00000
000FE00000
000FE00000
001FC00000
003F800000
007F000000
00FF000000
00FE000000
01FC000000
03F8000000
07F8000000
07F0000000
0FE0000000
1FC0000000
3FC0000000
3F80000000
7F00000000
FE00000000
FFFFFFFFC0
FFFFFFFFC0
FFFFFFFFC0
FFFFFFFFC0
FFFFFFFFC0
ENDCHAR
STARTCHAR 017E
ENCODING 382
SWIDTH 507 0
DWIDTH 31 0
BBX 26 46 2 0
BITMAP
07803C00
07C07800
03C0F800
01E1F000
01F1E000
00FBE000
007FC000
007FC000
003F8000
003F0000
00000000
00000000
00000000
00000000
7FFFFF80
7FFFFF80
7FFFFF80
7FFFFF80
00001F80
00003F00
00007E00
0000FE00
0000FC00
0001F800
0003F000
0007E000
000FC000
001FC000
001F8000
003F0000
007E0000
00FC0000
01FC0000
03F80000
03F00000
07E00000
0FC00000
1F800000
3F800000
7F000000
7E000000
FC000000
FFFFFFC0
FFFFFFC0
FFFFFFC0
FFFFFFC0
ENDCHAR
STARTCHAR 017F
ENCODING 383
SWIDTH 229 0
DWIDTH 14 0
BBX 15 45 -1 0
BITMAP
007E
01FE
03FE
03FE
07FA
07C0
07C0
07C0
07C0
07C0
07C0
07C0
07C0
FFC0
FFC0
FFC0
FFC0
07C0
07C0
07C0
07C0
07C0
07C0
07C0
07C0
07C0
07C0
07C0
07C0
07C0
07C0
07C0
07C0
07C0
07C0
07C0
07C0
07C0
07C0
07C0
07C0
07C0
07C0
07C0
07C0
ENDCHAR
STARTCHAR 0192
ENCODING 402
SWIDTH 556 0
DWIDTH 34 0
BBX 32 59 1 -13
BITMAP
000000FC
000003FF
000007FF
00000FFE
00001FFE
00003F84
00003F00
00007E00
00007E00
00007C00
00007C00
0000FC00
0000F800
0000F800
0000F800
0000F800
0001F800
00FFFFF0
00FFFFF0
00FFFFF0
00FFFFF0
0003F000
0003F000
0003E000
0003E000
0003E000
0007E000
0007E000
0007E000
0007C000
0007C000
0007C000
000FC000
000FC000
000F8000
000F8000
000F8000
001F8000
001F8000
001F0000
001F0000
001F0000
001F0000
003F0000
003F0000
003E0000
003E0000
003E0000
007E0000
007E0000
007C0000
00FC0000
00F80000
01F80000
FFF00000
FFE00000
FFC00000
FF800000
FC000000
ENDCHAR
STARTCHAR 01FA
ENCODING 506
SWIDTH 670 0
DWIDTH 41 0
BBX 39 66 1 0
BITMAP
0000FC0000
0001F80000
0003F00000
0003E00000
0007C00000
000F800000
000F000000
001E100000
003CFE0000
0001FF0000
0001C70000
0003838000
0003838000
0003838000
0003C70000
0001FF0000
0000FE0000
00007C0000
0000000000
0000000000
0000000000
0000FE0000
0001FF0000
0001FF0000
0001FF0000
0003FF8000
0003FF8000
0003EFC000
0007EFC000
0007EFC000
0007C7E000
000FC7E000
000FC7E000
000F83F000
001F83F000
001F83F000
003F01F800
003F01F800
003F01F800
007E00FC00
007E00FC00
007C00FC00
00FC007E00
00FC007E00
00F8007E00
01F8003F00
01F8003F00
01F0003F00
03FFFFFF80
03FFFFFF80
03FFFFFFC0
07FFFFFFC0
07FFFFFFC0
0FE0000FE0
0FC00007E0
0FC00007E0
1F800007F0
1F800003F0
1F800003F0
3F000003F8
3F000001F8
3F000001F8
7E000001FC
7E000000FC
7E000000FC
FC000000FE
ENDCHAR
STARTCHAR 01FB
ENCODING 507
SWIDTH 556 0
DWIDTH 34 0
BBX 30 56 3 -1
BITMAP
001FC000
001F8000
003F0000
007E0000
007C0000
00F80000
01F00000
01E00000
03C00000
000F0000
003FC000
003FE000
0070E000
00706000
00606000
0070E000
0078E000
003FC000
001F8000
00060000
00000000
00000000
007FE000
03FFFC00
07FFFE00
1FFFFF00
1FFFFF80
3F803F80
3F000FC0
7E000FC0
7E0007C0
7C0007C0
000007C0
000007C0
00000FC0
00001FC0
0003FFC0
01FFFFC0
07FFFFC0
1FFFE7C0
3FFC07C0
7F8007C0
FE0007C0
FC0007C0
F80007C0
F80007C0
F8000FC0
F8000FC0
F8001FC0
FC003FC0
FE00FFC0
7FEFFFE0
7FFFF7FC
3FFFC7FC
0FFF03FC
03FC01F8
ENDCHAR
STARTCHAR 01FC
ENCODING 508
SWIDTH 998 0
DWIDTH 61 0
BBX 57 58 1 0
BITMAP
000000000FE00000
000000000FC00000
000000001F800000
000000003F000000
000000003E000000
000000007C000000
00000000F8000000
00000000F0000000
00000001E0000000
0000000000000000
0000000000000000
0000000000000000
0000000000000000
00003FFFFFFFFF00
00007FFFFFFFFF00
00007FFFFFFFFF00
00007FFFFFFFFF00
0000FFFFFFFFFF00
0000F80F80000000
0001F80F80000000
0001F80F80000000
0003F00F80000000
0003F00F80000000
0003E00F80000000
0007E00F80000000
0007E00F80000000
000FC00F80000000
000FC00F80000000
000F800F80000000
001F800F80000000
001F800F80000000
003F000F80000000
003F000FFFFFFE00
003F000FFFFFFE00
007E000FFFFFFE00
007E000FFFFFFE00
00FC000FFFFFFE00
00FC000F80000000
00FC000F80000000
01F8000F80000000
01FFFFFF80000000
03FFFFFF80000000
03FFFFFF80000000
03FFFFFF80000000
07FFFFFF80000000
07E0000F80000000
0FE0000F80000000
0FC0000F80000000
0FC0000F80000000
1F80000F80000000
1F80000F80000000
3F80000F80000000
3F00000F80000000
7F00000FFFFFFF80
7E00000FFFFFFF80
7E00000FFFFFFF80
FE00000FFFFFFF80
FC00000FFFFFFF80
ENDCHAR
STARTCHAR 01FD
ENCODING 509
SWIDTH 883 0
DWIDTH 54 0
BBX 50 47 2 -1
BITMAP
0000003F800000
0000003F000000
0000007E000000
000000FC000000
000000F8000000
000001F0000000
000003E0000000
000003C0000000
00000780000000
00000700000000
00000000000000
00000000000000
00000000000000
003FE000FE0000
01FFF807FFC000
07FFFE1FFFF000
0FFFFF3FFFF800
1FFFFFFFFFFC00
3FC01FFE01FE00
3F000FFC007F00
3E0007F8003F00
3E0007F0001F00
3E0007E0001F80
000007E0000F80
000007E0000F80
000007C0000F80
00001FC0000FC0
001FFFFFFFFFC0
01FFFFFFFFFFC0
0FFFFFFFFFFFC0
1FFFE7FFFFFFC0
3FF807C0000000
7F8007C0000000
7E0007C0000000
FC0007C0000000
FC0007E0000000
F80007E0000F80
F80007E0001F80
FC000FF0001F00
FC001FF8003F00
FC003EFC007E00
7F00FCFF01FE00
7FEFF87FFFFC00
3FFFF03FFFF800
1FFFE01FFFF000
0FFF8007FFC000
01FC0001FE0000
ENDCHAR
STARTCHAR 01FE
ENCODING 510
SWIDTH 785 0
DWIDTH 48 0
BBX 43 59 2 -1
BITMAP
000003F00000
000007E00000
00000FC00000
00000F800000
00001F000000
00003E000000
00003C000000
000078000000
0000F0000000
000000000000
000000000000
000000000000
00007FE000E0
0007FFFC01E0
001FFFFF03C0
003FFFFFC780
00FFFFFFEF80
01FFC03FFF00
03FE000FFE00
07F80003FC00
07F00000FE00
0FE00000FF00
1FC00001FF00
1F800003FF80
3F8000079F80
3F00000F1F80
3F00001E0FC0
7E00003E0FC0
7E00007C07C0
7E0000F807E0
7C0001F007E0
FC0001E007E0
FC0003C007E0
FC00078007E0
FC000F0007E0
FC001E0007E0
FC003C0007E0
FC00780007E0
FC00F80007E0
FC01F00007E0
7C03E00007E0
7E07C00007E0
7E07800007C0
7E0F00000FC0
3F1E00000FC0
3F3C00001F80
3FF800001F80
1FF000003F80
1FE000003F00
0FE000007F00
0FF00000FE00
0FF80003FC00
1FFE0007F800
3FFFC03FF000
3CFFFFFFE000
787FFFFFC000
F01FFFFF0000
6007FFFC0000
00007FC00000
ENDCHAR
STARTCHAR 01FF
ENCODING 511
SWIDTH 605 0
DWIDTH 37 0
BBX 31 47 1 -1
BITMAP
0000FE00
0000FC00
0001F800
0003F000
0003E000
0007C000
000F8000
000F0000
001E0000
00000000
00000000
00000000
00000000
000FF004
007FFE0E
01FFFF1E
03FFFFBC
07FFFFF8
0FF01FF0
0FC007F0
1F8003F0
1F8003F8
3F0007F8
3F000EF8
3E001EFC
3E003CFC
7E00787C
7E00F07C
7E01E07C
7E01C07C
7E03807C
7E07007C
7E0E007C
7E1E007C
3E3C00FC
3E7800FC
3FF000F8
3FE001F8
1FC001F8
1F8003F0
0FC007F0
0FF01FE0
1FFFFFC0
3FFFFF80
79FFFF00
F07FFC00
601FF000
ENDCHAR
STARTCHAR 0218
ENCODING 536
SWIDTH 670 0
DWIDTH 41 0
BBX 35 63 3 -17
BITMAP
000FFC0000
007FFFC000
01FFFFF000
03FFFFF800
07FFFFFC00
0FF003FE00
1FC000FF00
3F80003F00
3F00003F80
3F00001F80
3E00001F80
7E00000F80
7E00000F80
7E00000F80
7E00000000
7F00000000
3F80000000
3FC0000000
3FF8000000
1FFF000000
0FFFF00000
07FFFF0000
01FFFFE000
003FFFF800
0007FFFE00
00007FFF00
000007FF80
000000FF80
0000003FC0
0000001FC0
0000000FE0
F8000007E0
F8000007E0
F8000007E0
FC000007E0
FC000007E0
7C000007E0
7E00000FC0
7F00000FC0
3F80001F80
3FE0007F80
1FF801FF00
0FFFFFFE00
07FFFFFC00
01FFFFF800
007FFFE000
000FFE0000
0000000000
0000000000
0001F80000
0001F80000
0001F80000
0001F80000
0001F80000
0001F80000
0000380000
0000380000
0000380000
0000300000
0000700000
0001E00000
0001C00000
0001000000
ENDCHAR
STARTCHAR 0219
ENCODING 537
SWIDTH 507 0
DWIDTH 31 0
BBX 26 50 2 -17
BITMAP
007F8000
03FFF000
0FFFFC00
1FFFFE00
1FFFFE00
3F807F00
7E003F00
7E001F80
7C001F80
7C001F80
7C000000
7E000000
7F000000
3FC00000
3FFC0000
1FFFC000
07FFF800
01FFFE00
003FFF00
0003FF80
00003F80
00001FC0
00000FC0
FC0007C0
FC0007C0
FC0007C0
7C000FC0
7E001F80
7F803F80
3FFFFF00
1FFFFE00
0FFFFC00
07FFF000
00FF8000
00000000
00000000
003F0000
003F0000
003F0000
003F0000
003F0000
003F0000
00070000
00070000
00070000
00070000
000E0000
003E0000
003C0000
00300000
ENDCHAR
STARTCHAR 021A
ENCODING 538
SWIDTH 605 0
DWIDTH 37 0
BBX 35 63 1 -18
BITMAP
FFFFFFFFE0
FFFFFFFFE0
FFFFFFFFE0
FFFFFFFFE0
FFFFFFFFE0
0001F80000
0001F80000
0001F80000
0001F80000
0001F80000
0001F80000
0001F80000
0001F80000
0001F80000
0001F80000
0001F80000
0001F80000
0001F80000
0001F80000
0001F80000
0001F80000
0001F80000
0001F80000
0001F80000
0001F80000
0001F80000
0001F80000
0001F80000
0001F80000
0001F80000
0001F80000
0001F80000
0001F80000
0001F80000
0001F80000
0001F80000
0001F80000
0001F80000
0001F80000
0001F80000
0001F80000
0001F80000
0001F80000
0001F80000
0001F80000
0000000000
0000000000
0000000000
0000000000
0001F80000
0001F80000
0001F80000
0001F80000
0001F80000
0001F80000
0000380000
0000380000
0000380000
0000300000
0000700000
0001E00000
0001C00000
0001000000
ENDCHAR
STARTCHAR 021B
ENCODING 539
SWIDTH 278 0
DWIDTH 17 0
BBX 15 58 1 -17
BITMAP
0F80
0F80
0F80
0F80
0F80
0F80
0F80
0F80
0F80
FFFE
FFFE
FFFE
FFFE
0F80
0F80
0F80
0F80
0F80
0F80
0F80
0F80
0F80
0F80
0F80
0F80
0F80
0F80
0F80
0F80
0F80
0F80
0F80
0F80
0F80
0F80
0F80
0FC0
0FF6
0FFE
07FE
03FE
01FE
0000
0000
03F0
03F0
03F0
03F0
03F0
03F0
0070
0070
0070
0060
00E0
03C0
0380
0200
ENDCHAR
STARTCHAR 02C6
ENCODING 710
SWIDTH 327 0
DWIDTH 20 0
BBX 16 9 2 37
BITMAP
07E0
0FF0
1FF8
1FF8
3E7C
3C3C
781E
F01F
F00F
ENDCHAR
STARTCHAR 02C7
ENCODING 711
SWIDTH 327 0
DWIDTH 20 0
BBX 17 9 1 37
BITMAP
F00780
780780
3C0F00
3E1E00
1F3E00
0FFC00
0FFC00
07F800
03F000
ENDCHAR
STARTCHAR 02C9
ENCODING 713
SWIDTH 327 0
DWIDTH 20 0
BBX 16 4 2 39
BITMAP
FFFF
FFFF
FFFF
FFFF
ENDCHAR
STARTCHAR 02D8
ENCODING 728
SWIDTH 327 0
DWIDTH 20 0
BBX 18 8 1 37
BITMAP
F001C0
F003C0
F803C0
FC0FC0
7FFF80
3FFF00
1FFE00
07F800
ENDCHAR
STARTCHAR 02D9
ENCODING 729
SWIDTH 327 0
DWIDTH 20 0
BBX 6 6 7 38
BITMAP
FC
FC
FC
FC
FC
FC
ENDCHAR
STARTCHAR 02DA
ENCODING 730
SWIDTH 327 0
DWIDTH 20 0
BBX 11 11 5 35
BITMAP
1F00
3F80
7FC0
E1C0
E0E0
E0E0
E0C0
F1C0
7FC0
3F80
0C00
ENDCHAR
STARTCHAR 02DB
ENCODING 731
SWIDTH 327 0
DWIDTH 20 0
BBX 13 13 3 -13
BITMAP
07C0
0F00
3E00
3C00
7800
7800
7800
F800
7C00
7E00
3FF8
1FF8
03E0
ENDCHAR
STARTCHAR 02DC
ENCODING 732
SWIDTH 327 0
DWIDTH 20 0
BBX 19 6 0 38
BITMAP
0F00E0
3FE1E0
3FFFE0
7FFFC0
78FFC0
F01F80
ENDCHAR
STARTCHAR 02DD
ENCODING 733
SWIDTH 327 0
DWIDTH 20 0
BBX 23 9 -2 37
BITMAP
07F0FE
07E1FC
0FC1F8
1F83F0
1F07E0
3E07C0
3C0F80
780F00
F01E00
ENDCHAR
STARTCHAR 0384
ENCODING 900
SWIDTH 327 0
DWIDTH 20 0
BBX 5 12 8 36
BITMAP
F8
F8
F8
F8
F8
F8
F8
F0
F0
70
70
60
ENDCHAR
STARTCHAR 0385
ENCODING 901
SWIDTH 327 0
DWIDTH 20 0
BBX 16 15 2 37
BITMAP
03E0
03E0
03E0
03E0
03E0
03E0
03C0
03C0
03C0
FDDF
FD9F
FD9F
FC1F
FC1F
FC1F
ENDCHAR
STARTCHAR 0386
ENCODING 902
SWIDTH 670 0
DWIDTH 41 0
BBX 39 45 1 0
BITMAP
3E00FE0000
3E01FF0000
3E01FF0000
3E01FF0000
3E03FF8000
3E03FF8000
1E03EFC000
1E07EFC000
1E07EFC000
1C07C7E000
0C0FC7E000
0C0FC7E000
000F83F000
001F83F000
001F83F000
003F01F800
003F01F800
003F01F800
007E00FC00
007E00FC00
007C00FC00
00FC007E00
00FC007E00
00F8007E00
01F8003F00
01F8003F00
01F0003F00
03FFFFFF80
03FFFFFF80
03FFFFFFC0
07FFFFFFC0
07FFFFFFC0
0FE0000FE0
0FC00007E0
0FC00007E0
1F800007F0
1F800003F0
1F800003F0
3F000003F8
3F000001F8
3F000001F8
7E000001FC
7E000000FC
7E000000FC
FC000000FE
ENDCHAR
STARTCHAR 0387
ENCODING 903
SWIDTH 278 0
DWIDTH 17 0
BBX 6 6 7 14
BITMAP
FC
FC
FC
FC
FC
FC
ENDCHAR
STARTCHAR 0388
ENCODING 904
SWIDTH 785 0
DWIDTH 48 0
BBX 40 45 2 0
BITMAP
F8FFFFFFFE
F8FFFFFFFE
F8FFFFFFFE
F8FFFFFFFE
F8FFFFFFFE
F8FC000000
F0FC000000
F0FC000000
F0FC000000
70FC000000
60FC000000
60FC000000
00FC000000
00FC000000
00FC000000
00FC000000
00FC000000
00FC000000
00FC000000
00FFFFFFFC
00FFFFFFFC
00FFFFFFFC
00FFFFFFFC
00FFFFFFFC
00FC000000
00FC000000
00FC000000
00FC000000
00FC000000
00FC000000
00FC000000
00FC000000
00FC000000
00FC000000
00FC000000
00FC000000
00FC000000
00FC000000
00FC000000
00FC000000
00FFFFFFFF
00FFFFFFFF
00FFFFFFFF
00FFFFFFFF
00FFFFFFFF
ENDCHAR
STARTCHAR 0389
ENCODING 905
SWIDTH 834 0
DWIDTH 51 0
BBX 43 45 1 0
BITMAP
F87C000007E0
F87C000007E0
F87C000007E0
F87C000007E0
F87C000007E0
F87C000007E0
F87C000007E0
787C000007E0
707C000007E0
707C000007E0
707C000007E0
307C000007E0
007C000007E0
007C000007E0
007C000007E0
007C000007E0
007C000007E0
007C000007E0
007C000007E0
007FFFFFFFE0
007FFFFFFFE0
007FFFFFFFE0
007FFFFFFFE0
007FFFFFFFE0
007C000007E0
007C000007E0
007C000007E0
007C000007E0
007C000007E0
007C000007E0
007C000007E0
007C000007E0
007C000007E0
007C000007E0
007C000007E0
007C000007E0
007C000007E0
007C000007E0
007C000007E0
007C000007E0
007C000007E0
007C000007E0
007C000007E0
007C000007E0
007C000007E0
ENDCHAR
STARTCHAR 038A
ENCODING 906
SWIDTH 376 0
DWIDTH 23 0
BBX 14 45 2 0
BITMAP
F8FC
F8FC
F8FC
F8FC
F8FC
F8FC
F0FC
F0FC
F0FC
70FC
60FC
60FC
00FC
00FC
00FC
00FC
00FC
00FC
00FC
00FC
00FC
00FC
00FC
00FC
00FC
00FC
00FC
00FC
00FC
00FC
00FC
00FC
00FC
00FC
00FC
00FC
00FC
00FC
00FC
00FC
00FC
00FC
00FC
00FC
00FC
ENDCHAR
STARTCHAR 038C
ENCODING 908
SWIDTH 769 0
DWIDTH 47 0
BBX 46 47 -1 -1
BITMAP
00000FFC0000
F800FFFF8000
F803FFFFE000
F807FFFFF800
F81FFFFFFC00
F83FF807FE00
F87FC001FF00
F0FF00007F80
F0FE00001FC0
F1FC00000FE0
F3F800000FE0
63F0000007F0
67E0000003F0
07E0000003F0
07E0000001F8
0FC0000001F8
0FC0000001F8
0FC0000000FC
0F80000000FC
1F80000000FC
1F80000000FC
1F80000000FC
1F80000000FC
1F80000000FC
1F80000000FC
1F80000000FC
1F80000000FC
1F80000000FC
0F80000000FC
0FC0000000FC
0FC0000000F8
0FC0000001F8
0FE0000001F8
07E0000003F0
07F0000003F0
03F0000007F0
03F8000007E0
01FC00000FE0
01FE00001FC0
00FF00007F80
007FC000FF00
003FF807FE00
001FFFFFFC00
000FFFFFF800
0003FFFFE000
0000FFFF8000
00000FF80000
ENDCHAR
STARTCHAR 038E
ENCODING 910
SWIDTH 850 0
DWIDTH 52 0
BBX 46 45 2 0
BITMAP
F9FC000001FC
F8FE000001FC
F8FE000003F8
F87F000003F0
F83F800007F0
F83F80000FE0
F81FC0000FC0
F80FC0001FC0
700FE0001F80
7007F0003F80
7007F0003F00
7003F8007E00
0001F800FE00
0001FC00FC00
0000FE01FC00
00007E01F800
00007F03F000
00003F03F000
00003F87E000
00001FCFE000
00000FCFC000
00000FFF8000
000007FF8000
000003FF0000
000003FE0000
000001FE0000
000001FC0000
000000FC0000
000000FC0000
000000FC0000
000000FC0000
000000FC0000
000000FC0000
000000FC0000
000000FC0000
000000FC0000
000000FC0000
000000FC0000
000000FC0000
000000FC0000
000000FC0000
000000FC0000
000000FC0000
000000FC0000
000000FC0000
ENDCHAR
STARTCHAR 038F
ENCODING 911
SWIDTH 752 0
DWIDTH 46 0
BBX 45 46 -1 0
BITMAP
00001FF80000
F800FFFF0000
F803FFFFC000
F80FFFFFF000
F81FFFFFF800
F83FF00FFC00
F87F8001FE00
F0FE0000FF00
F1FC00003F80
F1F800001F80
73F000001FC0
63F000000FC0
67E0000007E0
07E0000007E0
07C0000007E0
0FC0000003F0
0FC0000003F0
0FC0000003F0
0FC0000003F0
0F80000003F0
0F80000001F0
0F80000001F0
0F80000001F0
0F80000003F0
0FC0000003F0
0FC0000003F0
0FC0000003F0
0FC0000003F0
07C0000003E0
07E0000007E0
07E0000007E0
03E0000007C0
03F000000FC0
01F000000F80
01F800001F80
00FC00003F00
007E00007E00
003F0000FC00
001F8001F800
000FC003F000
0003F00FC000
1FFFF00FFFF8
1FFFF00FFFF8
1FFFF00FFFF8
1FFFF00FFFF8
1FFFF00FFFF8
ENDCHAR
STARTCHAR 0390
ENCODING 912
SWIDTH 229 0
DWIDTH 14 0
BBX 16 52 -1 0
BITMAP
07C0
07C0
07C0
07C0
07C0
07C0
03C0
03C0
0380
FBBF
F9BF
F9BF
F83F
F83F
F83F
0000
0000
0000
0000
0000
07C0
07C0
07C0
07C0
07C0
07C0
07C0
07C0
07C0
07C0
07C0
07C0
07C0
07C0
07C0
07C0
07C0
07C0
07C0
07C0
07C0
07C0
07C0
07C0
07C0
07C0
07C0
07C0
07C0
07C0
07C0
07C0
ENDCHAR
STARTCHAR 0391
ENCODING 913
SWIDTH 670 0
DWIDTH 41 0
BBX 39 45 1 0
BITMAP
0000FE0000
0001FF0000
0001FF0000
0001FF0000
0003FF8000
0003FF8000
0003EFC000
0007EFC000
0007EFC000
0007C7E000
000FC7E000
000FC7E000
000F83F000
001F83F000
001F83F000
003F01F800
003F01F800
003F01F800
007E00FC00
007E00FC00
007C00FC00
00FC007E00
00FC007E00
00F8007E00
01F8003F00
01F8003F00
01F0003F00
03FFFFFF80
03FFFFFF80
03FFFFFFC0
07FFFFFFC0
07FFFFFFC0
0FE0000FE0
0FC00007E0
0FC00007E0
1F800007F0
1F800003F0
1F800003F0
3F000003F8
3F000001F8
3F000001F8
7E000001FC
7E000000FC
7E000000FC
FC000000FE
ENDCHAR
STARTCHAR 0392
ENCODING 914
SWIDTH 670 0
DWIDTH 41 0
BBX 33 45 5 0
BITMAP
FFFFFE0000
FFFFFF8000
FFFFFFE000
FFFFFFF000
FFFFFFF800
FC0007FC00
FC0001FC00
FC0000FE00
FC00007E00
FC00007E00
FC00007E00
FC00007E00
FC00007E00
FC00007E00
FC00007E00
FC00007C00
FC0000FC00
FC0001F800
FC0007F000
FFFFFFE000
FFFFFFC000
FFFFFFE000
FFFFFFF000
FFFFFFFC00
FC0003FE00
FC0000FE00
FC00003F00
FC00003F00
FC00001F80
FC00001F80
FC00001F80
FC00001F80
FC00001F80
FC00001F80
FC00001F80
FC00001F80
FC00003F00
FC00003F00
FC00007F00
FC0001FE00
FFFFFFFC00
FFFFFFF800
FFFFFFF000
FFFFFFE000
FFFFFF0000
ENDCHAR
STARTCHAR 0393
ENCODING 915
SWIDTH 556 0
DWIDTH 34 0
BBX 28 45 5 0
BITMAP
FFFFFFF0
FFFFFFF0
FFFFFFF0
FFFFFFF0
FFFFFFF0
F8000000
F8000000
F8000000
F8000000
F8000000
F8000000
F8000000
F8000000
F8000000
F8000000
F8000000
F8000000
F8000000
F8000000
F8000000
F8000000
F8000000
F8000000
F8000000
F8000000
F8000000
F8000000
F8000000
F8000000
F8000000
F8000000
F8000000
F8000000
F8000000
F8000000
F8000000
F8000000
F8000000
F8000000
F8000000
F8000000
F8000000
F8000000
F8000000
F8000000
ENDCHAR
STARTCHAR 0394
ENCODING 916
SWIDTH 670 0
DWIDTH 41 0
BBX 42 45 -1 0
BITMAP
00003F800000
00003F800000
00007F800000
00007FC00000
0000FFC00000
0000FFE00000
0000FFE00000
0001FBE00000
0001FBF00000
0003F3F00000
0003F1F80000
0003F1F80000
0007E1F80000
0007E0FC0000
000FC0FC0000
000FC07E0000
000FC07E0000
001F807E0000
001F803F0000
003F003F0000
003F001F8000
003F001F8000
007E001F8000
007E000FC000
00FC000FC000
00FC0007E000
00FC0007E000
01F80007E000
01F80003F000
03F80003F000
03F00001F800
03F00001F800
07E00001F800
07E00000FC00
0FE00000FC00
0FC00000FE00
0FC000007E00
1F8000007E00
1F8000003F00
3F8000003F00
3FFFFFFFFF80
3FFFFFFFFF80
7FFFFFFFFF80
7FFFFFFFFFC0
FFFFFFFFFFC0
ENDCHAR
STARTCHAR 0395
ENCODING 917
SWIDTH 670 0
DWIDTH 41 0
BBX 31 45 6 0
BITMAP
FFFFFFFC
FFFFFFFC
FFFFFFFC
FFFFFFFC
FFFFFFFC
F8000000
F8000000
F8000000
F8000000
F8000000
F8000000
F8000000
F8000000
F8000000
F8000000
F8000000
F8000000
F8000000
F8000000
FFFFFFF8
FFFFFFF8
FFFFFFF8
FFFFFFF8
FFFFFFF8
F8000000
F8000000
F8000000
F8000000
F8000000
F8000000
F8000000
F8000000
F8000000
F8000000
F8000000
F8000000
F8000000
F8000000
F8000000
F8000000
FFFFFFFE
FFFFFFFE
FFFFFFFE
FFFFFFFE
FFFFFFFE
ENDCHAR
STARTCHAR 0396
ENCODING 918
SWIDTH 605 0
DWIDTH 37 0
BBX 34 45 2 0
BITMAP
7FFFFFFFC0
7FFFFFFFC0
7FFFFFFFC0
7FFFFFFFC0
7FFFFFFFC0
0000003F80
0000007F00
0000007F00
000000FE00
000001FC00
000003F800
000003F800
000007F000
00000FE000
00001FC000
00003FC000
00003F8000
00007F0000
0000FE0000
0001FE0000
0001FC0000
0003F80000
0007F00000
000FE00000
000FE00000
001FC00000
003F800000
007F000000
00FF000000
00FE000000
01FC000000
03F8000000
07F8000000
07F0000000
0FE0000000
1FC0000000
3FC0000000
3F80000000
7F00000000
FE00000000
FFFFFFFFC0
FFFFFFFFC0
FFFFFFFFC0
FFFFFFFFC0
FFFFFFFFC0
ENDCHAR
STARTCHAR 0397
ENCODING 919
SWIDTH 720 0
DWIDTH 44 0
BBX 34 45 5 0
BITMAP
FC000007C0
FC000007C0
FC000007C0
FC000007C0
FC000007C0
FC000007C0
FC000007C0
FC000007C0
FC000007C0
FC000007C0
FC000007C0
FC000007C0
FC000007C0
FC000007C0
FC000007C0
FC000007C0
FC000007C0
FC000007C0
FC000007C0
FFFFFFFFC0
FFFFFFFFC0
FFFFFFFFC0
FFFFFFFFC0
FFFFFFFFC0
FC000007C0
FC000007C0
FC000007C0
FC000007C0
FC000007C0
FC000007C0
FC000007C0
FC000007C0
FC000007C0
FC000007C0
FC000007C0
FC000007C0
FC000007C0
FC000007C0
FC000007C0
FC000007C0
FC000007C0
FC000007C0
FC000007C0
FC000007C0
FC000007C0
ENDCHAR
STARTCHAR 0398
ENCODING 920
SWIDTH 785 0
DWIDTH 48 0
BBX 43 47 2 -1
BITMAP
00007FE00000
0003FFFC0000
001FFFFF0000
003FFFFFC000
00FFFFFFE000
01FFC03FF800
03FE0007F800
07F80003FC00
07F00000FE00
0FE000007F00
1FC000003F00
1F8000003F80
3F8000001F80
3F0000000FC0
3F0000000FC0
7E0000000FC0
7E00000007E0
7E00000007E0
7C00000007E0
7C00000007E0
FC00000007E0
FC07FFFE03E0
FC07FFFE03E0
FC07FFFE03E0
FC07FFFE03E0
FC00000003E0
FC00000007E0
7C00000007E0
7C00000007E0
7E00000007E0
7E00000007C0
7E0000000FC0
3F0000000FC0
3F0000001FC0
3F8000001F80
1F8000003F80
1FC000003F00
0FE000007F00
07F00000FE00
07F80003FC00
03FE0007F800
01FFC03FF000
00FFFFFFE000
003FFFFFC000
001FFFFF0000
0007FFFC0000
00007FE00000
ENDCHAR
STARTCHAR 0399
ENCODING 921
SWIDTH 278 0
DWIDTH 17 0
BBX 6 45 6 0
BITMAP
FC
FC
FC
FC
FC
FC
FC
FC
FC
FC
FC
FC
FC
FC
FC
FC
FC
FC
FC
FC
FC
FC
FC
FC
FC
FC
FC
FC
FC
FC
FC
FC
FC
FC
FC
FC
FC
FC
FC
FC
FC
FC
FC
FC
FC
ENDCHAR
STARTCHAR 039A
ENCODING 922
SWIDTH 670 0
DWIDTH 41 0
BBX 35 45 5 0
BITMAP
FC00001FE0
FC00003FC0
FC00007F80
FC0000FF00
FC0001FE00
FC0003FC00
FC0007F800
FC000FF000
FC001FE000
FC003FC000
FC007F8000
FC00FF0000
FC00FE0000
FC01FC0000
FC03F80000
FC07F00000
FC0FE00000
FC1FC00000
FC3F800000
FC7FC00000
FCFFC00000
FDFFE00000
FFF7F00000
FFE3F00000
FFC1F80000
FF81FC0000
FF00FC0000
FE007E0000
FC007F0000
FC003F8000
FC001F8000
FC001FC000
FC000FE000
FC0007E000
FC0007F000
FC0003F800
FC0001F800
FC0001FC00
FC0000FE00
FC00007E00
FC00007F00
FC00003F80
FC00001F80
FC00001FC0
FC00000FE0
ENDCHAR
STARTCHAR 039B
ENCODING 923
SWIDTH 670 0
DWIDTH 41 0
BBX 39 45 1 0
BITMAP
0001FE0000
0001FF0000
0001FF0000
0003FF0000
0003FF8000
0003FF8000
0007EF8000
0007EFC000
0007EFC000
000FC7E000
000FC7E000
000FC7E000
001F83F000
001F83F000
001F83F000
003F01F800
003F01F800
003F01F800
007E00FC00
007E00FC00
00FE00FC00
00FC007E00
00FC007E00
01FC007E00
01F8003F00
01F8003F00
03F8003F00
03F0001F80
03F0001F80
07F0001F80
07E0000FC0
07E0000FC0
0FE0000FE0
0FC00007E0
0FC00007E0
1FC00007F0
1F800003F0
1F800003F0
3F800003F8
3F000001F8
3F000001F8
7F000001FC
7E000000FC
FE000000FC
FE000000FE
ENDCHAR
STARTCHAR 039C
ENCODING 924
SWIDTH 834 0
DWIDTH 51 0
BBX 42 45 5 0
BITMAP
FF0000007FC0
FF0000007FC0
FF0000007FC0
FF800000FFC0
FF800000FFC0
FF800000FFC0
FFC00001FFC0
FFC00001FFC0
FFC00001FFC0
FBE00003EFC0
FBE00003EFC0
FBE00003EFC0
F9F00007CFC0
F9F00007CFC0
F9F00007CFC0
F8F8000F8FC0
F8F8000F8FC0
F8F8000F8FC0
F87C001F0FC0
F87C001F0FC0
F87C001F0FC0
F83E001E0FC0
F83E003E0FC0
F83E003E0FC0
F81F003C0FC0
F81F007C0FC0
F81F007C0FC0
F80F80780FC0
F80F80F80FC0
F80F80F80FC0
F807C0F00FC0
F807C1F00FC0
F807C1F00FC0
F803E1E00FC0
F803E3E00FC0
F803E3E00FC0
F801F3C00FC0
F801F7C00FC0
F801F7C00FC0
F800FF800FC0
F800FF800FC0
F800FF800FC0
F8007F000FC0
F8007F000FC0
F8007F000FC0
ENDCHAR
STARTCHAR 039D
ENCODING 925
SWIDTH 720 0
DWIDTH 44 0
BBX 34 45 5 0
BITMAP
FC000007C0
FE000007C0
FE000007C0
FF000007C0
FF800007C0
FF800007C0
FFC00007C0
FFE00007C0
FFE00007C0
FBF00007C0
FBF00007C0
F9F80007C0
F8FC0007C0
F8FC0007C0
F87E0007C0
F87F0007C0
F83F0007C0
F81F8007C0
F81FC007C0
F80FC007C0
F807E007C0
F807E007C0
F803F007C0
F803F807C0
F801F807C0
F800FC07C0
F800FE07C0
F8007E07C0
F8003F07C0
F8003F07C0
F8001F87C0
F8000FC7C0
F8000FC7C0
F80007E7C0
F80007F7C0
F80003F7C0
F80001FFC0
F80001FFC0
F80000FFC0
F800007FC0
F800007FC0
F800003FC0
F800003FC0
F800001FC0
F800000FC0
ENDCHAR
STARTCHAR 039E
ENCODING 926
SWIDTH 654 0
DWIDTH 40 0
BBX 32 45 4 0
BITMAP
FFFFFFFF
FFFFFFFF
FFFFFFFF
FFFFFFFF
FFFFFFFF
00000000
00000000
00000000
00000000
00000000
00000000
00000000
00000000
00000000
00000000
00000000
00000000
00000000
00000000
3FFFFFFC
3FFFFFFC
3FFFFFFC
3FFFFFFC
3FFFFFFC
00000000
00000000
00000000
00000000
00000000
00000000
00000000
00000000
00000000
00000000
00000000
00000000
00000000
00000000
00000000
00000000
FFFFFFFF
FFFFFFFF
FFFFFFFF
FFFFFFFF
FFFFFFFF
ENDCHAR
STARTCHAR 039F
ENCODING 927
SWIDTH 785 0
DWIDTH 48 0
BBX 43 47 2 -1
BITMAP
00007FE00000
0003FFFC0000
001FFFFF0000
003FFFFFC000
00FFFFFFE000
01FFC03FF800
03FE0007F800
07F80003FC00
07F00000FE00
0FE000007F00
1FC000003F00
1F8000003F80
3F8000001F80
3F0000000FC0
3F0000000FC0
7E0000000FC0
7E00000007E0
7E00000007E0
7C00000007E0
7C00000007E0
7C00000007E0
FC00000003E0
FC00000003E0
FC00000003E0
FC00000003E0
FC00000003E0
FC00000003E0
7C00000007E0
7E00000007E0
7E00000007E0
7E00000007E0
7E0000000FC0
3F0000000FC0
3F0000000FC0
3F8000001F80
1F8000003F80
1FC000003F00
0FE000007F00
07F00000FE00
07F80003FC00
03FE0007F800
01FFC03FF800
00FFFFFFE000
003FFFFFC000
001FFFFF0000
0007FFFC0000
00007FE00000
ENDCHAR
STARTCHAR 03A0
ENCODING 928
SWIDTH 720 0
DWIDTH 44 0
BBX 34 45 5 0
BITMAP
FFFFFFFFC0
FFFFFFFFC0
FFFFFFFFC0
FFFFFFFFC0
FFFFFFFFC0
FC00000FC0
FC00000FC0
FC00000FC0
FC00000FC0
FC00000FC0
FC00000FC0
FC00000FC0
FC00000FC0
FC00000FC0
FC00000FC0
FC00000FC0
FC00000FC0
FC00000FC0
FC00000FC0
FC00000FC0
FC00000FC0
FC00000FC0
FC00000FC0
FC00000FC0
FC00000FC0
FC00000FC0
FC00000FC0
FC00000FC0
FC00000FC0
FC00000FC0
FC00000FC0
FC00000FC0
FC00000FC0
FC00000FC0
FC00000FC0
FC00000FC0
FC00000FC0
FC00000FC0
FC00000FC0
FC00000FC0
FC00000FC0
FC00000FC0
FC00000FC0
FC00000FC0
FC00000FC0
ENDCHAR
STARTCHAR 03A1
ENCODING 929
SWIDTH 670 0
DWIDTH 41 0
BBX 32 45 6 0
BITMAP
FFFFFE00
FFFFFF80
FFFFFFE0
FFFFFFF0
FFFFFFF8
F8000FFC
F80001FC
F80000FE
F800007E
F800007E
F800007F
F800003F
F800003F
F800003F
F800003F
F800007F
F800007E
F800007E
F80000FE
F80001FC
F80007FC
FFFFFFF8
FFFFFFF0
FFFFFFE0
FFFFFF80
FFFFFE00
F8000000
F8000000
F8000000
F8000000
F8000000
F8000000
F8000000
F8000000
F8000000
F8000000
F8000000
F8000000
F8000000
F8000000
F8000000
F8000000
F8000000
F8000000
F8000000
ENDCHAR
STARTCHAR 03A3
ENCODING 931
SWIDTH 621 0
DWIDTH 38 0
BBX 32 45 3 0
BITMAP
FFFFFFFE
FFFFFFFE
FFFFFFFE
FFFFFFFE
FFFFFFFE
FF000000
7F800000
3FC00000
1FE00000
0FF00000
07F80000
03FC0000
01FE0000
00FF0000
007F8000
003FC000
001FE000
000FF000
0007F000
0003F800
0001FC00
0000FE00
00007F00
0000FE00
0001FC00
0003F800
0007F000
000FE000
001FC000
003F8000
007F0000
00FE0000
01FC0000
03F80000
07F00000
0FE00000
1FC00000
3F800000
7F000000
FE000000
FFFFFFFF
FFFFFFFF
FFFFFFFF
FFFFFFFF
FFFFFFFF
ENDCHAR
STARTCHAR 03A4
ENCODING 932
SWIDTH 605 0
DWIDTH 37 0
BBX 35 45 1 0
BITMAP
FFFFFFFFE0
FFFFFFFFE0
FFFFFFFFE0
FFFFFFFFE0
FFFFFFFFE0
0001F80000
0001F80000
0001F80000
0001F80000
0001F80000
0001F80000
0001F80000
0001F80000
0001F80000
0001F80000
0001F80000
0001F80000
0001F80000
0001F80000
0001F80000
0001F80000
0001F80000
0001F80000
0001F80000
0001F80000
0001F80000
0001F80000
0001F80000
0001F80000
0001F80000
0001F80000
0001F80000
0001F80000
0001F80000
0001F80000
0001F80000
0001F80000
0001F80000
0001F80000
0001F80000
0001F80000
0001F80000
0001F80000
0001F80000
0001F80000
ENDCHAR
STARTCHAR 03A5
ENCODING 933
SWIDTH 670 0
DWIDTH 41 0
BBX 39 45 1 0
BITMAP
FE000000FE
7F000000FC
7F000001FC
3F800001F8
1FC00003F8
1FC00007F0
0FE00007E0
0FE0000FE0
07F0000FC0
03F0001FC0
03F8001F80
01FC003F00
00FC007F00
00FE007E00
007E00FE00
007F00FC00
003F81F800
001F83F800
001FC3F000
000FC7E000
0007E7E000
0007FFC000
0003FFC000
0001FF8000
0001FF0000
0000FF0000
0000FE0000
00007E0000
00007E0000
00007E0000
00007E0000
00007E0000
00007E0000
00007E0000
00007E0000
00007E0000
00007E0000
00007E0000
00007E0000
00007E0000
00007E0000
00007E0000
00007E0000
00007E0000
00007E0000
ENDCHAR
STARTCHAR 03A6
ENCODING 934
SWIDTH 801 0
DWIDTH 49 0
BBX 39 47 5 -1
BITMAP
0000FC0000
0000FC0000
0000FC0000
0000FC0000
0000FC0000
0000FC0000
000FFFE000
007FFFFC00
01FFFFFF00
03FFFFFF80
07FFFFFFC0
0FF8FC3FE0
1FE0FC0FF0
3F80FC07F8
3F00FC03F8
7F00FC01FC
7E00FC00FC
7C00FC00FC
FC00FC007E
FC00FC007E
FC00FC007E
F800FC007E
F800FC007E
F800FC007E
F800FC007E
FC00FC007E
FC00FC007E
FC00FC007E
FC00FC007C
7E00FC00FC
7E00FC00FC
7F00FC01FC
3F80FC03F8
3FC0FC07F8
1FE0FC0FF0
0FF8FC3FE0
07FFFFFFC0
03FFFFFF80
01FFFFFF00
007FFFFC00
000FFFE000
0000FC0000
0000FC0000
0000FC0000
0000FC0000
0000FC0000
0000FC0000
ENDCHAR
STARTCHAR 03A7
ENCODING 935
SWIDTH 670 0
DWIDTH 41 0
BBX 37 45 2 0
BITMAP
7F000003F8
7F000007F0
3F800007E0
1FC0000FE0
1FC0001FC0
0FE0001F80
07E0003F00
07F0007F00
03F8007E00
01F800FC00
01FC01FC00
00FE01F800
007E03F000
007F07F000
003F87E000
001F8FC000
001FDFC000
000FFF8000
0007FF0000
0007FF0000
0003FE0000
0001FC0000
0001FC0000
0003FE0000
0007FF0000
0007FF0000
000FDF8000
001FDFC000
001F8FC000
003F07E000
007F07F000
007E03F000
00FC03F800
01FC01FC00
01F800FC00
03F000FE00
07F0007F00
0FE0003F80
0FC0003F80
1FC0001FC0
3F80000FE0
3F80000FE0
7F000007F0
FE000003F8
FE000003F8
ENDCHAR
STARTCHAR 03A8
ENCODING 936
SWIDTH 834 0
DWIDTH 51 0
BBX 43 45 4 0
BITMAP
FC001F0007E0
FC001F0007E0
FC001F0007E0
FC001F0007E0
FC001F0007E0
FC001F0007E0
FC001F0007E0
FC001F0007E0
FC001F0007E0
FC001F0007E0
FC001F0007E0
FC001F0007E0
FC001F0007E0
FC001F0007E0
FC001F0007E0
FC001F0007E0
FC001F0007E0
FC001F0007E0
FC001F0007E0
FC001F0007E0
FC001F0007E0
FC001F0007E0
FC001F0007E0
7C001F0007C0
7E001F000FC0
7E001F000FC0
7F001F001FC0
3F001F001F80
3FC01F003F80
1FE01F00FF00
0FF81F03FE00
07FFFFFFFC00
03FFFFFFF800
01FFFFFFF000
007FFFFFC000
000FFFFE0000
00001F000000
00001F000000
00001F000000
00001F000000
00001F000000
00001F000000
00001F000000
00001F000000
00001F000000
ENDCHAR
STARTCHAR 03A9
ENCODING 937
SWIDTH 752 0
DWIDTH 46 0
BBX 42 46 2 0
BITMAP
0000FFC00000
0007FFF80000
001FFFFE0000
007FFFFF8000
00FFFFFFC000
01FF807FE000
03FC000FF000
07F00007F800
0FE00001FC00
0FC00000FC00
1F800000FE00
1F8000007E00
3F0000003F00
3F0000003F00
7E0000003F00
7E0000001F80
7E0000001F80
7E0000001F80
7E0000001F80
7C0000001F80
7C0000001F80
7C0000001F80
7C0000001F80
7C0000001F80
7C0000001F80
7E0000001F80
7E0000001F80
7E0000001F80
7E0000001F00
3F0000003F00
3F0000003F00
1F0000003E00
1F8000007E00
0F8000007C00
0FC00000FC00
07E00001F800
03E00003F000
01F00007E000
00FC000FC000
007E001F8000
001F807E0000
FFFF80FFFFC0
FFFF80FFFFC0
FFFF80FFFFC0
FFFF80FFFFC0
FFFF80FFFFC0
ENDCHAR
STARTCHAR 03AA
ENCODING 938
SWIDTH 278 0
DWIDTH 17 0
BBX 17 56 0 0
BITMAP
FE3F80
FE3F80
FE3F80
FE3F80
FE3F80
FE3F80
000000
000000
000000
000000
000000
03F000
03F000
03F000
03F000
03F000
03F000
03F000
03F000
03F000
03F000
03F000
03F000
03F000
03F000
03F000
03F000
03F000
03F000
03F000
03F000
03F000
03F000
03F000
03F000
03F000
03F000
03F000
03F000
03F000
03F000
03F000
03F000
03F000
03F000
03F000
03F000
03F000
03F000
03F000
03F000
03F000
03F000
03F000
03F000
03F000
ENDCHAR
STARTCHAR 03AB
ENCODING 939
SWIDTH 670 0
DWIDTH 41 0
BBX 39 56 1 0
BITMAP
001FC7F000
001FC7F000
001FC7F000
001FC7F000
001FC7F000
001FC7F000
0000000000
0000000000
0000000000
0000000000
0000000000
FE000000FE
7F000000FC
7F000001FC
3F800001F8
1FC00003F8
1FC00007F0
0FE00007E0
0FE0000FE0
07F0000FC0
03F0001FC0
03F8001F80
01FC003F00
00FC007F00
00FE007E00
007E00FE00
007F00FC00
003F81F800
001F83F800
001FC3F000
000FC7E000
0007E7E000
0007FFC000
0003FFC000
0001FF8000
0001FF0000
0000FF0000
0000FE0000
00007E0000
00007E0000
00007E0000
00007E0000
00007E0000
00007E0000
00007E0000
00007E0000
00007E0000
00007E0000
00007E0000
00007E0000
00007E0000
00007E0000
00007E0000
00007E0000
00007E0000
00007E0000
ENDCHAR
STARTCHAR 03AC
ENCODING 940
SWIDTH 572 0
DWIDTH 35 0
BBX 36 49 0 -1
BITMAP
000F800000
000F800000
000F800000
000F800000
000F800000
000F800000
000F800000
0007800000
0007800000
0007000000
0007000000
0003000000
0000000000
0000000000
0000000000
001FC00000
007FF003F0
01FFFC03E0
03FFFE07E0
07FFFF07E0
0FE03F87C0
1FC01F8FC0
1F800FCF80
3F0007CF80
3E0003FF80
7E0003FF00
7E0001FF00
7C0001FE00
7C0000FE00
7C0000FE00
FC00007C00
FC00007C00
FC0000FC00
FC0000FE00
FC0000FE00
7C0001FF00
7C0001FF00
7E0003FF00
7E0003FF80
3E0007CF80
3F0007CF80
1F800F8FC0
1FC01F87C0
0FF03F07E0
07FFFE07E0
07FFFE03E0
01FFFC03F0
00FFF003F0
001FC00000
ENDCHAR
STARTCHAR 03AD
ENCODING 941
SWIDTH 441 0
DWIDTH 27 0
BBX 26 49 1 -1
BITMAP
003E0000
003E0000
003E0000
003E0000
003E0000
003E0000
003E0000
001E0000
001C0000
001C0000
001C0000
000C0000
00000000
00000000
00000000
007F8000
03FFE000
0FFFF800
1FFFFC00
3FFFFE00
3F807F00
7F003F00
7E001F80
7E000F80
7C000F80
7E000000
3E000000
3F000000
1FC00000
0FFF0000
07FF0000
07FF0000
1FFF0000
3FFC0000
7F000000
7E000000
7C000000
FC0007C0
FC0007C0
FC0007C0
FC000FC0
7C000F80
7E001F80
7F807F00
3FFFFE00
1FFFFC00
0FFFF800
03FFE000
00FF0000
ENDCHAR
STARTCHAR 03AE
ENCODING 942
SWIDTH 556 0
DWIDTH 34 0
BBX 26 61 4 -13
BITMAP
000F8000
000F8000
000F8000
000F8000
000F8000
000F8000
000F8000
000F0000
000F0000
00070000
00070000
00060000
00000000
00000000
00000000
000FE000
F83FFC00
F8FFFE00
F9FFFF00
FBFFFF80
FBC03F80
FF801FC0
FF000FC0
FE000FC0
FC0007C0
FC0007C0
FC0007C0
FC0007C0
FC0007C0
F80007C0
F80007C0
F80007C0
F80007C0
F80007C0
F80007C0
F80007C0
F80007C0
F80007C0
F80007C0
F80007C0
F80007C0
F80007C0
F80007C0
F80007C0
F80007C0
F80007C0
F80007C0
F80007C0
000007C0
000007C0
000007C0
000007C0
000007C0
000007C0
000007C0
000007C0
000007C0
000007C0
000007C0
000007C0
000007C0
ENDCHAR
STARTCHAR 03AF
ENCODING 943
SWIDTH 229 0
DWIDTH 14 0
BBX 5 48 4 0
BITMAP
F8
F8
F8
F8
F8
F8
F8
78
78
70
70
30
00
00
00
00
F8
F8
F8
F8
F8
F8
F8
F8
F8
F8
F8
F8
F8
F8
F8
F8
F8
F8
F8
F8
F8
F8
F8
F8
F8
F8
F8
F8
F8
F8
F8
F8
ENDCHAR
STARTCHAR 03B0
ENCODING 944
SWIDTH 540 0
DWIDTH 33 0
BBX 25 53 4 -1
BITMAP
003E0000
003E0000
003E0000
003E0000
003E0000
003E0000
003E0000
001E0000
001C0000
07DDF800
07DDF800
07CDF800
07C1F800
07C1F800
07C1F800
00000000
00000000
00000000
00000000
00000000
F8000F80
F8000F80
F8000F80
F8000F80
F8000F80
F8000F80
F8000F80
F8000F80
F8000F80
F8000F80
F8000F80
F8000F80
F8000F80
F8000F80
F8000F80
F8000F80
F8000F80
F8000F80
F8000F80
F8000F80
F8000F80
F8000F80
F8000F80
F8000F80
FC000F80
FC001F80
7E003F80
7F807F00
3FFFFF00
1FFFFE00
0FFFFC00
07FFF000
00FF8000
ENDCHAR
STARTCHAR 03B1
ENCODING 945
SWIDTH 572 0
DWIDTH 35 0
BBX 34 34 2 -1
BITMAP
003F000000
01FFE00FC0
03FFF00F80
07FFF80F80
0FFFFC1F80
1FC0FE1F00
1F803E1F00
3F001F3E00
3E001FBE00
7E000FBE00
7C000FFC00
7C0007FC00
FC0007FC00
FC0003F800
F80003F800
F80001F000
F80001F000
F80001F000
F80003F800
F80003F800
FC0007FC00
FC0007FC00
7C0007FC00
7C000FBE00
7E001FBE00
7E001F3F00
3F003F1F00
3F807E1F00
1FC0FC1F80
0FFFFC0F80
07FFF80F80
03FFF00FC0
01FFC007C0
007F000000
ENDCHAR
STARTCHAR 03B2
ENCODING 946
SWIDTH 572 0
DWIDTH 35 0
BBX 27 59 5 -13
BITMAP
00FF0000
03FFE000
0FFFF000
1FFFFC00
3FFFFC00
7F00FE00
7E007F00
7C003F00
F8001F00
F8001F00
F8001F80
F8001F80
F8001F00
F8001F00
F8001F00
F8003F00
F8007E00
F800FE00
F80FFC00
F81FF000
F81FF000
F81FFC00
F81FFE00
F8007F00
F8003F80
F8001FC0
F8000FC0
F80007C0
F80007E0
F80007E0
F80003E0
F80003E0
F80003E0
F80003E0
F80003E0
F80007E0
F80007E0
F80007C0
F8000FC0
FC001FC0
FE003F80
FF007F00
FFFFFF00
FFFFFE00
FFFFFC00
F9FFF000
F87F8000
F8000000
F8000000
F8000000
F8000000
F8000000
F8000000
F8000000
F8000000
F8000000
F8000000
F8000000
F8000000
ENDCHAR
STARTCHAR 03B3
ENCODING 947
SWIDTH 507 0
DWIDTH 31 0
BBX 29 45 1 -13
BITMAP
FC0001F8
FC0001F0
7C0003F0
7E0003E0
7E0007E0
3F0007E0
3F0007C0
1F000FC0
1F800FC0
1F800F80
0F801F80
0FC01F00
07C01F00
07E03F00
07E03E00
03E07E00
03F07E00
01F07C00
01F8FC00
01F8F800
00F8F800
00FDF800
007DF000
007DF000
007FF000
003FE000
003FE000
001FC000
001FC000
001FC000
000F8000
000F8000
000F8000
000F8000
000F8000
000F8000
000F8000
000F8000
000F8000
000F8000
000F8000
000F8000
000F8000
000F8000
000F8000
ENDCHAR
STARTCHAR 03B4
ENCODING 948
SWIDTH 556 0
DWIDTH 34 0
BBX 29 46 3 -1
BITMAP
1FFFFFC0
1FFFFFC0
1FFFFFC0
1FFFFFC0
1FFFFFC0
0FE00000
03F80000
01FC0000
00FE0000
003F8000
001FC000
000FE000
003FF800
01FFFC00
07FFFE00
0FFFFF00
1FF1FF80
1FC03FC0
3F000FC0
7E0007E0
7E0007E0
7C0003F0
FC0003F0
FC0001F0
F80001F0
F80001F0
F80001F0
F80001F8
F80001F8
F80001F8
F80001F8
F80001F0
F80001F0
F80001F0
FC0001F0
FC0003F0
7E0003E0
7E0007E0
7F000FE0
3F801FC0
1FC03F80
1FFFFF80
0FFFFF00
03FFFE00
01FFF800
003FC000
ENDCHAR
STARTCHAR 03B5
ENCODING 949
SWIDTH 441 0
DWIDTH 27 0
BBX 26 34 1 -1
BITMAP
007F8000
03FFE000
0FFFF800
1FFFFC00
3FFFFE00
3F807F00
7F003F00
7E001F80
7E000F80
7C000F80
7E000000
3E000000
3F000000
1FC00000
0FFF0000
07FF0000
07FF0000
1FFF0000
3FFC0000
7F000000
7E000000
7C000000
FC0007C0
FC0007C0
FC0007C0
FC000FC0
7C000F80
7E001F80
7F807F00
3FFFFE00
1FFFFC00
0FFFF800
03FFE000
00FF0000
ENDCHAR
STARTCHAR 03B6
ENCODING 950
SWIDTH 441 0
DWIDTH 27 0
BBX 26 58 2 -13
BITMAP
1FFFFF00
1FFFFF00
1FFFFF00
1FFFFF00
1FFFFF00
0001FE00
0003F800
0007F000
000FC000
001F8000
003F0000
007E0000
00FC0000
01F80000
03F00000
03F00000
07E00000
0FC00000
0FC00000
1F800000
1F800000
3F000000
3F000000
3E000000
7E000000
7E000000
7C000000
7C000000
7C000000
7C000000
FC000000
FC000000
FC000000
7C000000
7C000000
7E000000
7E000000
7F000000
3F800000
3FF00000
1FFFF000
0FFFFE00
03FFFF00
00FFFF80
0003FF80
00000FC0
00000FC0
00000FC0
00000FC0
00000F80
00000F80
00000F80
00000F80
00001F00
00001F00
00003F00
00003E00
00003E00
ENDCHAR
STARTCHAR 03B7
ENCODING 951
SWIDTH 556 0
DWIDTH 34 0
BBX 26 46 4 -13
BITMAP
000FE000
F83FFC00
F8FFFE00
F9FFFF00
FBFFFF80
FBC03F80
FF801FC0
FF000FC0
FE000FC0
FC0007C0
FC0007C0
FC0007C0
FC0007C0
FC0007C0
F80007C0
F80007C0
F80007C0
F80007C0
F80007C0
F80007C0
F80007C0
F80007C0
F80007C0
F80007C0
F80007C0
F80007C0
F80007C0
F80007C0
F80007C0
F80007C0
F80007C0
F80007C0
F80007C0
000007C0
000007C0
000007C0
000007C0
000007C0
000007C0
000007C0
000007C0
000007C0
000007C0
000007C0
000007C0
000007C0
ENDCHAR
STARTCHAR 03B8
ENCODING 952
SWIDTH 556 0
DWIDTH 34 0
BBX 28 47 3 -1
BITMAP
003FC000
00FFF000
03FFFC00
07FFFE00
0FFFFF00
1FC03F80
1F801F80
3F000FC0
3E0007C0
7E0007E0
7C0003E0
7C0003E0
7C0003E0
7C0003F0
FC0001F0
F80001F0
F80001F0
F80001F0
F80001F0
F80001F0
FFFFFFF0
FFFFFFF0
FFFFFFF0
FFFFFFF0
F80001F0
F80001F0
F80001F0
F80001F0
F80001F0
F80001F0
F80001F0
F80001F0
FC0001F0
7C0003E0
7C0003E0
7C0003E0
7C0003E0
3E0007C0
3E0007C0
3F000FC0
1F801F80
1FC03F80
0FFFFF00
07FFFE00
03FFFC00
00FFF000
003FC000
ENDCHAR
STARTCHAR 03B9
ENCODING 953
SWIDTH 229 0
DWIDTH 14 0
BBX 5 32 4 0
BITMAP
F8
F8
F8
F8
F8
F8
F8
F8
F8
F8
F8
F8
F8
F8
F8
F8
F8
F8
F8
F8
F8
F8
F8
F8
F8
F8
F8
F8
F8
F8
F8
F8
ENDCHAR
STARTCHAR 03BA
ENCODING 954
SWIDTH 507 0
DWIDTH 31 0
BBX 27 32 3 0
BITMAP
FC001F80
FC003F00
FC007E00
FC00FC00
FC01F800
FC03F000
FC07E000
FC0FC000
FC1F8000
FC3F0000
FC7E0000
FCFE0000
FDFE0000
FFFF0000
FFFF8000
FFDF8000
FF8FC000
FF0FE000
FE07E000
FC03F000
FC03F000
FC01F800
FC01FC00
FC00FC00
FC007E00
FC007F00
FC003F00
FC001F80
FC001F80
FC000FC0
FC000FE0
FC0007E0
ENDCHAR
STARTCHAR 03BB
ENCODING 955
SWIDTH 507 0
DWIDTH 31 0
BBX 27 45 2 0
BITMAP
03E00000
03F00000
03F00000
01F00000
01F80000
01F80000
00F80000
00FC0000
007C0000
007C0000
007E0000
003E0000
003F0000
003F0000
003F0000
003F8000
007F8000
007F8000
007FC000
00FFC000
00FFC000
00FFE000
01FBE000
01F3F000
01F3F000
03F1F000
03E1F800
07E1F800
07C0F800
07C0FC00
0FC07C00
0F807C00
0F807E00
1F803E00
1F003F00
1F003F00
3F001F00
3E001F80
3E001F80
7E000F80
7C000FC0
7C000FC0
FC0007C0
F80007E0
F80003E0
ENDCHAR
STARTCHAR 03BC
ENCODING 956
SWIDTH 572 0
DWIDTH 35 0
BBX 25 45 5 -13
BITMAP
F8000F80
F8000F80
F8000F80
F8000F80
F8000F80
F8000F80
F8000F80
F8000F80
F8000F80
F8000F80
F8000F80
F8000F80
F8000F80
F8000F80
F8000F80
F8000F80
F8000F80
F8000F80
F8000F80
F8000F80
F8000F80
F8000F80
F8000F80
F8001F80
F8001F80
FC003F80
FE007F80
FF00FF80
FFEFF780
FFFFE780
FFFFC780
FFFF0780
F9FC0000
F8000000
F8000000
F8000000
F8000000
F8000000
F8000000
F8000000
F8000000
F8000000
F8000000
F8000000
F8000000
ENDCHAR
STARTCHAR 03BD
ENCODING 957
SWIDTH 507 0
DWIDTH 31 0
BBX 29 32 1 0
BITMAP
FC0001F8
FC0001F0
7C0003F0
7E0003E0
7E0007E0
3E0007E0
3F0007C0
3F000FC0
1F000FC0
1F800F80
1F801F80
0F801F00
0FC01F00
0FC03F00
07C03E00
07E03E00
03E07C00
03E07C00
03F0FC00
01F0F800
01F0F800
01F9F800
00F9F000
00F9F000
00FFE000
007FE000
007FE000
007FC000
003FC000
003F8000
003F8000
001F8000
ENDCHAR
STARTCHAR 03BE
ENCODING 958
SWIDTH 441 0
DWIDTH 27 0
BBX 26 58 2 -13
BITMAP
7FFFFF00
7FFFFF00
7FFFFF00
7FFFFF00
7FFFFF00
03F00000
07C00000
0F800000
1F800000
1F000000
1F000000
3F000000
3F000000
3F000000
1F000000
1F800000
1FC00000
0FE00000
07FC0000
03FFFC00
01FFFC00
00FFFC00
03FFFC00
0FFFFC00
1FE00000
3F800000
7F000000
7E000000
FC000000
FC000000
F8000000
F8000000
F8000000
F8000000
FC000000
FC000000
FC000000
7E000000
7F000000
3FF00000
3FFFF800
1FFFFF00
07FFFF80
01FFFFC0
0007FFC0
00000FC0
000007C0
000007C0
000007C0
000007C0
000007C0
00000F80
00000F80
00000F80
00001F00
00001F00
00001F00
00003E00
ENDCHAR
ENDFONT
